<svg width="115" height="69" viewBox="0 0 115 69" fill="none" xmlns="http://www.w3.org/2000/svg">
<path d="M19.6616 18.6408H6.67418V7.50345H3.56608V33.4043H6.67418V21.6009H19.6616V33.4043H22.7697V7.50345H19.6616V18.6408ZM34.5959 33.8483C38.2961 33.8483 39.8501 30.7772 39.8501 30.7772V33.4043H42.7362V16.3097H39.6281V28.1501C39.6281 28.1501 38.2591 30.9622 35.373 30.9622C33.0789 30.9622 31.2658 29.7042 31.2658 26.7811V16.3097H28.1577V27.2991C28.1577 31.5172 31.1918 33.8483 34.5959 33.8483ZM66.878 7.50345H63.6589L56.1477 26.4851L48.6734 7.50345H45.2693L56.0737 34.1443L66.878 7.50345ZM69.4358 33.4043H72.5439V16.3097H69.4358V33.4043ZM68.8807 10.8336C68.8807 11.9806 69.8428 12.9426 70.9898 12.9426C72.1368 12.9426 73.0989 11.9806 73.0989 10.8336C73.0989 9.68652 72.1368 8.72449 70.9898 8.72449C69.8428 8.72449 68.8807 9.68652 68.8807 10.8336ZM77.2499 16.3097V19.1958H86.5372L76.7319 33.4043H91.6064V30.5182H82.2081L92.0134 16.3097H77.2499Z" fill="#1A1A1A"/>
<path d="M42.7982 67.5319C46.8522 67.5319 50.1386 64.2455 50.1386 60.1915C50.1386 56.1375 46.8522 52.8511 42.7982 52.8511C38.7442 52.8511 35.4578 56.1375 35.4578 60.1915C35.4578 64.2455 38.7442 67.5319 42.7982 67.5319Z" fill="#87B9C3"/>
<path d="M67.0216 69C72.2918 69 76.5641 64.7277 76.5641 59.4575C76.5641 54.1873 72.2918 49.9149 67.0216 49.9149C61.7514 49.9149 57.479 54.1873 57.479 59.4575C57.479 64.7277 61.7514 69 67.0216 69Z" fill="#107386"/>
<path d="M93.447 66.0639C100.339 66.0639 105.926 60.477 105.926 53.5852C105.926 46.6934 100.339 41.1064 93.447 41.1064C86.5552 41.1064 80.9683 46.6934 80.9683 53.5852C80.9683 60.477 86.5552 66.0639 93.447 66.0639Z" fill="#244D6E"/>
<path d="M105.926 36.7021C110.791 36.7021 114.734 32.7584 114.734 27.8936C114.734 23.0288 110.791 19.0851 105.926 19.0851C101.061 19.0851 97.1172 23.0288 97.1172 27.8936C97.1172 32.7584 101.061 36.7021 105.926 36.7021Z" fill="#122E45"/>
<path d="M94.1812 11.7447C97.4244 11.7447 100.054 9.11554 100.054 5.87234C100.054 2.62914 97.4244 0 94.1812 0C90.938 0 88.3088 2.62914 88.3088 5.87234C88.3088 9.11554 90.938 11.7447 94.1812 11.7447Z" fill="#122E45"/>
</svg>
