<svg width="822" height="830" viewBox="0 0 822 830" fill="none" xmlns="http://www.w3.org/2000/svg">
<g opacity="0.3">
<circle cx="12.8438" cy="385.789" r="12.8438" fill="#9FDFBC"/>
<circle cx="36.1529" cy="280.66" r="15.2222" fill="#C89FDF"/>
<circle cx="76.1112" cy="194.083" r="20.9306" fill="#9FC8DF"/>
<circle cx="142.708" cy="117.971" r="18.0764" fill="#9FC8DF"/>
<circle cx="230.236" cy="62.7899" r="20.9306" fill="#9FDFBC"/>
<circle cx="407.194" cy="20.9306" r="20.9306" fill="#9FC8DF"/>
<circle cx="567.028" cy="56.1337" r="20.9306" fill="#9FC8DF"/>
<circle cx="682.146" cy="128.438" r="20.9306" fill="#9FC8DF"/>
<circle cx="787.75" cy="313.009" r="20.9306" fill="#9FC8DF"/>
<circle cx="801.069" cy="443.349" r="20.9306" fill="#C89FDF"/>
<circle cx="799.167" cy="475.694" r="13.3194" fill="#9FC8DF"/>
<circle cx="776.333" cy="275.903" r="20.9306" fill="#9FDFDF"/>
<circle cx="759.208" cy="593.665" r="20.9306" fill="#C89FDF"/>
<circle cx="600.327" cy="744.938" r="20.9306" fill="#9FC8DF"/>
<circle cx="556.562" cy="778.235" r="20.9306" fill="#DFA59F"/>
<circle cx="418.611" cy="808.681" r="20.9306" fill="#9FDFDF"/>
<circle cx="344.403" cy="802.974" r="20.9306" fill="#DFDF9F"/>
<circle cx="210.257" cy="758.259" r="20.9306" fill="#DFDF9F"/>
<circle cx="76.1112" cy="643.138" r="20.9306" fill="#DFA59F"/>
<circle cx="33.7741" cy="545.623" r="13.7951" fill="#D9D9D9"/>
<circle cx="30.9203" cy="542.766" r="16.6493" fill="#F6E4EC"/>
<circle cx="68.9758" cy="600.803" r="13.7951" fill="#9FDFBC"/>
<circle cx="104.177" cy="663.594" r="14.7465" fill="#DFDF9F"/>
<circle cx="293.504" cy="792.03" r="13.7951" fill="#F6E4EC"/>
<circle cx="491.392" cy="794.885" r="13.7951" fill="#DFA59F"/>
<circle cx="684.524" cy="694.99" r="13.7951" fill="#DFA59F"/>
<circle cx="665.496" cy="715.92" r="13.7951" fill="#C89FDF"/>
<circle cx="780.615" cy="532.303" r="13.7951" fill="#9FDFDF"/>
<circle cx="760.635" cy="233.565" r="13.7951" fill="#9FDFDF"/>
<circle cx="641.712" cy="97.5178" r="13.7951" fill="#F6E4EC"/>
<circle cx="452.385" cy="21.4045" r="13.7951" fill="#E1A4A9"/>
<circle cx="362.004" cy="21.4045" r="13.7951" fill="#E4E9F6"/>
<circle cx="323.948" cy="28.0647" r="13.7951" fill="#E1A4A9"/>
<circle cx="194.559" cy="84.1975" r="13.7951" fill="#D4DF9F"/>
<circle cx="254.496" cy="49.9475" r="13.7951" fill="#D4DF9F"/>
<circle cx="532.302" cy="42.3381" r="13.7951" fill="#F6E4EC"/>
<circle cx="748.267" cy="214.537" r="13.7951" fill="#D4DF9F"/>
<circle cx="733.045" cy="194.561" r="13.7951" fill="#9FDFBC"/>
<circle cx="713.066" cy="163.162" r="13.7951" fill="#9FDFBC"/>
<circle cx="64.2189" cy="221.198" r="9.03819" fill="#DFDF9F"/>
<circle cx="29.9689" cy="312.53" r="9.03819" fill="#DFDF9F"/>
<circle cx="12.8439" cy="423.843" r="9.03819" fill="#DFDF9F"/>
<circle cx="19.5035" cy="475.218" r="9.03819" fill="#DFDF9F"/>
<circle cx="51.3749" cy="581.297" r="10.4653" fill="#D4DF9F"/>
<circle cx="43.2882" cy="564.648" r="9.03819" fill="#DFDF9F"/>
<path d="M75.1599 617.452C75.1599 620.079 73.0301 622.209 70.4029 622.209C67.7758 622.209 65.646 620.079 65.646 617.452C65.646 614.825 67.7758 612.695 70.4029 612.695C73.0301 612.695 75.1599 614.825 75.1599 617.452Z" fill="#D9D9D9"/>
<circle cx="118.448" cy="677.866" r="9.03819" fill="#DFA59F"/>
<circle cx="149.844" cy="714.968" r="9.03819" fill="#E4F0F6"/>
<circle cx="166.017" cy="724.484" r="9.03819" fill="#DFDF9F"/>
<circle cx="187.9" cy="736.851" r="9.03819" fill="#9FDFBC"/>
<circle cx="388.642" cy="810.109" r="9.03819" fill="#E4F0F6"/>
<ellipse cx="500.43" cy="790.128" rx="9.51389" ry="9.03819" fill="#F6E9E4"/>
<circle cx="314.434" cy="798.691" r="9.03819" fill="#E4F0F6"/>
<circle cx="258.302" cy="778.71" r="9.03819" fill="#DFA59F"/>
<ellipse cx="570.833" cy="767.296" rx="9.51389" ry="9.03819" fill="#F6E9E4"/>
<circle cx="642.663" cy="729.241" r="9.03819" fill="#D9D9D9"/>
<circle cx="642.663" cy="729.241" r="9.03819" fill="#DFDF9F"/>
<circle cx="745.413" cy="619.832" r="10.941" fill="#DFA59F"/>
<circle cx="734.948" cy="630.296" r="10.941" fill="#DFDF9F"/>
<circle cx="632.198" cy="740.656" r="10.941" fill="#9FDFDF"/>
<circle cx="718.775" cy="655.03" r="9.03819" fill="#ECE4F6"/>
<circle cx="700.698" cy="677.866" r="9.03819" fill="#9FDFDF"/>
<circle cx="790.129" cy="512.323" r="9.03819" fill="#ECE4F6"/>
<circle cx="799.642" cy="372.468" r="9.03819" fill="#C89FDF"/>
<circle cx="775.858" cy="555.136" r="9.03819" fill="#DFDF9F"/>
<circle cx="770.149" cy="570.356" r="6.18403" fill="#ECE4F6"/>
<circle cx="796.788" cy="340.12" r="9.03819" fill="#ECE4F6"/>
<ellipse cx="799.167" cy="413.378" rx="9.51389" ry="9.03819" fill="#F6E9E4"/>
<circle cx="698.795" cy="151.745" r="9.03819" fill="#9FDFBC"/>
<circle cx="592.239" cy="68.0226" r="9.03819" fill="#E1A4A9"/>
<circle cx="21.4062" cy="513.273" r="12.8438" fill="#E1A4A9"/>
<circle cx="18.5522" cy="493.297" r="12.8438" fill="#E1A4A9"/>
<circle cx="12.8439" cy="449.53" r="7.13542" fill="#DFDF9F"/>
<circle cx="15.2223" cy="461.425" r="4.75694" fill="#D9D9D9"/>
<circle cx="10.4654" cy="410.05" r="4.75694" fill="#D9D9D9"/>
<circle cx="10.4654" cy="400.534" r="4.75694" fill="#D9D9D9"/>
<circle cx="13.3194" cy="437.64" r="4.75694" fill="#DFDF9F"/>
<circle cx="23.3092" cy="338.217" r="7.13542" fill="#F6E4EC"/>
<circle cx="57.5593" cy="235.47" r="7.13542" transform="rotate(3.92595 57.5593 235.47)" fill="#F6E4EC"/>
<circle cx="110.837" cy="157.456" r="7.13542" fill="#E4E9F6"/>
<circle cx="96.5661" cy="175.53" r="7.13542" fill="#F6E4EC"/>
<circle cx="125.108" cy="138.428" r="7.13542" fill="#E4E9F6"/>
<circle cx="178.385" cy="95.6159" r="7.13542" fill="#E4E9F6"/>
<circle cx="473.316" cy="26.1628" r="7.13542" fill="#9FDFBC"/>
<circle cx="606.986" cy="75.1615" r="5.70833" fill="#9FDFBC"/>
<circle cx="615.549" cy="82.7708" r="5.70833" fill="#E1A4A9"/>
<path d="M631.247 88.4779C631.247 91.6305 628.691 94.1862 625.538 94.1862C622.386 94.1862 619.83 91.6305 619.83 88.4779C619.83 85.3252 622.386 82.7695 625.538 82.7695C628.691 82.7695 631.247 85.3252 631.247 88.4779Z" fill="#9FDFBC"/>
<circle cx="655.507" cy="109.411" r="5.70833" fill="#D9D9D9"/>
<circle cx="661.215" cy="115.118" r="5.70833" fill="#D9D9D9"/>
<circle cx="634.576" cy="94.1888" r="5.70833" fill="#D9D9D9"/>
<circle cx="514.701" cy="36.1536" r="5.70833" fill="#E1A4A9"/>
<circle cx="503.285" cy="34.2513" r="5.70833" fill="#9FDFDF"/>
<circle cx="489.014" cy="29.4935" r="5.70833" fill="#D9D9D9"/>
<circle cx="342.5" cy="26.638" r="5.70833" fill="#E1A4A9"/>
<circle cx="305.396" cy="34.2513" r="5.70833" fill="#E4E9F6"/>
<circle cx="274" cy="44.7161" r="5.70833" fill="#E4E9F6"/>
<circle cx="284.465" cy="40.9115" r="5.70833" fill="#D9D9D9"/>
<circle cx="166.493" cy="103.701" r="5.70833" fill="#D9D9D9"/>
<circle cx="117.972" cy="147.466" r="5.70833" fill="#DFDF9F"/>
<circle cx="102.75" cy="164.591" r="5.70833" fill="#ECE4F6"/>
<circle cx="52.3265" cy="244.505" r="5.70833" fill="#C89FDF"/>
<circle cx="46.618" cy="254.021" r="5.70833" fill="#ECE4F6"/>
<circle cx="42.8123" cy="263.536" r="5.70833" fill="#E4E9F6"/>
<circle cx="25.6873" cy="325.376" r="5.70833" fill="#ECE4F6"/>
<circle cx="19.0277" cy="349.161" r="5.70833" fill="#C89FDF"/>
<circle cx="16.1737" cy="360.576" r="5.70833" fill="#D4DF9F"/>
<circle cx="15.222" cy="371.993" r="5.70833" fill="#ECE4F6"/>
<circle cx="295.882" cy="38.056" r="5.70833" fill="#D4DF9F"/>
<circle cx="720.677" cy="180.288" r="7.13542" fill="#D9D9D9"/>
<circle cx="766.344" cy="251.643" r="7.13542" fill="#D9D9D9"/>
<circle cx="792.983" cy="496.151" r="7.13542" fill="#DFDF9F"/>
<path d="M806.302 398.632C806.302 402.572 803.107 405.767 799.167 405.767C795.226 405.767 792.031 402.572 792.031 398.632C792.031 394.691 795.226 391.496 799.167 391.496C803.107 391.496 806.302 394.691 806.302 398.632Z" fill="#D9D9D9"/>
<path d="M807.729 385.788C807.729 389.729 804.321 392.923 800.118 392.923C795.914 392.923 792.507 389.729 792.507 385.788C792.507 381.847 795.914 378.652 800.118 378.652C804.321 378.652 807.729 381.847 807.729 385.788Z" fill="#F6E9E4"/>
<path d="M802.021 356.296C802.021 360.236 798.826 363.431 794.885 363.431C790.945 363.431 787.75 360.236 787.75 356.296C787.75 352.355 790.945 349.16 794.885 349.16C798.826 349.16 802.021 352.355 802.021 356.296Z" fill="#ECE4F6"/>
<circle cx="727.337" cy="642.663" r="7.13542" fill="#C89FDF"/>
<circle cx="709.26" cy="668.35" r="7.13542" fill="#C89FDF"/>
<circle cx="530.399" cy="787.276" r="7.13542" fill="#9FDFDF"/>
<circle cx="460.948" cy="805.35" r="7.13542" fill="#9FDFDF"/>
<circle cx="473.316" cy="802.495" r="7.13542" fill="#9FDFDF"/>
<circle cx="446.677" cy="808.206" r="7.13542" fill="#D9D9D9"/>
<circle cx="372.469" cy="808.206" r="7.13542" fill="#DFDF9F"/>
<circle cx="272.573" cy="785.37" r="7.13542" fill="#E4F0F6"/>
<circle cx="240.702" cy="767.77" r="12.3681" fill="#DFDF9F"/>
<circle cx="138.427" cy="699.745" r="9.03819" fill="#D9D9D9"/>
<circle cx="127.01" cy="690.233" r="7.13542" fill="#D4DF9F"/>
</g>
</svg>
