<?xml version="1.0" encoding="UTF-8" standalone="no"?><svg xmlns="http://www.w3.org/2000/svg" xmlns:xlink="http://www.w3.org/1999/xlink" contentScriptType="application/ecmascript" contentStyleType="text/css" height="777px" preserveAspectRatio="none" style="width:549px;height:777px;" version="1.1" viewBox="0 0 549 777" width="549px" zoomAndPan="magnify"><defs/><g><ellipse cx="473.9913" cy="493.8774" fill="#F8F8F8" rx="44.7193" ry="12.8774" style="stroke: #383838; stroke-width: 0.5;"/><text fill="#000000" font-family="Tahoma, sans-serif" font-size="12" lengthAdjust="spacingAndGlyphs" textLength="59" x="444.4913" y="497.3618">angliciser</text><!--MD5=[065b424c64954ecc3679e701d25a941e]
entity _datasetdb--><rect fill="#F8F8F8" height="33.9688" rx="3" ry="3" style="stroke: #000000; stroke-width: 0.5;" width="96" x="229.272" y="110"/><text fill="#000000" font-family="Tahoma, sans-serif" font-size="12" font-weight="bold" lengthAdjust="spacingAndGlyphs" textLength="76" x="239.272" y="131.1387">datasetdb</text><!--MD5=[68f424e333f01539f4809daa1e86d0f0]
entity _dndloader--><rect fill="#F8F8F8" height="33.9688" rx="3" ry="3" style="stroke: #000000; stroke-width: 0.5;" width="83" x="235.772" y="161"/><text fill="#000000" font-family="Tahoma, sans-serif" font-size="12" lengthAdjust="spacingAndGlyphs" textLength="63" x="245.772" y="182.1387">dndloader</text><!--MD5=[88c490e9164e48e33bb1acceb2aacd6d]
entity _edge--><rect fill="#F8F8F8" height="33.9688" rx="3" ry="3" style="stroke: #000000; stroke-width: 0.5;" width="52" x="66.7721" y="733"/><text fill="#000000" font-family="Tahoma, sans-serif" font-size="12" lengthAdjust="spacingAndGlyphs" textLength="32" x="76.7721" y="754.1387">edge</text><!--MD5=[2e8c035363463292a2a2d5ce12b2c02c]
entity _editui--><rect fill="#F8F8F8" height="33.9688" rx="3" ry="3" style="stroke: #000000; stroke-width: 0.5;" width="54" x="65.7721" y="682"/><text fill="#000000" font-family="Tahoma, sans-serif" font-size="12" lengthAdjust="spacingAndGlyphs" textLength="34" x="75.7721" y="703.1387">editui</text><!--MD5=[85e828cec410b55b18bc9d950a8a5ef8]
entity _fsm--><rect fill="#F8F8F8" height="33.9688" rx="3" ry="3" style="stroke: #000000; stroke-width: 0.5;" width="42" x="256.272" y="682"/><text fill="#000000" font-family="Tahoma, sans-serif" font-size="12" lengthAdjust="spacingAndGlyphs" textLength="22" x="266.272" y="703.1387">fsm</text><!--MD5=[4086444eb55f169405db08ef307d9d70]
entity _gclui--><rect fill="#F8F8F8" height="33.9688" rx="3" ry="3" style="stroke: #000000; stroke-width: 0.5;" width="48" x="68.7721" y="631"/><text fill="#000000" font-family="Tahoma, sans-serif" font-size="12" lengthAdjust="spacingAndGlyphs" textLength="28" x="78.7721" y="652.1387">gclui</text><!--MD5=[995c6bd86ece32814d0ce502d3a43650]
entity _graphcommandlanguage--><rect fill="#F8F8F8" height="33.9688" rx="3" ry="3" style="stroke: #000000; stroke-width: 0.5;" width="173" x="190.772" y="486"/><text fill="#000000" font-family="Tahoma, sans-serif" font-size="12" lengthAdjust="spacingAndGlyphs" textLength="153" x="200.772" y="507.1387">graphcommandlanguage</text><!--MD5=[78e51e3f01a585ec427433fb7dc601b3]
entity _greenerturtle--><rect fill="#F8F8F8" height="33.9688" rx="3" ry="3" style="stroke: #000000; stroke-width: 0.5;" width="102" x="41.7721" y="580"/><text fill="#000000" font-family="Tahoma, sans-serif" font-size="12" lengthAdjust="spacingAndGlyphs" textLength="82" x="51.7721" y="601.1387">greenerturtle</text><ellipse cx="92.7782" cy="24.8774" fill="#F8F8F8" rx="23.5061" ry="12.8774" style="stroke: #383838; stroke-width: 0.5;"/><text fill="#000000" font-family="Tahoma, sans-serif" font-size="12" font-weight="bold" lengthAdjust="spacingAndGlyphs" textLength="29" x="78.2782" y="28.3618">gvcl</text><ellipse cx="92.9498" cy="67.8774" fill="#F8F8F8" rx="20.6777" ry="12.8774" style="stroke: #383838; stroke-width: 0.5;"/><text fill="#000000" font-family="Tahoma, sans-serif" font-size="12" font-weight="bold" lengthAdjust="spacingAndGlyphs" textLength="25" x="80.4498" y="71.3618">hsv</text><!--MD5=[c17c2e27dcac3cee95af133266e055c4]
entity _huviz--><rect fill="#F8F8F8" height="33.9688" rx="3" ry="3" style="stroke: #000000; stroke-width: 0.5;" width="58" x="63.7721" y="298"/><text fill="#000000" font-family="Tahoma, sans-serif" font-size="12" font-weight="bold" lengthAdjust="spacingAndGlyphs" textLength="38" x="73.7721" y="319.1387">huviz</text><!--MD5=[0ec5cfff40ac86c6e424ea8c83617c61]
entity _indexeddbservice--><rect fill="#F8F8F8" height="33.9688" rx="3" ry="3" style="stroke: #000000; stroke-width: 0.5;" width="130" x="408.772" y="571"/><text fill="#000000" font-family="Tahoma, sans-serif" font-size="12" lengthAdjust="spacingAndGlyphs" textLength="110" x="418.772" y="592.1387">indexeddbservice</text><!--MD5=[af43522a83a3894ea69d66d18845e476]
entity _indexeddbstoragecontroller--><rect fill="#F8F8F8" height="33.9688" rx="3" ry="3" style="stroke: #000000; stroke-width: 0.5;" width="193" x="180.772" y="628"/><text fill="#000000" font-family="Tahoma, sans-serif" font-size="12" lengthAdjust="spacingAndGlyphs" textLength="173" x="190.772" y="649.1387">indexeddbstoragecontroller</text><ellipse cx="92.5269" cy="549.8774" fill="#F8F8F8" rx="48.2548" ry="12.8774" style="stroke: #383838; stroke-width: 0.5;"/><text fill="#000000" font-family="Tahoma, sans-serif" font-size="12" lengthAdjust="spacingAndGlyphs" textLength="64" x="60.5269" y="553.3618">multistring</text><!--MD5=[a1220b791bfdf8d2fcff6a69a8402a50]
entity _node--><rect fill="#F8F8F8" height="33.9688" rx="3" ry="3" style="stroke: #000000; stroke-width: 0.5;" width="51" x="251.772" y="247"/><text fill="#000000" font-family="Tahoma, sans-serif" font-size="12" lengthAdjust="spacingAndGlyphs" textLength="31" x="261.772" y="268.1387">node</text><ellipse cx="92.5625" cy="506.8774" fill="#F8F8F8" rx="51.7904" ry="12.8774" style="stroke: #383838; stroke-width: 0.5;"/><text fill="#000000" font-family="Tahoma, sans-serif" font-size="12" lengthAdjust="spacingAndGlyphs" textLength="69" x="58.0625" y="510.3618">oncerunner</text><!--MD5=[1acd4c73490d50fea545701d86a6f02a]
entity _ontoviz--><rect fill="#F8F8F8" height="33.9688" rx="3" ry="3" style="stroke: #000000; stroke-width: 0.5;" width="74" x="240.272" y="8"/><text fill="#000000" font-family="Tahoma, sans-serif" font-size="12" font-weight="bold" lengthAdjust="spacingAndGlyphs" textLength="54" x="250.272" y="29.1387">ontoviz</text><!--MD5=[8bd7f295a0ce07e47a21f34eba561762]
entity _predicate--><rect fill="#F8F8F8" height="33.9688" rx="3" ry="3" style="stroke: #000000; stroke-width: 0.5;" width="80" x="237.272" y="349"/><text fill="#000000" font-family="Tahoma, sans-serif" font-size="12" lengthAdjust="spacingAndGlyphs" textLength="60" x="247.272" y="370.1387">predicate</text><ellipse cx="92.9272" cy="464.031" fill="#F8F8F8" rx="53.1551" ry="13.031" style="stroke: #383838; stroke-width: 0.5;"/><text fill="#000000" font-family="Tahoma, sans-serif" font-size="12" lengthAdjust="spacingAndGlyphs" textLength="72" x="56.9272" y="467.5154">quadParser</text><!--MD5=[bdeb9b27363b218ec700e114faa1f575]
entity _querymanager--><rect fill="#F8F8F8" height="33.9688" rx="3" ry="3" style="stroke: #000000; stroke-width: 0.5;" width="110" x="222.272" y="577"/><text fill="#000000" font-family="Tahoma, sans-serif" font-size="12" lengthAdjust="spacingAndGlyphs" textLength="90" x="232.272" y="598.1387">querymanager</text><!--MD5=[df354d2524069015f910758bbbe80e8a]
entity _settings--><rect fill="#F8F8F8" height="33.9688" rx="3" ry="3" style="stroke: #000000; stroke-width: 0.5;" width="70" x="57.7721" y="400"/><text fill="#000000" font-family="Tahoma, sans-serif" font-size="12" lengthAdjust="spacingAndGlyphs" textLength="50" x="67.7721" y="421.1387">settings</text><!--MD5=[698519afe8ef840e9874c8356e39c7e3]
entity _settingswidgets--><rect fill="#F8F8F8" height="33.9688" rx="3" ry="3" style="stroke: #000000; stroke-width: 0.5;" width="119" x="217.772" y="298"/><text fill="#000000" font-family="Tahoma, sans-serif" font-size="12" lengthAdjust="spacingAndGlyphs" textLength="99" x="227.772" y="319.1387">settingswidgets</text><!--MD5=[b2685753d20aee33b1198430d4ca6153]
entity _socrata--><rect fill="#F8F8F8" height="33.9688" rx="3" ry="3" style="stroke: #000000; stroke-width: 0.5;" width="77" x="238.772" y="59"/><text fill="#000000" font-family="Tahoma, sans-serif" font-size="12" font-weight="bold" lengthAdjust="spacingAndGlyphs" textLength="57" x="248.772" y="80.1387">socrata</text><ellipse cx="473.9055" cy="441.8774" fill="#F8F8F8" rx="46.1335" ry="12.8774" style="stroke: #383838; stroke-width: 0.5;"/><text fill="#000000" font-family="Tahoma, sans-serif" font-size="12" lengthAdjust="spacingAndGlyphs" textLength="61" x="443.4055" y="445.3618">sortedset</text><!--MD5=[319f27bc800d444a751a01b2683199e4]
entity _taxon--><rect fill="#F8F8F8" height="33.9688" rx="3" ry="3" style="stroke: #000000; stroke-width: 0.5;" width="55" x="249.772" y="435"/><text fill="#000000" font-family="Tahoma, sans-serif" font-size="12" lengthAdjust="spacingAndGlyphs" textLength="35" x="259.772" y="456.1387">taxon</text><!--MD5=[90aed9b54c4f2d78720c94aa7e57e608]
entity _textcursor--><rect fill="#F8F8F8" height="33.9688" rx="3" ry="3" style="stroke: #000000; stroke-width: 0.5;" width="84" x="50.7721" y="349"/><text fill="#000000" font-family="Tahoma, sans-serif" font-size="12" lengthAdjust="spacingAndGlyphs" textLength="64" x="60.7721" y="370.1387">textcursor</text><!--MD5=[ceba8e24a112afc51c5fe49531598f36]
entity _treectrl--><rect fill="#F8F8F8" height="33.9688" rx="3" ry="3" style="stroke: #000000; stroke-width: 0.5;" width="66" x="440.772" y="368"/><text fill="#000000" font-family="Tahoma, sans-serif" font-size="12" lengthAdjust="spacingAndGlyphs" textLength="46" x="450.772" y="389.1387">treectrl</text><ellipse cx="473.5918" cy="242.8774" fill="#F8F8F8" rx="34.8198" ry="12.8774" style="stroke: #383838; stroke-width: 0.5;"/><text fill="#000000" font-family="Tahoma, sans-serif" font-size="12" lengthAdjust="spacingAndGlyphs" textLength="45" x="451.0918" y="246.3618">uniquer</text><!--MD5=[edc372a5cb21e65345c5bf7d05238963]
link _datasetdb to _dndloader--><path d="M277.272,144.198 C277.272,148.018 277.272,151.838 277.272,155.658 " fill="none" id="_datasetdb-&gt;_dndloader" style="stroke: #000000; stroke-width: 1.0;"/><polygon fill="#000000" points="277.272,160.867,281.272,151.867,277.272,155.867,273.272,151.867,277.272,160.867" style="stroke: #000000; stroke-width: 1.0;"/><!--MD5=[bfb75d4d8f0723c1988c6bc57ecf3a1e]
link _datasetdb to uniquer--><path d="M325.655,134.618 C341.579,138.403 359.03,143.952 373.772,152 C409.119,171.295 441.781,205.905 459.327,226.43 " fill="none" id="_datasetdb-&gt;uniquer" style="stroke: #000000; stroke-width: 1.0;"/><polygon fill="#000000" points="462.631,230.338,459.8747,220.8827,459.4028,226.5198,453.7656,226.0479,462.631,230.338" style="stroke: #000000; stroke-width: 1.0;"/><!--MD5=[fdb1266c795476e54b3fbfa48d7c662e]
link _dndloader to uniquer--><path d="M318.802,190.384 C335.823,195.675 355.803,202.004 373.772,208 C397.206,215.82 423.572,225.169 443.199,232.236 " fill="none" id="_dndloader-&gt;uniquer" style="stroke: #000000; stroke-width: 0.5;"/><polygon fill="#000000" points="448.038,233.982,440.9283,227.1664,443.3344,232.286,438.2148,234.6921,448.038,233.982" style="stroke: #000000; stroke-width: 0.5;"/><!--MD5=[a30baaf1f5525220c49869b40c8172a6]
link _editui to _fsm--><path d="M119.92,699 C154.816,699 216.217,699 250.778,699 " fill="none" id="_editui-&gt;_fsm" style="stroke: #000000; stroke-width: 0.5;"/><polygon fill="#000000" points="256.087,699,247.087,695,251.087,699,247.087,703,256.087,699" style="stroke: #000000; stroke-width: 0.5;"/><!--MD5=[7a5d0419302720763152f26417e90ab3]
link _editui to _indexeddbstoragecontroller--><path d="M119.92,691.2631 C144.244,684.0658 181.447,673.0579 213.461,663.585 " fill="none" id="_editui-&gt;_indexeddbstoragecontroller" style="stroke: #000000; stroke-width: 0.5;"/><polygon fill="#000000" points="218.551,662.079,208.7859,660.7969,213.7565,663.4976,211.0558,668.4682,218.551,662.079" style="stroke: #000000; stroke-width: 0.5;"/><!--MD5=[87b71bbd7c7e51674aee4d8d213c4dfd]
link _gclui to _graphcommandlanguage--><path d="M116.89,640.096 C126.543,636.024 137.427,630.348 145.772,623 C167.237,604.1 160.851,589.521 180.772,569 C198.391,550.851 221.688,534.633 240.862,522.816 " fill="none" id="_gclui-&gt;_graphcommandlanguage" style="stroke: #000000; stroke-width: 0.5;"/><polygon fill="#000000" points="245.137,520.212,235.3699,521.4786,240.867,522.8134,239.5322,528.3105,245.137,520.212" style="stroke: #000000; stroke-width: 0.5;"/><!--MD5=[94edbdfe38f378104ff793902e80a452]
link _gclui to _querymanager--><path d="M116.946,640.224 C134.423,634.438 159.02,626.458 180.772,620 C192.447,616.534 204.978,612.994 216.995,609.687 " fill="none" id="_gclui-&gt;_querymanager" style="stroke: #000000; stroke-width: 0.5;"/><polygon fill="#000000" points="222.11,608.285,212.3729,606.8055,217.2877,609.6063,214.4869,614.5211,222.11,608.285" style="stroke: #000000; stroke-width: 0.5;"/><!--MD5=[180e44a801c72b313cfac1c6dee1f477]
link _graphcommandlanguage to angliciser--><path d="M363.866,499.039 C384.64,498.078 406.135,497.083 424.483,496.234 " fill="none" id="_graphcommandlanguage-&gt;angliciser" style="stroke: #000000; stroke-width: 0.5;"/><polygon fill="#000000" points="429.572,495.999,420.3965,492.4199,424.5774,496.2304,420.7668,500.4113,429.572,495.999" style="stroke: #000000; stroke-width: 0.5;"/><!--MD5=[04abc1225e7ffdb108f39a6b72fc8d2f]
link _graphcommandlanguage to sortedset--><path d="M343.444,485.95 C353.632,483.085 364.013,480.049 373.772,477 C396.23,469.984 421.206,461.146 440.453,454.107 " fill="none" id="_graphcommandlanguage-&gt;sortedset" style="stroke: #000000; stroke-width: 0.5;"/><polygon fill="#000000" points="445.218,452.358,435.3909,451.7038,440.5241,454.0807,438.1472,459.2139,445.218,452.358" style="stroke: #000000; stroke-width: 0.5;"/><!--MD5=[0a19c39635a92762a7be9d9130041a5d]
link _huviz to _edge--><path d="M63.7049,320.946 C48.552,325.686 31.3319,334.027 22.2721,348.5 C0.576,383.158 0.576,681.8419 22.2721,716.5 C30.9286,730.3282 47.035,738.5591 61.6697,743.399 " fill="none" id="_huviz-&gt;_edge" style="stroke: #000000; stroke-width: 1.0;"/><polygon fill="#000000" points="66.5635,744.9136,59.1484,738.4316,61.787,743.4353,56.7832,746.0739,66.5635,744.9136" style="stroke: #000000; stroke-width: 1.0;"/><!--MD5=[7c5eb97fb3d0511e7c515fe8c5e2c9a9]
link _huviz to _editui--><path d="M63.7049,320.946 C48.552,325.686 31.3319,334.027 22.2721,348.5 C3.5828,378.355 3.5828,635.645 22.2721,665.5 C30.7348,679.0187 46.3175,687.1878 60.6847,692.0689 " fill="none" id="_huviz-&gt;_editui" style="stroke: #000000; stroke-width: 1.0;"/><polygon fill="#000000" points="65.4984,693.6011,58.1357,687.0597,60.7339,692.0845,55.7091,694.6828,65.4984,693.6011" style="stroke: #000000; stroke-width: 1.0;"/><!--MD5=[78c92fafc734451d0c4222f6f659630a]
link _huviz to _gclui--><path d="M63.7049,320.946 C48.552,325.686 31.3319,334.027 22.2721,348.5 C6.5896,373.552 6.5896,589.448 22.2721,614.5 C31.3162,628.947 48.4923,637.285 63.6259,642.029 " fill="none" id="_huviz-&gt;_gclui" style="stroke: #000000; stroke-width: 1.0;"/><polygon fill="#000000" points="68.6652,643.504,61.1511,637.137,63.8665,642.0995,58.904,644.8149,68.6652,643.504" style="stroke: #000000; stroke-width: 1.0;"/><!--MD5=[45b54291284970458bed53f428aad9bc]
link _huviz to _graphcommandlanguage--><path d="M121.907,323.254 C130.657,327.074 139.614,332.484 145.772,340 C185.6,388.613 136.684,432.215 180.772,477 C182.806,479.066 184.987,480.973 187.287,482.733 " fill="none" id="_huviz-&gt;_graphcommandlanguage" style="stroke: #000000; stroke-width: 1.0;"/><polygon fill="#000000" points="191.548,485.743,186.5038,477.2839,187.4638,482.8587,181.889,483.8187,191.548,485.743" style="stroke: #000000; stroke-width: 1.0;"/><!--MD5=[611afdb953935b80d86a045e5a20c8c3]
link _huviz to _greenerturtle--><path d="M63.7049,320.946 C48.552,325.686 31.3319,334.027 22.2721,348.5 C9.5964,368.749 9.5964,543.251 22.2721,563.5 C26.1279,569.659 31.4618,574.708 37.4854,578.842 " fill="none" id="_huviz-&gt;_greenerturtle" style="stroke: #000000; stroke-width: 1.0;"/><polygon fill="#000000" points="41.756,581.559,36.3114,573.3519,37.538,578.8742,32.0157,580.1007,41.756,581.559" style="stroke: #000000; stroke-width: 1.0;"/><!--MD5=[b5066780bb50e7eb53d192028117f15c]
link _huviz to _indexeddbservice--><path d="M121.931,322.903 C130.791,326.711 139.809,332.202 145.772,340 C197.668,407.859 120.858,468.104 180.772,529 C182.75,531.011 317.741,557.701 403.467,574.486 " fill="none" id="_huviz-&gt;_indexeddbservice" style="stroke: #000000; stroke-width: 1.0;"/><polygon fill="#000000" points="408.53,575.477,400.4654,569.8235,403.623,574.517,398.9295,577.6746,408.53,575.477" style="stroke: #000000; stroke-width: 1.0;"/><!--MD5=[b8419d487ca96138f60f566e4a1586cd]
link _huviz to _indexeddbstoragecontroller--><path d="M121.923,322.591 C130.893,326.386 139.982,331.949 145.772,340 C218.998,441.815 98.1184,525.677 180.772,620 C182.233,621.668 183.791,623.231 185.431,624.695 " fill="none" id="_huviz-&gt;_indexeddbstoragecontroller" style="stroke: #000000; stroke-width: 1.0;"/><polygon fill="#000000" points="189.402,627.937,184.9598,619.1468,185.5288,624.775,179.9006,625.344,189.402,627.937" style="stroke: #000000; stroke-width: 1.0;"/><!--MD5=[cf2b9d99b2fde8f9ac8fe3818c591fa6]
link _huviz to multistring--><path d="M63.7049,320.946 C48.552,325.686 31.3319,334.027 22.2721,348.5 C1.9909,380.898 1.9909,488.102 22.2721,520.5 C28.133,529.862 37.6375,536.255 47.7961,540.62 " fill="none" id="_huviz-&gt;multistring" style="stroke: #000000; stroke-width: 1.0;"/><polygon fill="#000000" points="52.4988,542.486,45.6088,535.4484,47.8514,540.6417,42.658,542.8843,52.4988,542.486" style="stroke: #000000; stroke-width: 1.0;"/><!--MD5=[576ad3665183860786542bc172304814]
link _huviz to _node--><path d="M121.911,306.323 C138.912,301.148 161.039,294.53 180.772,289 C202.645,282.871 227.467,276.387 246.323,271.559 " fill="none" id="_huviz-&gt;_node" style="stroke: #000000; stroke-width: 1.0;"/><polygon fill="#000000" points="251.475,270.242,241.7652,268.5927,246.6304,271.4789,243.7442,276.344,251.475,270.242" style="stroke: #000000; stroke-width: 1.0;"/><!--MD5=[c316f54a23eccd85694cacab9137e8a6]
link _huviz to oncerunner--><path d="M63.7049,320.946 C48.552,325.686 31.3319,334.027 22.2721,348.5 C7.1791,372.61 7.1791,452.39 22.2721,476.5 C28.1016,485.812 37.4802,492.29 47.5198,496.792 " fill="none" id="_huviz-&gt;oncerunner" style="stroke: #000000; stroke-width: 1.0;"/><polygon fill="#000000" points="52.1688,498.725,45.3948,491.5757,47.5521,496.805,42.3228,498.9624,52.1688,498.725" style="stroke: #000000; stroke-width: 1.0;"/><!--MD5=[53eaa73e9beaed2f6e00aaef30b9a17d]
link _huviz to _predicate--><path d="M121.954,323.207 C138.97,328.134 161.098,334.495 180.772,340 C197.568,344.699 216.058,349.759 232.258,354.156 " fill="none" id="_huviz-&gt;_predicate" style="stroke: #000000; stroke-width: 1.0;"/><polygon fill="#000000" points="237.208,355.497,229.5686,349.281,232.3823,354.1884,227.4748,357.0021,237.208,355.497" style="stroke: #000000; stroke-width: 1.0;"/><!--MD5=[bc42dcbe4b21fcf3c326d926fe3eabe6]
link _huviz to quadParser--><path d="M63.7049,320.946 C48.552,325.686 31.3319,334.027 22.2721,348.5 C2.2268,380.521 2.2268,401.479 22.2721,433.5 C27.9883,442.631 37.1169,449.037 46.9351,453.527 " fill="none" id="_huviz-&gt;quadParser" style="stroke: #000000; stroke-width: 1.0;"/><polygon fill="#000000" points="51.7984,455.582,45.0643,448.3951,47.1925,453.6363,41.9512,455.7646,51.7984,455.582" style="stroke: #000000; stroke-width: 1.0;"/><!--MD5=[ef4f53580943ebda46b8452c1e3fea4a]
link _huviz to _settings--><path d="M63.7049,320.946 C48.552,325.686 31.3319,334.027 22.2721,348.5 C14.254,361.308 14.2728,369.68 22.2721,382.5 C29.2132,393.624 40.8972,401.26 52.7777,406.459 " fill="none" id="_huviz-&gt;_settings" style="stroke: #000000; stroke-width: 1.0;"/><polygon fill="#000000" points="57.5086,408.402,50.7035,401.2823,52.8836,406.5022,47.6637,408.6823,57.5086,408.402" style="stroke: #000000; stroke-width: 1.0;"/><!--MD5=[0c21caadf211326c87ff1b7e37a323ba]
link _huviz to _settingswidgets--><path d="M121.888,315 C145.895,315 181.339,315 212.212,315 " fill="none" id="_huviz-&gt;_settingswidgets" style="stroke: #000000; stroke-width: 1.0;"/><polygon fill="#000000" points="217.521,315,208.521,311,212.521,315,208.521,319,217.521,315" style="stroke: #000000; stroke-width: 1.0;"/><!--MD5=[4082761b21fcdf8c267ea3a997d893eb]
link _huviz to sortedset--><path d="M121.838,325.249 C130.092,329.086 138.776,334.002 145.772,340 C166.643,357.893 157.644,376.139 180.772,391 C185.975,394.343 348.089,421.435 428.471,434.715 " fill="none" id="_huviz-&gt;sortedset" style="stroke: #000000; stroke-width: 1.0;"/><polygon fill="#000000" points="433.645,435.569,425.4182,430.1543,428.712,434.7533,424.113,438.0471,433.645,435.569" style="stroke: #000000; stroke-width: 1.0;"/><!--MD5=[19bae500a9ad4dd5ac0c01e4595e6366]
link _huviz to _taxon--><path d="M121.8,324.066 C130.339,327.906 139.195,333.122 145.772,340 C173.158,368.639 151.4,395.402 180.772,422 C198.229,437.808 223.965,445.287 244.323,448.824 " fill="none" id="_huviz-&gt;_taxon" style="stroke: #000000; stroke-width: 1.0;"/><polygon fill="#000000" points="249.375,449.642,241.1292,444.2563,244.4391,448.8436,239.8518,452.1536,249.375,449.642" style="stroke: #000000; stroke-width: 1.0;"/><!--MD5=[f06c90f6ce968f3d0df0990a2e51a62b]
link _huviz to _textcursor--><path d="M92.7721,332.198 C92.7721,336.018 92.7721,339.838 92.7721,343.658 " fill="none" id="_huviz-&gt;_textcursor" style="stroke: #000000; stroke-width: 1.0;"/><polygon fill="#000000" points="92.7721,348.867,96.7721,339.867,92.7721,343.867,88.7721,339.867,92.7721,348.867" style="stroke: #000000; stroke-width: 1.0;"/><!--MD5=[3a6f22ad93df00ce9fd9dc9592f22562]
link _huviz to uniquer--><path d="M106.585,297.88 C121.848,279.067 149.274,249.937 180.772,238 C269.135,204.513 383.604,222.435 439.332,234.661 " fill="none" id="_huviz-&gt;uniquer" style="stroke: #000000; stroke-width: 1.0;"/><polygon fill="#000000" points="444.215,235.75,436.3018,229.8865,439.3349,234.6614,434.56,237.6946,444.215,235.75" style="stroke: #000000; stroke-width: 1.0;"/><!--MD5=[c4773edaa6d8e63a11de9e435cd61aba]
link _indexeddbstoragecontroller to _indexeddbservice--><path d="M345.194,627.995 C354.808,625.403 364.56,622.692 373.772,620 C387.747,615.916 402.735,611.231 416.714,606.729 " fill="none" id="_indexeddbstoragecontroller-&gt;_indexeddbservice" style="stroke: #000000; stroke-width: 0.5;"/><polygon fill="#000000" points="421.815,605.08,412.0209,604.0428,417.0575,606.6182,414.4821,611.6548,421.815,605.08" style="stroke: #000000; stroke-width: 0.5;"/><!--MD5=[a2ca38879bb953ea5390095996b88ddb]
link _node to uniquer--><path d="M302.906,261.34 C336.167,257.749 395.76,251.315 434.781,247.102 " fill="none" id="_node-&gt;uniquer" style="stroke: #000000; stroke-width: 0.5;"/><polygon fill="#000000" points="439.908,246.548,430.5304,243.5379,434.9369,247.0851,431.3898,251.4916,439.908,246.548" style="stroke: #000000; stroke-width: 0.5;"/><!--MD5=[a2f550a9ef4c63f37cf9f4261de5c587]
link _predicate to sortedset--><path d="M317.701,377.122 C335.075,382.346 355.623,388.967 373.772,396 C398.698,405.658 426.21,418.638 445.892,428.347 " fill="none" id="_predicate-&gt;sortedset" style="stroke: #000000; stroke-width: 0.5;"/><polygon fill="#000000" points="450.72,430.741,444.4338,423.1592,446.2405,428.5198,440.8799,430.3265,450.72,430.741" style="stroke: #000000; stroke-width: 0.5;"/><!--MD5=[248000c19addd84d3bd8fd9a624f4569]
link _predicate to _treectrl--><path d="M317.632,369.845 C351.981,373.2 401.48,378.036 435.269,381.336 " fill="none" id="_predicate-&gt;_treectrl" style="stroke: #000000; stroke-width: 0.5;"/><polygon fill="#000000" points="440.552,381.853,431.9832,376.9975,435.5757,381.3672,431.206,384.9597,440.552,381.853" style="stroke: #000000; stroke-width: 0.5;"/><!--MD5=[28310eee2fca0e95a76e2266f3caba5f]
link _predicate to uniquer--><path d="M317.669,359.97 C335.615,356.072 356.628,349.827 373.772,340 C410.37,319.021 443.271,281.285 460.374,259.582 " fill="none" id="_predicate-&gt;uniquer" style="stroke: #000000; stroke-width: 0.5;"/><polygon fill="#000000" points="463.581,255.465,454.8944,260.1064,460.5081,259.4093,461.2053,265.023,463.581,255.465" style="stroke: #000000; stroke-width: 0.5;"/><!--MD5=[98be6845be905518450252ae93d07b4f]
link _settings to _settingswidgets--><path d="M127.797,403.117 C134.142,399.687 140.444,395.64 145.772,391 C166.503,372.945 158.282,355.809 180.772,340 C190.219,333.36 201.308,328.483 212.521,324.901 " fill="none" id="_settings-&gt;_settingswidgets" style="stroke: #000000; stroke-width: 0.5;"/><polygon fill="#000000" points="217.329,323.444,207.5557,322.2264,212.5439,324.8942,209.8761,329.8825,217.329,323.444" style="stroke: #000000; stroke-width: 0.5;"/><!--MD5=[151ebb7b97156e44f60a81716f179c47]
link _settingswidgets to uniquer--><path d="M336.843,300.738 C349.162,297.27 361.99,293.306 373.772,289 C399.7,279.524 428.172,265.94 447.9,255.99 " fill="none" id="_settingswidgets-&gt;uniquer" style="stroke: #000000; stroke-width: 0.5;"/><polygon fill="#000000" points="452.721,253.543,442.8852,254.0493,448.2624,255.8059,446.5058,261.1831,452.721,253.543" style="stroke: #000000; stroke-width: 0.5;"/><!--MD5=[fc90fe1503a3a89654081b9607cd7cce]
link _taxon to angliciser--><path d="M304.909,457.752 C337.866,464.869 394.299,477.055 432.543,485.313 " fill="none" id="_taxon-&gt;angliciser" style="stroke: #000000; stroke-width: 0.5;"/><polygon fill="#000000" points="437.58,486.401,429.6259,480.5931,432.6924,485.3466,427.9389,488.4132,437.58,486.401" style="stroke: #000000; stroke-width: 0.5;"/><!--MD5=[0aee645be1bce300269f0d1fecc89b9b]
link _taxon to sortedset--><path d="M304.909,450.631 C335.153,449.076 385.168,446.504 422.753,444.572 " fill="none" id="_taxon-&gt;sortedset" style="stroke: #000000; stroke-width: 0.5;"/><polygon fill="#000000" points="428.204,444.291,419.0102,440.7592,423.2106,444.5482,419.4216,448.7486,428.204,444.291" style="stroke: #000000; stroke-width: 0.5;"/><!--MD5=[85533fe774a186ff7ac61a8548acf24f]
link _taxon to _treectrl--><path d="M304.909,442.824 C338.762,431.163 397.386,410.969 435.621,397.797 " fill="none" id="_taxon-&gt;_treectrl" style="stroke: #000000; stroke-width: 0.5;"/><polygon fill="#000000" points="440.644,396.067,430.8319,395.2167,435.9167,397.6956,433.4377,402.7804,440.644,396.067" style="stroke: #000000; stroke-width: 0.5;"/><!--MD5=[d6a3172dff1eddc9799eb40c22a3dc34]
link <b>gvcl</b> to <b>hsv</b>--><!--MD5=[d5fcc95865112b69530db3bc24e523b9]
link <b>gvcl</b> to _ontoviz--><!--MD5=[f5b7b88db9ca67dfdc2269afca6c2ec9]
link _ontoviz to _socrata--><script type="text/plantuml"><![CDATA[MD5=[b80c6bb1234c22f6bfb7fe885944c9fc]
@startuml

scale max 1920 width
left to right direction

skinparam nodesep 17
skinparam ranksep 35
skinparam monochrome true
skinparam shadowing false
skinparam defaultFontName Tahoma
skinparam defaultFontSize 12
skinparam roundCorner 6
skinparam dpi 150
skinparam arrowColor black
skinparam arrowThickness 0.5
skinparam packageTitleAlignment left

skinparam usecase {
  borderThickness 0.5
}

skinparam rectangle {
  borderThickness 0.5
}

skinparam component {
  borderThickness 1
}


(angliciser)
rectangle "<b>datasetdb</b>" as _datasetdb
rectangle "dndloader" as _dndloader
rectangle "edge" as _edge
rectangle "editui" as _editui
rectangle "fsm" as _fsm
rectangle "gclui" as _gclui
rectangle "graphcommandlanguage" as _graphcommandlanguage
rectangle "greenerturtle" as _greenerturtle
(<b>gvcl</b>)
(<b>hsv</b>)
rectangle "<b>huviz</b>" as _huviz
rectangle "indexeddbservice" as _indexeddbservice
rectangle "indexeddbstoragecontroller" as _indexeddbstoragecontroller
(multistring)
rectangle "node" as _node
(oncerunner)
rectangle "<b>ontoviz</b>" as _ontoviz
rectangle "predicate" as _predicate
(quadParser)
rectangle "querymanager" as _querymanager
rectangle "settings" as _settings
rectangle "settingswidgets" as _settingswidgets
rectangle "<b>socrata</b>" as _socrata
(sortedset)
rectangle "taxon" as _taxon
rectangle "textcursor" as _textcursor
rectangle "treectrl" as _treectrl
(uniquer)


_datasetdb -[thickness=1]> _dndloader
_datasetdb -[thickness=1]> (uniquer)
_dndloader --> (uniquer)
_editui --> _fsm
_editui --> _indexeddbstoragecontroller
_gclui --> _graphcommandlanguage
_gclui --> _querymanager
_graphcommandlanguage --> (angliciser)
_graphcommandlanguage --> (sortedset)
_huviz -[thickness=1]> _edge
_huviz -[thickness=1]> _editui
_huviz -[thickness=1]> _gclui
_huviz -[thickness=1]> _graphcommandlanguage
_huviz -[thickness=1]> _greenerturtle
_huviz -[thickness=1]> _indexeddbservice
_huviz -[thickness=1]> _indexeddbstoragecontroller
_huviz -[thickness=1]> (multistring)
_huviz -[thickness=1]> _node
_huviz -[thickness=1]> (oncerunner)
_huviz -[thickness=1]> _predicate
_huviz -[thickness=1]> (quadParser)
_huviz -[thickness=1]> _settings
_huviz -[thickness=1]> _settingswidgets
_huviz -[thickness=1]> (sortedset)
_huviz -[thickness=1]> _taxon
_huviz -[thickness=1]> _textcursor
_huviz -[thickness=1]> (uniquer)
_indexeddbstoragecontroller --> _indexeddbservice
_node --> (uniquer)
_predicate --> (sortedset)
_predicate --> _treectrl
_predicate --> (uniquer)
_settings --> _settingswidgets
_settingswidgets --> (uniquer)
_taxon --> (angliciser)
_taxon --> (sortedset)
_taxon --> _treectrl

@enduml


' View and edit on https://arkit.pro
]]></script></g></svg>