<?xml version="1.0" encoding="UTF-8" standalone="no"?><svg xmlns="http://www.w3.org/2000/svg" xmlns:xlink="http://www.w3.org/1999/xlink" contentScriptType="application/ecmascript" contentStyleType="text/css" height="725px" preserveAspectRatio="none" style="width:618px;height:725px;" version="1.1" viewBox="0 0 618 725" width="618px" zoomAndPan="magnify"><defs/><g><ellipse cx="446.5399" cy="360.242" fill="#F8F8F8" rx="41.8909" ry="13.242" style="stroke: #383838; stroke-width: 0.5;"/><text fill="#000000" font-family="Tahoma, sans-serif" font-size="12" lengthAdjust="spacingAndGlyphs" textLength="55" x="419.0399" y="363.9842">angliciser</text><!--MD5=[c85f6d4caefce92acd9ac3fe1e6380c2]
entity _coloredtreepicker--><rect fill="#F8F8F8" height="34.4844" rx="3" ry="3" style="stroke: #000000; stroke-width: 0.5;" width="120" x="202.649" y="576"/><text fill="#000000" font-family="Tahoma, sans-serif" font-size="12" lengthAdjust="spacingAndGlyphs" textLength="100" x="212.649" y="598.0059">coloredtreepicker</text><!--MD5=[065b424c64954ecc3679e701d25a941e]
entity _datasetdb--><rect fill="#F8F8F8" height="34.4844" rx="3" ry="3" style="stroke: #000000; stroke-width: 0.5;" width="86" x="403.649" y="545"/><text fill="#000000" font-family="Tahoma, sans-serif" font-size="12" font-weight="bold" lengthAdjust="spacingAndGlyphs" textLength="66" x="413.649" y="567.0059">datasetdb</text><!--MD5=[68f424e333f01539f4809daa1e86d0f0]
entity _dndloader--><rect fill="#F8F8F8" height="34.4844" rx="3" ry="3" style="stroke: #000000; stroke-width: 0.5;" width="77" x="408.149" y="641"/><text fill="#000000" font-family="Tahoma, sans-serif" font-size="12" lengthAdjust="spacingAndGlyphs" textLength="57" x="418.149" y="663.0059">dndloader</text><!--MD5=[88c490e9164e48e33bb1acceb2aacd6d]
entity _edge--><rect fill="#F8F8F8" height="34.4844" rx="3" ry="3" style="stroke: #000000; stroke-width: 0.5;" width="48" x="65.1494" y="463"/><text fill="#000000" font-family="Tahoma, sans-serif" font-size="12" lengthAdjust="spacingAndGlyphs" textLength="28" x="75.1494" y="485.0059">edge</text><!--MD5=[2e8c035363463292a2a2d5ce12b2c02c]
entity _editui--><rect fill="#F8F8F8" height="34.4844" rx="3" ry="3" style="stroke: #000000; stroke-width: 0.5;" width="51" x="63.6494" y="663"/><text fill="#000000" font-family="Tahoma, sans-serif" font-size="12" lengthAdjust="spacingAndGlyphs" textLength="31" x="73.6494" y="685.0059">editui</text><!--MD5=[85e828cec410b55b18bc9d950a8a5ef8]
entity _fsm--><rect fill="#F8F8F8" height="34.4844" rx="3" ry="3" style="stroke: #000000; stroke-width: 0.5;" width="42" x="241.649" y="680"/><text fill="#000000" font-family="Tahoma, sans-serif" font-size="12" lengthAdjust="spacingAndGlyphs" textLength="22" x="251.649" y="702.0059">fsm</text><!--MD5=[4086444eb55f169405db08ef307d9d70]
entity _gclui--><rect fill="#F8F8F8" height="34.4844" rx="3" ry="3" style="stroke: #000000; stroke-width: 0.5;" width="47" x="65.6494" y="611"/><text fill="#000000" font-family="Tahoma, sans-serif" font-size="12" lengthAdjust="spacingAndGlyphs" textLength="27" x="75.6494" y="633.0059">gclui</text><!--MD5=[995c6bd86ece32814d0ce502d3a43650]
entity _graphcommandlanguage--><rect fill="#F8F8F8" height="34.4844" rx="3" ry="3" style="stroke: #000000; stroke-width: 0.5;" width="162" x="181.649" y="344"/><text fill="#000000" font-family="Tahoma, sans-serif" font-size="12" lengthAdjust="spacingAndGlyphs" textLength="142" x="191.649" y="366.0059">graphcommandlanguage</text><!--MD5=[78e51e3f01a585ec427433fb7dc601b3]
entity _greenerturtle--><rect fill="#F8F8F8" height="34.4844" rx="3" ry="3" style="stroke: #000000; stroke-width: 0.5;" width="92" x="43.1494" y="359"/><text fill="#000000" font-family="Tahoma, sans-serif" font-size="12" lengthAdjust="spacingAndGlyphs" textLength="72" x="53.1494" y="381.0059">greenerturtle</text><ellipse cx="89.2413" cy="25.242" fill="#F8F8F8" rx="22.0919" ry="13.242" style="stroke: #383838; stroke-width: 0.5;"/><text fill="#000000" font-family="Tahoma, sans-serif" font-size="12" font-weight="bold" lengthAdjust="spacingAndGlyphs" textLength="27" x="75.7413" y="28.9842">gvcl</text><ellipse cx="446.5668" cy="609.9342" fill="#F8F8F8" rx="15.4178" ry="12.9342" style="stroke: #383838; stroke-width: 0.5;"/><text fill="#000000" font-family="Tahoma, sans-serif" font-size="12" lengthAdjust="spacingAndGlyphs" textLength="17" x="438.0668" y="613.6764">hsl</text><ellipse cx="88.9129" cy="69.242" fill="#F8F8F8" rx="19.2635" ry="13.242" style="stroke: #383838; stroke-width: 0.5;"/><text fill="#000000" font-family="Tahoma, sans-serif" font-size="12" font-weight="bold" lengthAdjust="spacingAndGlyphs" textLength="23" x="77.4129" y="72.9842">hsv</text><!--MD5=[c17c2e27dcac3cee95af133266e055c4]
entity _huviz--><rect fill="#F8F8F8" height="34.4844" rx="3" ry="3" style="stroke: #000000; stroke-width: 0.5;" width="55" x="61.6494" y="219"/><text fill="#000000" font-family="Tahoma, sans-serif" font-size="12" font-weight="bold" lengthAdjust="spacingAndGlyphs" textLength="35" x="71.6494" y="241.0059">huviz</text><!--MD5=[0ec5cfff40ac86c6e424ea8c83617c61]
entity _indexeddbservice--><rect fill="#F8F8F8" height="34.4844" rx="3" ry="3" style="stroke: #000000; stroke-width: 0.5;" width="119" x="387.149" y="441"/><text fill="#000000" font-family="Tahoma, sans-serif" font-size="12" lengthAdjust="spacingAndGlyphs" textLength="99" x="397.149" y="463.0059">indexeddbservice</text><!--MD5=[af43522a83a3894ea69d66d18845e476]
entity _indexeddbstoragecontroller--><rect fill="#F8F8F8" height="34.4844" rx="3" ry="3" style="stroke: #000000; stroke-width: 0.5;" width="177" x="174.149" y="486"/><text fill="#000000" font-family="Tahoma, sans-serif" font-size="12" lengthAdjust="spacingAndGlyphs" textLength="157" x="184.149" y="508.0059">indexeddbstoragecontroller</text><ellipse cx="89.0758" cy="328.242" fill="#F8F8F8" rx="45.4264" ry="13.242" style="stroke: #383838; stroke-width: 0.5;"/><text fill="#000000" font-family="Tahoma, sans-serif" font-size="12" lengthAdjust="spacingAndGlyphs" textLength="60" x="59.0758" y="331.9842">multistring</text><!--MD5=[a1220b791bfdf8d2fcff6a69a8402a50]
entity _node--><rect fill="#F8F8F8" height="34.4844" rx="3" ry="3" style="stroke: #000000; stroke-width: 0.5;" width="49" x="238.149" y="150"/><text fill="#000000" font-family="Tahoma, sans-serif" font-size="12" lengthAdjust="spacingAndGlyphs" textLength="29" x="248.149" y="172.0059">node</text><ellipse cx="89.1113" cy="284.242" fill="#F8F8F8" rx="48.9619" ry="13.242" style="stroke: #383838; stroke-width: 0.5;"/><text fill="#000000" font-family="Tahoma, sans-serif" font-size="12" lengthAdjust="spacingAndGlyphs" textLength="65" x="56.6113" y="287.9842">oncerunner</text><!--MD5=[1acd4c73490d50fea545701d86a6f02a]
entity _ontoviz--><rect fill="#F8F8F8" height="34.4844" rx="3" ry="3" style="stroke: #000000; stroke-width: 0.5;" width="70" x="227.649" y="8"/><text fill="#000000" font-family="Tahoma, sans-serif" font-size="12" font-weight="bold" lengthAdjust="spacingAndGlyphs" textLength="50" x="237.649" y="30.0059">ontoviz</text><!--MD5=[8bd7f295a0ce07e47a21f34eba561762]
entity _predicate--><rect fill="#F8F8F8" height="34.4844" rx="3" ry="3" style="stroke: #000000; stroke-width: 0.5;" width="73" x="226.149" y="202"/><text fill="#000000" font-family="Tahoma, sans-serif" font-size="12" lengthAdjust="spacingAndGlyphs" textLength="53" x="236.149" y="224.0059">predicate</text><ellipse cx="88.9042" cy="528.242" fill="#F8F8F8" rx="48.2548" ry="13.242" style="stroke: #383838; stroke-width: 0.5;"/><text fill="#000000" font-family="Tahoma, sans-serif" font-size="12" lengthAdjust="spacingAndGlyphs" textLength="64" x="56.9042" y="531.9842">quadParser</text><!--MD5=[bdeb9b27363b218ec700e114faa1f575]
entity _querymanager--><rect fill="#F8F8F8" height="34.4844" rx="3" ry="3" style="stroke: #000000; stroke-width: 0.5;" width="101" x="212.149" y="628"/><text fill="#000000" font-family="Tahoma, sans-serif" font-size="12" lengthAdjust="spacingAndGlyphs" textLength="81" x="222.149" y="650.0059">querymanager</text><!--MD5=[df354d2524069015f910758bbbe80e8a]
entity _settings--><rect fill="#F8F8F8" height="34.4844" rx="3" ry="3" style="stroke: #000000; stroke-width: 0.5;" width="66" x="56.1494" y="559"/><text fill="#000000" font-family="Tahoma, sans-serif" font-size="12" lengthAdjust="spacingAndGlyphs" textLength="46" x="66.1494" y="581.0059">settings</text><!--MD5=[698519afe8ef840e9874c8356e39c7e3]
entity _settingswidgets--><rect fill="#F8F8F8" height="34.4844" rx="3" ry="3" style="stroke: #000000; stroke-width: 0.5;" width="110" x="207.649" y="396"/><text fill="#000000" font-family="Tahoma, sans-serif" font-size="12" lengthAdjust="spacingAndGlyphs" textLength="90" x="217.649" y="418.0059">settingswidgets</text><!--MD5=[b2685753d20aee33b1198430d4ca6153]
entity _socrata--><rect fill="#F8F8F8" height="34.4844" rx="3" ry="3" style="stroke: #000000; stroke-width: 0.5;" width="71" x="227.149" y="60"/><text fill="#000000" font-family="Tahoma, sans-serif" font-size="12" font-weight="bold" lengthAdjust="spacingAndGlyphs" textLength="51" x="237.149" y="82.0059">socrata</text><!--MD5=[54ff41620e670ad663e6c1b91bbeac92]
entity _sortedset--><rect fill="#F8F8F8" height="34.4844" rx="3" ry="3" style="stroke: #000000; stroke-width: 0.5;" width="75" x="409.149" y="294"/><text fill="#000000" font-family="Tahoma, sans-serif" font-size="12" lengthAdjust="spacingAndGlyphs" textLength="55" x="419.149" y="316.0059">sortedset</text><!--MD5=[319f27bc800d444a751a01b2683199e4]
entity _taxon--><rect fill="#F8F8F8" height="34.4844" rx="3" ry="3" style="stroke: #000000; stroke-width: 0.5;" width="52" x="236.649" y="292"/><text fill="#000000" font-family="Tahoma, sans-serif" font-size="12" lengthAdjust="spacingAndGlyphs" textLength="32" x="246.649" y="314.0059">taxon</text><!--MD5=[90aed9b54c4f2d78720c94aa7e57e608]
entity _textcursor--><rect fill="#F8F8F8" height="34.4844" rx="3" ry="3" style="stroke: #000000; stroke-width: 0.5;" width="78" x="50.1494" y="411"/><text fill="#000000" font-family="Tahoma, sans-serif" font-size="12" lengthAdjust="spacingAndGlyphs" textLength="58" x="60.1494" y="433.0059">textcursor</text><!--MD5=[ceba8e24a112afc51c5fe49531598f36]
entity _treectrl--><rect fill="#F8F8F8" height="34.4844" rx="3" ry="3" style="stroke: #000000; stroke-width: 0.5;" width="60" x="416.649" y="242"/><text fill="#000000" font-family="Tahoma, sans-serif" font-size="12" lengthAdjust="spacingAndGlyphs" textLength="40" x="426.649" y="264.0059">treectrl</text><!--MD5=[c4d596e948cbed671d412ad21a22ac4a]
entity _treepicker--><rect fill="#F8F8F8" height="34.4844" rx="3" ry="3" style="stroke: #000000; stroke-width: 0.5;" width="76" x="408.649" y="493"/><text fill="#000000" font-family="Tahoma, sans-serif" font-size="12" lengthAdjust="spacingAndGlyphs" textLength="56" x="418.649" y="515.0059">treepicker</text><ellipse cx="574.8475" cy="413.242" fill="#F8F8F8" rx="32.6985" ry="13.242" style="stroke: #383838; stroke-width: 0.5;"/><text fill="#000000" font-family="Tahoma, sans-serif" font-size="12" lengthAdjust="spacingAndGlyphs" textLength="42" x="553.8475" y="416.9842">uniquer</text><!--MD5=[5cd249406984a5cc838d707d05280374]
link _coloredtreepicker to hsl--><path d="M322.74,598.519 C358.25,601.836 401.184,605.847 425.764,608.143 " fill="none" id="_coloredtreepicker-&gt;hsl" style="stroke: #000000; stroke-width: 0.5;"/><polygon fill="#000000" points="431.015,608.633,422.4268,603.8119,426.0367,608.1672,421.6815,611.7771,431.015,608.633" style="stroke: #000000; stroke-width: 0.5;"/><!--MD5=[aa63334a7eb54a4d8e25fa7ab8740525]
link _coloredtreepicker to _treepicker--><path d="M319.278,575.983 C330.089,571.931 341.158,567.239 351.149,562 C368.628,552.834 370.04,545.838 387.149,536 C392.418,532.97 398.106,530.048 403.793,527.327 " fill="none" id="_coloredtreepicker-&gt;_treepicker" style="stroke: #000000; stroke-width: 0.5;"/><polygon fill="#000000" points="408.56,525.089,398.7132,525.291,404.0335,527.213,402.1116,532.5333,408.56,525.089" style="stroke: #000000; stroke-width: 0.5;"/><!--MD5=[edc372a5cb21e65345c5bf7d05238963]
link _datasetdb to _dndloader--><path d="M403.626,571.317 C390.164,576.516 376.833,584.567 369.149,597 C363.074,606.83 363.074,613.17 369.149,623 C376.753,635.3033 389.887,643.3158 403.205,648.5196 " fill="none" id="_datasetdb-&gt;_dndloader" style="stroke: #000000; stroke-width: 1.0;"/><polygon fill="#000000" points="408.11,650.3125,401.031,643.465,403.4141,648.5954,398.2837,650.9785,408.11,650.3125" style="stroke: #000000; stroke-width: 1.0;"/><!--MD5=[bfb75d4d8f0723c1988c6bc57ecf3a1e]
link _datasetdb to uniquer--><path d="M489.685,547.392 C495.614,544.213 501.323,540.439 506.149,536 C538.59,506.166 558.893,457.06 568.01,430.828 " fill="none" id="_datasetdb-&gt;uniquer" style="stroke: #000000; stroke-width: 1.0;"/><polygon fill="#000000" points="569.685,425.899,563.0023,433.1337,568.0765,430.6332,570.577,435.7074,569.685,425.899" style="stroke: #000000; stroke-width: 1.0;"/><!--MD5=[fdb1266c795476e54b3fbfa48d7c662e]
link _dndloader to uniquer--><path d="M485.428,646.8846 C493.11,643.1763 500.543,638.318 506.149,632 C558.968,572.476 570.456,472.274 572.955,431.298 " fill="none" id="_dndloader-&gt;uniquer" style="stroke: #000000; stroke-width: 0.5;"/><polygon fill="#000000" points="573.24,426.145,568.7473,434.9095,572.9629,431.1373,576.735,435.3529,573.24,426.145" style="stroke: #000000; stroke-width: 0.5;"/><!--MD5=[a30baaf1f5525220c49869b40c8172a6]
link _editui to _fsm--><path d="M114.721,682.4357 C147.074,685.6427 203.672,691.2529 236.373,694.4944 " fill="none" id="_editui-&gt;_fsm" style="stroke: #000000; stroke-width: 0.5;"/><polygon fill="#000000" points="241.408,694.9936,232.8461,690.1259,236.4323,694.5007,232.0575,698.087,241.408,694.9936" style="stroke: #000000; stroke-width: 0.5;"/><!--MD5=[7a5d0419302720763152f26417e90ab3]
link _editui to _indexeddbstoragecontroller--><path d="M114.832,670.6462 C123.094,666.5485 131.806,661.041 138.149,654 C166.16,622.9111 148.301,599.909 174.149,567 C188.189,549.126 208.455,533.873 225.948,522.746 " fill="none" id="_editui-&gt;_indexeddbstoragecontroller" style="stroke: #000000; stroke-width: 0.5;"/><polygon fill="#000000" points="230.33,520.007,220.578,521.385,226.09,522.657,224.818,528.169,230.33,520.007" style="stroke: #000000; stroke-width: 0.5;"/><!--MD5=[f941d9f8ed439ca0b18e22352ae94bbf]
link _gclui to _coloredtreepicker--><path d="M112.923,623.3523 C134.456,618.9577 167.798,612.153 197.459,606.1 " fill="none" id="_gclui-&gt;_coloredtreepicker" style="stroke: #000000; stroke-width: 0.5;"/><polygon fill="#000000" points="202.567,605.058,192.9488,602.939,197.668,606.0581,194.5489,610.7773,202.567,605.058" style="stroke: #000000; stroke-width: 0.5;"/><!--MD5=[87b71bbd7c7e51674aee4d8d213c4dfd]
link _gclui to _graphcommandlanguage--><path d="M112.771,620.7747 C122.022,616.6945 131.981,610.638 138.149,602 C194.454,523.154 109.978,459.588 174.149,387 C175.894,385.026 177.782,383.199 179.786,381.508 " fill="none" id="_gclui-&gt;_graphcommandlanguage" style="stroke: #000000; stroke-width: 0.5;"/><polygon fill="#000000" points="184.054,378.224,174.4816,380.5412,180.091,381.2727,179.3595,386.8821,184.054,378.224" style="stroke: #000000; stroke-width: 0.5;"/><!--MD5=[94edbdfe38f378104ff793902e80a452]
link _gclui to _querymanager--><path d="M112.923,630.2575 C136.794,632.6237 175.176,636.4283 206.969,639.5798 " fill="none" id="_gclui-&gt;_querymanager" style="stroke: #000000; stroke-width: 0.5;"/><polygon fill="#000000" points="212.012,640.0797,203.4501,635.212,207.0363,639.5868,202.6615,643.1731,212.012,640.0797" style="stroke: #000000; stroke-width: 0.5;"/><!--MD5=[71af8658dd215183f4594b4f0638118a]
link _gclui to _treepicker--><path d="M112.905,617.3092 C121.158,613.016 130.36,607.725 138.149,602 C156.13,588.783 154.451,577.485 174.149,567 C179.229,564.296 328.111,533.847 403.201,518.597 " fill="none" id="_gclui-&gt;_treepicker" style="stroke: #000000; stroke-width: 0.5;"/><polygon fill="#000000" points="408.477,517.526,398.8613,515.3957,403.5769,518.5203,400.4522,523.2359,408.477,517.526" style="stroke: #000000; stroke-width: 0.5;"/><!--MD5=[180e44a801c72b313cfac1c6dee1f477]
link _graphcommandlanguage to angliciser--><path d="M343.742,360.56 C362.756,360.455 382.415,360.347 399.332,360.254 " fill="none" id="_graphcommandlanguage-&gt;angliciser" style="stroke: #000000; stroke-width: 0.5;"/><polygon fill="#000000" points="404.491,360.226,395.4694,356.2749,399.4911,360.2531,395.5128,364.2748,404.491,360.226" style="stroke: #000000; stroke-width: 0.5;"/><!--MD5=[0efe7eb2c13d8101a1669ca619d526fd]
link _graphcommandlanguage to _sortedset--><path d="M325.774,343.933 C351.636,336.828 380.968,328.77 404.144,322.403 " fill="none" id="_graphcommandlanguage-&gt;_sortedset" style="stroke: #000000; stroke-width: 0.5;"/><polygon fill="#000000" points="408.993,321.071,399.255,319.5976,404.1716,322.3953,401.3738,327.3119,408.993,321.071" style="stroke: #000000; stroke-width: 0.5;"/><!--MD5=[0a19c39635a92762a7be9d9130041a5d]
link _huviz to _edge--><path d="M61.4927,242.969 C47.082,248.158 30.7174,256.857 22.1494,271 C2.1138,304.071 2.1138,411.929 22.1494,445 C30.3859,458.595 45.8273,467.161 59.8118,472.413 " fill="none" id="_huviz-&gt;_edge" style="stroke: #000000; stroke-width: 1.0;"/><polygon fill="#000000" points="64.882,474.201,57.7246,467.4355,60.1666,472.5381,55.064,474.9801,64.882,474.201" style="stroke: #000000; stroke-width: 1.0;"/><!--MD5=[7c5eb97fb3d0511e7c515fe8c5e2c9a9]
link _huviz to _editui--><path d="M61.4927,242.969 C47.082,248.158 30.7174,256.857 22.1494,271 C0.6169,306.542 0.6169,609.458 22.1494,645 C30.1437,658.1955 44.9252,666.6527 58.5743,671.9407 " fill="none" id="_huviz-&gt;_editui" style="stroke: #000000; stroke-width: 1.0;"/><polygon fill="#000000" points="63.537,673.7484,56.4498,666.9095,58.839,672.037,53.7115,674.4262,63.537,673.7484" style="stroke: #000000; stroke-width: 1.0;"/><!--MD5=[78c92fafc734451d0c4222f6f659630a]
link _huviz to _gclui--><path d="M61.4927,242.969 C47.082,248.158 30.7174,256.857 22.1494,271 C3.6107,301.6 3.6107,562.4 22.1494,593 C30.5804,606.916 46.5604,615.5625 60.7997,620.7791 " fill="none" id="_huviz-&gt;_gclui" style="stroke: #000000; stroke-width: 1.0;"/><polygon fill="#000000" points="65.5485,622.4194,58.3476,615.7003,60.8225,620.787,55.7357,623.2619,65.5485,622.4194" style="stroke: #000000; stroke-width: 1.0;"/><!--MD5=[45b54291284970458bed53f428aad9bc]
link _huviz to _graphcommandlanguage--><path d="M117.062,246.867 C124.546,250.816 132.235,255.854 138.149,262 C163.235,288.064 146.498,311.675 174.149,335 C176.773,337.213 179.578,339.237 182.517,341.09 " fill="none" id="_huviz-&gt;_graphcommandlanguage" style="stroke: #000000; stroke-width: 1.0;"/><polygon fill="#000000" points="187.236,343.861,181.5002,335.8547,182.9243,341.3294,177.4496,342.7535,187.236,343.861" style="stroke: #000000; stroke-width: 1.0;"/><!--MD5=[611afdb953935b80d86a045e5a20c8c3]
link _huviz to _greenerturtle--><path d="M61.4927,242.969 C47.082,248.158 30.7174,256.857 22.1494,271 C6.0288,297.609 6.0288,314.391 22.1494,341 C26.1826,347.657 31.9435,353.109 38.415,357.555 " fill="none" id="_huviz-&gt;_greenerturtle" style="stroke: #000000; stroke-width: 1.0;"/><polygon fill="#000000" points="42.9963,360.476,37.5565,352.2657,38.7798,357.7887,33.2568,359.0121,42.9963,360.476" style="stroke: #000000; stroke-width: 1.0;"/><!--MD5=[b5066780bb50e7eb53d192028117f15c]
link _huviz to _indexeddbservice--><path d="M116.866,245.331 C124.799,249.319 132.791,254.765 138.149,262 C185.93,326.509 113.797,386.066 174.149,439 C203.983,465.167 311.549,465.176 381.999,462.087 " fill="none" id="_huviz-&gt;_indexeddbservice" style="stroke: #000000; stroke-width: 1.0;"/><polygon fill="#000000" points="387.006,461.86,377.8336,458.273,382.0112,462.0872,378.197,466.2648,387.006,461.86" style="stroke: #000000; stroke-width: 1.0;"/><!--MD5=[b8419d487ca96138f60f566e4a1586cd]
link _huviz to _indexeddbstoragecontroller--><path d="M116.749,245.109 C124.772,249.101 132.848,254.606 138.149,262 C193.33,338.956 113.142,399.576 174.149,472 C177.727,476.247 181.926,479.912 186.515,483.075 " fill="none" id="_huviz-&gt;_indexeddbstoragecontroller" style="stroke: #000000; stroke-width: 1.0;"/><polygon fill="#000000" points="190.832,485.841,185.4116,477.6179,186.6219,483.1438,181.096,484.3541,190.832,485.841" style="stroke: #000000; stroke-width: 1.0;"/><!--MD5=[cf2b9d99b2fde8f9ac8fe3818c591fa6]
link _huviz to multistring--><path d="M61.4927,242.969 C47.082,248.158 30.7174,256.857 22.1494,271 C16.1617,280.883 16.0742,287.17 22.1494,297 C28.1094,306.644 37.9496,313.324 48.277,317.938 " fill="none" id="_huviz-&gt;multistring" style="stroke: #000000; stroke-width: 1.0;"/><polygon fill="#000000" points="53.0441,319.915,46.2636,312.7718,48.4257,317.9992,43.1983,320.1613,53.0441,319.915" style="stroke: #000000; stroke-width: 1.0;"/><!--MD5=[576ad3665183860786542bc172304814]
link _huviz to _node--><path d="M116.797,220.759 C133.026,211.884 154.378,200.919 174.149,193 C193.214,185.364 215.4,178.796 232.661,174.172 " fill="none" id="_huviz-&gt;_node" style="stroke: #000000; stroke-width: 1.0;"/><polygon fill="#000000" points="237.851,172.8,228.1278,171.2315,233.0169,174.0771,230.1712,178.9661,237.851,172.8" style="stroke: #000000; stroke-width: 1.0;"/><!--MD5=[c316f54a23eccd85694cacab9137e8a6]
link _huviz to oncerunner--><path d="M89.1494,253.165 C89.1494,257.316 89.1494,261.467 89.1494,265.617 " fill="none" id="_huviz-&gt;oncerunner" style="stroke: #000000; stroke-width: 1.0;"/><polygon fill="#000000" points="89.1494,270.875,93.1494,261.875,89.1494,265.875,85.1494,261.875,89.1494,270.875" style="stroke: #000000; stroke-width: 1.0;"/><!--MD5=[53eaa73e9beaed2f6e00aaef30b9a17d]
link _huviz to _predicate--><path d="M116.946,233.344 C144.846,230.578 188.885,226.213 221.057,223.024 " fill="none" id="_huviz-&gt;_predicate" style="stroke: #000000; stroke-width: 1.0;"/><polygon fill="#000000" points="226.114,222.522,216.7635,219.4286,221.1383,223.0149,217.5521,227.3897,226.114,222.522" style="stroke: #000000; stroke-width: 1.0;"/><!--MD5=[bc42dcbe4b21fcf3c326d926fe3eabe6]
link _huviz to quadParser--><path d="M61.4927,242.969 C47.082,248.158 30.7174,256.857 22.1494,271 C9.1378,292.477 8.9477,475.639 22.1494,497 C27.9341,506.36 37.3741,512.928 47.3671,517.525 " fill="none" id="_huviz-&gt;quadParser" style="stroke: #000000; stroke-width: 1.0;"/><polygon fill="#000000" points="51.9863,519.501,45.285,512.2834,47.3893,517.5344,42.1384,519.6386,51.9863,519.501" style="stroke: #000000; stroke-width: 1.0;"/><!--MD5=[ef4f53580943ebda46b8452c1e3fea4a]
link _huviz to _settings--><path d="M61.4927,242.969 C47.082,248.158 30.7174,256.857 22.1494,271 C6.6045,296.658 6.6045,515.342 22.1494,541 C28.6944,551.803 39.7889,559.431 51.0867,564.743 " fill="none" id="_huviz-&gt;_settings" style="stroke: #000000; stroke-width: 1.0;"/><polygon fill="#000000" points="55.9283,566.88,49.3102,559.5861,51.3542,564.8608,46.0795,566.9047,55.9283,566.88" style="stroke: #000000; stroke-width: 1.0;"/><!--MD5=[0c21caadf211326c87ff1b7e37a323ba]
link _huviz to _settingswidgets--><path d="M116.779,245.718 C124.611,249.709 132.566,255.058 138.149,262 C174.385,307.049 133.441,345.948 174.149,387 C181.987,394.904 192.112,400.428 202.678,404.283 " fill="none" id="_huviz-&gt;_settingswidgets" style="stroke: #000000; stroke-width: 1.0;"/><polygon fill="#000000" points="207.557,405.94,200.3217,399.2579,202.8227,404.3319,197.7487,406.8329,207.557,405.94" style="stroke: #000000; stroke-width: 1.0;"/><!--MD5=[38ff69355a392520dfa6bb4e13bad1f0]
link _huviz to _sortedset--><path d="M116.651,239.787 C164.033,246.775 266.261,262.845 351.149,283 C368.651,287.155 387.714,292.62 404.105,297.617 " fill="none" id="_huviz-&gt;_sortedset" style="stroke: #000000; stroke-width: 1.0;"/><polygon fill="#000000" points="409.102,299.151,401.6724,292.6856,404.3222,297.6835,399.3244,300.3333,409.102,299.151" style="stroke: #000000; stroke-width: 1.0;"/><!--MD5=[19bae500a9ad4dd5ac0c01e4595e6366]
link _huviz to _taxon--><path d="M116.989,250.48 C133.287,259.004 154.644,269.706 174.149,278 C192.832,285.944 214.314,293.576 231.318,299.28 " fill="none" id="_huviz-&gt;_taxon" style="stroke: #000000; stroke-width: 1.0;"/><polygon fill="#000000" points="236.443,300.986,229.168,294.3472,231.6992,299.4061,226.6402,301.9373,236.443,300.986" style="stroke: #000000; stroke-width: 1.0;"/><!--MD5=[f06c90f6ce968f3d0df0990a2e51a62b]
link _huviz to _textcursor--><path d="M61.4927,242.969 C47.082,248.158 30.7174,256.857 22.1494,271 C8.1014,294.188 8.1014,369.812 22.1494,393 C27.5841,401.971 36.1556,408.751 45.3757,413.835 " fill="none" id="_huviz-&gt;_textcursor" style="stroke: #000000; stroke-width: 1.0;"/><polygon fill="#000000" points="49.9431,416.197,43.7857,408.5103,45.5017,413.9006,40.1114,415.6166,49.9431,416.197" style="stroke: #000000; stroke-width: 1.0;"/><!--MD5=[3a6f22ad93df00ce9fd9dc9592f22562]
link _huviz to uniquer--><path d="M99.2822,218.63 C112.367,195.852 138.823,156.92 174.149,141 C241.635,110.588 451.348,118.241 506.149,168 C540.344,199.048 563.756,343.188 571.15,394.666 " fill="none" id="_huviz-&gt;uniquer" style="stroke: #000000; stroke-width: 1.0;"/><polygon fill="#000000" points="571.894,399.915,574.589,390.4421,571.1911,394.9647,566.6685,391.5667,571.894,399.915" style="stroke: #000000; stroke-width: 1.0;"/><!--MD5=[c4773edaa6d8e63a11de9e435cd61aba]
link _indexeddbstoragecontroller to _indexeddbservice--><path d="M332.456,485.987 C348.694,481.973 365.936,477.709 381.938,473.753 " fill="none" id="_indexeddbstoragecontroller-&gt;_indexeddbservice" style="stroke: #000000; stroke-width: 0.5;"/><polygon fill="#000000" points="386.862,472.535,377.165,470.8124,382.0082,473.7352,379.0853,478.5785,386.862,472.535" style="stroke: #000000; stroke-width: 0.5;"/><!--MD5=[a2ca38879bb953ea5390095996b88ddb]
link _node to uniquer--><path d="M287.248,163.062 C334.735,156.561 442.7,149.167 506.149,203 C564.697,252.674 572.94,353.352 573.763,394.672 " fill="none" id="_node-&gt;uniquer" style="stroke: #000000; stroke-width: 0.5;"/><polygon fill="#000000" points="573.833,399.869,577.7118,390.8161,573.7659,394.8695,569.7125,390.9235,573.833,399.869" style="stroke: #000000; stroke-width: 0.5;"/><!--MD5=[93ed82f8c79f28d038d68c50d730322f]
link _predicate to _sortedset--><path d="M299.286,227.822 C315.815,232.845 335.27,240.135 351.149,250 C370.105,261.776 368.666,272.496 387.149,285 C392.504,288.623 398.446,291.941 404.432,294.907 " fill="none" id="_predicate-&gt;_sortedset" style="stroke: #000000; stroke-width: 0.5;"/><polygon fill="#000000" points="409.009,297.106,402.6293,289.6027,404.5023,294.9405,399.1645,296.8135,409.009,297.106" style="stroke: #000000; stroke-width: 0.5;"/><!--MD5=[248000c19addd84d3bd8fd9a624f4569]
link _predicate to _treectrl--><path d="M299.173,226.807 C331.675,233.951 379.446,244.45 411.507,251.496 " fill="none" id="_predicate-&gt;_treectrl" style="stroke: #000000; stroke-width: 0.5;"/><polygon fill="#000000" points="416.513,252.596,408.5811,246.7578,411.6295,251.523,406.8643,254.5714,416.513,252.596" style="stroke: #000000; stroke-width: 0.5;"/><!--MD5=[28310eee2fca0e95a76e2266f3caba5f]
link _predicate to uniquer--><path d="M299.344,209.977 C350.5,199.287 445.201,188.108 506.149,233 C558.911,271.863 570.446,356.996 572.957,394.563 " fill="none" id="_predicate-&gt;uniquer" style="stroke: #000000; stroke-width: 0.5;"/><polygon fill="#000000" points="573.266,399.749,576.7241,390.5272,572.9689,394.7578,568.7382,391.0026,573.266,399.749" style="stroke: #000000; stroke-width: 0.5;"/><!--MD5=[98be6845be905518450252ae93d07b4f]
link _settings to _settingswidgets--><path d="M122.558,562.041 C128.199,558.654 133.68,554.643 138.149,550 C163.235,523.936 150.88,504.698 174.149,477 C188.881,459.464 209.378,444.139 226.831,432.884 " fill="none" id="_settings-&gt;_settingswidgets" style="stroke: #000000; stroke-width: 0.5;"/><polygon fill="#000000" points="231.197,430.112,221.4552,431.5603,226.9762,432.7925,225.744,438.3135,231.197,430.112" style="stroke: #000000; stroke-width: 0.5;"/><!--MD5=[151ebb7b97156e44f60a81716f179c47]
link _settingswidgets to uniquer--><path d="M318.002,413 C380.916,413 482.806,413 537.005,413 " fill="none" id="_settingswidgets-&gt;uniquer" style="stroke: #000000; stroke-width: 0.5;"/><polygon fill="#000000" points="542.099,413,533.099,409,537.099,413,533.099,417,542.099,413" style="stroke: #000000; stroke-width: 0.5;"/><!--MD5=[fc90fe1503a3a89654081b9607cd7cce]
link _taxon to angliciser--><path d="M288.956,316.091 C320.329,324.883 374.008,339.925 409.658,349.914 " fill="none" id="_taxon-&gt;angliciser" style="stroke: #000000; stroke-width: 0.5;"/><polygon fill="#000000" points="414.782,351.35,407.1963,345.0686,409.9677,350,405.0363,352.7714,414.782,351.35" style="stroke: #000000; stroke-width: 0.5;"/><!--MD5=[e718b0c18ad25aacf97ca456a9ede7e1]
link _taxon to _sortedset--><path d="M288.956,309.278 C318.653,309.604 368.337,310.15 403.797,310.54 " fill="none" id="_taxon-&gt;_sortedset" style="stroke: #000000; stroke-width: 0.5;"/><polygon fill="#000000" points="408.922,310.596,399.966,306.4985,403.9223,310.5417,399.8791,314.4981,408.922,310.596" style="stroke: #000000; stroke-width: 0.5;"/><!--MD5=[85533fe774a186ff7ac61a8548acf24f]
link _taxon to _treectrl--><path d="M288.956,302.048 C320.794,293.301 375.605,278.243 411.232,268.455 " fill="none" id="_taxon-&gt;_treectrl" style="stroke: #000000; stroke-width: 0.5;"/><polygon fill="#000000" points="416.345,267.051,406.607,265.5776,411.5236,268.3753,408.7258,273.2919,416.345,267.051" style="stroke: #000000; stroke-width: 0.5;"/><!--MD5=[2ff73aa3b99096fa975781b07659832c]
link _treepicker to uniquer--><path d="M484.736,496.163 C492.123,492.688 499.611,488.613 506.149,484 C527.998,468.584 548.469,445.325 561.014,429.67 " fill="none" id="_treepicker-&gt;uniquer" style="stroke: #000000; stroke-width: 0.5;"/><polygon fill="#000000" points="564.337,425.469,555.6175,430.0483,561.236,429.3913,561.8931,435.0098,564.337,425.469" style="stroke: #000000; stroke-width: 0.5;"/><!--MD5=[d6a3172dff1eddc9799eb40c22a3dc34]
link <b>gvcl</b> to <b>hsv</b>--><!--MD5=[d5fcc95865112b69530db3bc24e523b9]
link <b>gvcl</b> to _ontoviz--><!--MD5=[f5b7b88db9ca67dfdc2269afca6c2ec9]
link _ontoviz to _socrata--><script type="text/plantuml"><![CDATA[MD5=[53699d9dfa26e02379a5968c759f20a6]
@startuml

scale max 1920 width
left to right direction

skinparam nodesep 18
skinparam ranksep 36
skinparam monochrome true
skinparam shadowing false
skinparam defaultFontName Tahoma
skinparam defaultFontSize 12
skinparam roundCorner 6
skinparam dpi 150
skinparam arrowColor black
skinparam arrowThickness 0.5
skinparam packageTitleAlignment left

skinparam usecase {
  borderThickness 0.5
}

skinparam rectangle {
  borderThickness 0.5
}

skinparam component {
  borderThickness 1
}


(angliciser)
rectangle "coloredtreepicker" as _coloredtreepicker
rectangle "<b>datasetdb</b>" as _datasetdb
rectangle "dndloader" as _dndloader
rectangle "edge" as _edge
rectangle "editui" as _editui
rectangle "fsm" as _fsm
rectangle "gclui" as _gclui
rectangle "graphcommandlanguage" as _graphcommandlanguage
rectangle "greenerturtle" as _greenerturtle
(<b>gvcl</b>)
(hsl)
(<b>hsv</b>)
rectangle "<b>huviz</b>" as _huviz
rectangle "indexeddbservice" as _indexeddbservice
rectangle "indexeddbstoragecontroller" as _indexeddbstoragecontroller
(multistring)
rectangle "node" as _node
(oncerunner)
rectangle "<b>ontoviz</b>" as _ontoviz
rectangle "predicate" as _predicate
(quadParser)
rectangle "querymanager" as _querymanager
rectangle "settings" as _settings
rectangle "settingswidgets" as _settingswidgets
rectangle "<b>socrata</b>" as _socrata
rectangle "sortedset" as _sortedset
rectangle "taxon" as _taxon
rectangle "textcursor" as _textcursor
rectangle "treectrl" as _treectrl
rectangle "treepicker" as _treepicker
(uniquer)


_coloredtreepicker --> (hsl)
_coloredtreepicker --> _treepicker
_datasetdb -[thickness=1]> _dndloader
_datasetdb -[thickness=1]> (uniquer)
_dndloader --> (uniquer)
_editui --> _fsm
_editui --> _indexeddbstoragecontroller
_gclui --> _coloredtreepicker
_gclui --> _graphcommandlanguage
_gclui --> _querymanager
_gclui --> _treepicker
_graphcommandlanguage --> (angliciser)
_graphcommandlanguage --> _sortedset
_huviz -[thickness=1]> _edge
_huviz -[thickness=1]> _editui
_huviz -[thickness=1]> _gclui
_huviz -[thickness=1]> _graphcommandlanguage
_huviz -[thickness=1]> _greenerturtle
_huviz -[thickness=1]> _indexeddbservice
_huviz -[thickness=1]> _indexeddbstoragecontroller
_huviz -[thickness=1]> (multistring)
_huviz -[thickness=1]> _node
_huviz -[thickness=1]> (oncerunner)
_huviz -[thickness=1]> _predicate
_huviz -[thickness=1]> (quadParser)
_huviz -[thickness=1]> _settings
_huviz -[thickness=1]> _settingswidgets
_huviz -[thickness=1]> _sortedset
_huviz -[thickness=1]> _taxon
_huviz -[thickness=1]> _textcursor
_huviz -[thickness=1]> (uniquer)
_indexeddbstoragecontroller --> _indexeddbservice
_node --> (uniquer)
_predicate --> _sortedset
_predicate --> _treectrl
_predicate --> (uniquer)
_settings --> _settingswidgets
_settingswidgets --> (uniquer)
_taxon --> (angliciser)
_taxon --> _sortedset
_taxon --> _treectrl
_treepicker --> (uniquer)

@enduml


' View and edit on https://arkit.pro
]]></script></g></svg>