<?xml version="1.0" encoding="UTF-8" standalone="no"?><svg xmlns="http://www.w3.org/2000/svg" xmlns:xlink="http://www.w3.org/1999/xlink" contentScriptType="application/ecmascript" contentStyleType="text/css" height="778px" preserveAspectRatio="none" style="width:514px;height:778px;" version="1.1" viewBox="0 0 514 778" width="514px" zoomAndPan="magnify"><defs/><g><ellipse cx="443.9739" cy="494.242" fill="#F8F8F8" rx="41.8909" ry="13.242" style="stroke: #383838; stroke-width: 0.5;"/><text fill="#000000" font-family="Tahoma, sans-serif" font-size="12" lengthAdjust="spacingAndGlyphs" textLength="55" x="416.4739" y="497.9842">angliciser</text><!--MD5=[065b424c64954ecc3679e701d25a941e]
entity _datasetdb--><rect fill="#F8F8F8" height="34.4844" rx="3" ry="3" style="stroke: #000000; stroke-width: 0.5;" width="86" x="218.083" y="110"/><text fill="#000000" font-family="Tahoma, sans-serif" font-size="12" font-weight="bold" lengthAdjust="spacingAndGlyphs" textLength="66" x="228.083" y="132.0059">datasetdb</text><!--MD5=[68f424e333f01539f4809daa1e86d0f0]
entity _dndloader--><rect fill="#F8F8F8" height="34.4844" rx="3" ry="3" style="stroke: #000000; stroke-width: 0.5;" width="77" x="222.583" y="161"/><text fill="#000000" font-family="Tahoma, sans-serif" font-size="12" lengthAdjust="spacingAndGlyphs" textLength="57" x="232.583" y="183.0059">dndloader</text><!--MD5=[88c490e9164e48e33bb1acceb2aacd6d]
entity _edge--><rect fill="#F8F8F8" height="34.4844" rx="3" ry="3" style="stroke: #000000; stroke-width: 0.5;" width="48" x="64.5832" y="733"/><text fill="#000000" font-family="Tahoma, sans-serif" font-size="12" lengthAdjust="spacingAndGlyphs" textLength="28" x="74.5832" y="755.0059">edge</text><!--MD5=[2e8c035363463292a2a2d5ce12b2c02c]
entity _editui--><rect fill="#F8F8F8" height="34.4844" rx="3" ry="3" style="stroke: #000000; stroke-width: 0.5;" width="51" x="63.0832" y="682"/><text fill="#000000" font-family="Tahoma, sans-serif" font-size="12" lengthAdjust="spacingAndGlyphs" textLength="31" x="73.0832" y="704.0059">editui</text><!--MD5=[85e828cec410b55b18bc9d950a8a5ef8]
entity _fsm--><rect fill="#F8F8F8" height="34.4844" rx="3" ry="3" style="stroke: #000000; stroke-width: 0.5;" width="42" x="240.083" y="682"/><text fill="#000000" font-family="Tahoma, sans-serif" font-size="12" lengthAdjust="spacingAndGlyphs" textLength="22" x="250.083" y="704.0059">fsm</text><!--MD5=[4086444eb55f169405db08ef307d9d70]
entity _gclui--><rect fill="#F8F8F8" height="34.4844" rx="3" ry="3" style="stroke: #000000; stroke-width: 0.5;" width="47" x="65.0832" y="631"/><text fill="#000000" font-family="Tahoma, sans-serif" font-size="12" lengthAdjust="spacingAndGlyphs" textLength="27" x="75.0832" y="653.0059">gclui</text><!--MD5=[995c6bd86ece32814d0ce502d3a43650]
entity _graphcommandlanguage--><rect fill="#F8F8F8" height="34.4844" rx="3" ry="3" style="stroke: #000000; stroke-width: 0.5;" width="162" x="180.083" y="486"/><text fill="#000000" font-family="Tahoma, sans-serif" font-size="12" lengthAdjust="spacingAndGlyphs" textLength="142" x="190.083" y="508.0059">graphcommandlanguage</text><!--MD5=[78e51e3f01a585ec427433fb7dc601b3]
entity _greenerturtle--><rect fill="#F8F8F8" height="34.4844" rx="3" ry="3" style="stroke: #000000; stroke-width: 0.5;" width="92" x="42.5832" y="580"/><text fill="#000000" font-family="Tahoma, sans-serif" font-size="12" lengthAdjust="spacingAndGlyphs" textLength="72" x="52.5832" y="602.0059">greenerturtle</text><ellipse cx="88.6751" cy="25.242" fill="#F8F8F8" rx="22.0919" ry="13.242" style="stroke: #383838; stroke-width: 0.5;"/><text fill="#000000" font-family="Tahoma, sans-serif" font-size="12" font-weight="bold" lengthAdjust="spacingAndGlyphs" textLength="27" x="75.1751" y="28.9842">gvcl</text><ellipse cx="88.3467" cy="68.242" fill="#F8F8F8" rx="19.2635" ry="13.242" style="stroke: #383838; stroke-width: 0.5;"/><text fill="#000000" font-family="Tahoma, sans-serif" font-size="12" font-weight="bold" lengthAdjust="spacingAndGlyphs" textLength="23" x="76.8467" y="71.9842">hsv</text><!--MD5=[c17c2e27dcac3cee95af133266e055c4]
entity _huviz--><rect fill="#F8F8F8" height="34.4844" rx="3" ry="3" style="stroke: #000000; stroke-width: 0.5;" width="55" x="61.0832" y="298"/><text fill="#000000" font-family="Tahoma, sans-serif" font-size="12" font-weight="bold" lengthAdjust="spacingAndGlyphs" textLength="35" x="71.0832" y="320.0059">huviz</text><!--MD5=[0ec5cfff40ac86c6e424ea8c83617c61]
entity _indexeddbservice--><rect fill="#F8F8F8" height="34.4844" rx="3" ry="3" style="stroke: #000000; stroke-width: 0.5;" width="119" x="384.583" y="571"/><text fill="#000000" font-family="Tahoma, sans-serif" font-size="12" lengthAdjust="spacingAndGlyphs" textLength="99" x="394.583" y="593.0059">indexeddbservice</text><!--MD5=[af43522a83a3894ea69d66d18845e476]
entity _indexeddbstoragecontroller--><rect fill="#F8F8F8" height="34.4844" rx="3" ry="3" style="stroke: #000000; stroke-width: 0.5;" width="177" x="172.583" y="628"/><text fill="#000000" font-family="Tahoma, sans-serif" font-size="12" lengthAdjust="spacingAndGlyphs" textLength="157" x="182.583" y="650.0059">indexeddbstoragecontroller</text><ellipse cx="88.5096" cy="550.242" fill="#F8F8F8" rx="45.4264" ry="13.242" style="stroke: #383838; stroke-width: 0.5;"/><text fill="#000000" font-family="Tahoma, sans-serif" font-size="12" lengthAdjust="spacingAndGlyphs" textLength="60" x="58.5096" y="553.9842">multistring</text><!--MD5=[a1220b791bfdf8d2fcff6a69a8402a50]
entity _node--><rect fill="#F8F8F8" height="34.4844" rx="3" ry="3" style="stroke: #000000; stroke-width: 0.5;" width="49" x="236.583" y="247"/><text fill="#000000" font-family="Tahoma, sans-serif" font-size="12" lengthAdjust="spacingAndGlyphs" textLength="29" x="246.583" y="269.0059">node</text><ellipse cx="88.5451" cy="507.242" fill="#F8F8F8" rx="48.9619" ry="13.242" style="stroke: #383838; stroke-width: 0.5;"/><text fill="#000000" font-family="Tahoma, sans-serif" font-size="12" lengthAdjust="spacingAndGlyphs" textLength="65" x="56.0451" y="510.9842">oncerunner</text><!--MD5=[1acd4c73490d50fea545701d86a6f02a]
entity _ontoviz--><rect fill="#F8F8F8" height="34.4844" rx="3" ry="3" style="stroke: #000000; stroke-width: 0.5;" width="70" x="226.083" y="8"/><text fill="#000000" font-family="Tahoma, sans-serif" font-size="12" font-weight="bold" lengthAdjust="spacingAndGlyphs" textLength="50" x="236.083" y="30.0059">ontoviz</text><!--MD5=[8bd7f295a0ce07e47a21f34eba561762]
entity _predicate--><rect fill="#F8F8F8" height="34.4844" rx="3" ry="3" style="stroke: #000000; stroke-width: 0.5;" width="73" x="224.583" y="349"/><text fill="#000000" font-family="Tahoma, sans-serif" font-size="12" lengthAdjust="spacingAndGlyphs" textLength="53" x="234.583" y="371.0059">predicate</text><ellipse cx="88.338" cy="464.242" fill="#F8F8F8" rx="48.2548" ry="13.242" style="stroke: #383838; stroke-width: 0.5;"/><text fill="#000000" font-family="Tahoma, sans-serif" font-size="12" lengthAdjust="spacingAndGlyphs" textLength="64" x="56.338" y="467.9842">quadParser</text><!--MD5=[bdeb9b27363b218ec700e114faa1f575]
entity _querymanager--><rect fill="#F8F8F8" height="34.4844" rx="3" ry="3" style="stroke: #000000; stroke-width: 0.5;" width="101" x="210.583" y="577"/><text fill="#000000" font-family="Tahoma, sans-serif" font-size="12" lengthAdjust="spacingAndGlyphs" textLength="81" x="220.583" y="599.0059">querymanager</text><!--MD5=[df354d2524069015f910758bbbe80e8a]
entity _settings--><rect fill="#F8F8F8" height="34.4844" rx="3" ry="3" style="stroke: #000000; stroke-width: 0.5;" width="66" x="55.5832" y="400"/><text fill="#000000" font-family="Tahoma, sans-serif" font-size="12" lengthAdjust="spacingAndGlyphs" textLength="46" x="65.5832" y="422.0059">settings</text><!--MD5=[698519afe8ef840e9874c8356e39c7e3]
entity _settingswidgets--><rect fill="#F8F8F8" height="34.4844" rx="3" ry="3" style="stroke: #000000; stroke-width: 0.5;" width="110" x="206.083" y="298"/><text fill="#000000" font-family="Tahoma, sans-serif" font-size="12" lengthAdjust="spacingAndGlyphs" textLength="90" x="216.083" y="320.0059">settingswidgets</text><!--MD5=[b2685753d20aee33b1198430d4ca6153]
entity _socrata--><rect fill="#F8F8F8" height="34.4844" rx="3" ry="3" style="stroke: #000000; stroke-width: 0.5;" width="71" x="225.583" y="59"/><text fill="#000000" font-family="Tahoma, sans-serif" font-size="12" font-weight="bold" lengthAdjust="spacingAndGlyphs" textLength="51" x="235.583" y="81.0059">socrata</text><ellipse cx="443.9739" cy="442.242" fill="#F8F8F8" rx="41.8909" ry="13.242" style="stroke: #383838; stroke-width: 0.5;"/><text fill="#000000" font-family="Tahoma, sans-serif" font-size="12" lengthAdjust="spacingAndGlyphs" textLength="55" x="416.4739" y="445.9842">sortedset</text><!--MD5=[319f27bc800d444a751a01b2683199e4]
entity _taxon--><rect fill="#F8F8F8" height="34.4844" rx="3" ry="3" style="stroke: #000000; stroke-width: 0.5;" width="52" x="235.083" y="435"/><text fill="#000000" font-family="Tahoma, sans-serif" font-size="12" lengthAdjust="spacingAndGlyphs" textLength="32" x="245.083" y="457.0059">taxon</text><!--MD5=[90aed9b54c4f2d78720c94aa7e57e608]
entity _textcursor--><rect fill="#F8F8F8" height="34.4844" rx="3" ry="3" style="stroke: #000000; stroke-width: 0.5;" width="78" x="49.5832" y="349"/><text fill="#000000" font-family="Tahoma, sans-serif" font-size="12" lengthAdjust="spacingAndGlyphs" textLength="58" x="59.5832" y="371.0059">textcursor</text><!--MD5=[ceba8e24a112afc51c5fe49531598f36]
entity _treectrl--><rect fill="#F8F8F8" height="34.4844" rx="3" ry="3" style="stroke: #000000; stroke-width: 0.5;" width="60" x="414.083" y="368"/><text fill="#000000" font-family="Tahoma, sans-serif" font-size="12" lengthAdjust="spacingAndGlyphs" textLength="40" x="424.083" y="390.0059">treectrl</text><ellipse cx="444.2815" cy="243.242" fill="#F8F8F8" rx="32.6985" ry="13.242" style="stroke: #383838; stroke-width: 0.5;"/><text fill="#000000" font-family="Tahoma, sans-serif" font-size="12" lengthAdjust="spacingAndGlyphs" textLength="42" x="423.2815" y="246.9842">uniquer</text><!--MD5=[edc372a5cb21e65345c5bf7d05238963]
link _datasetdb to _dndloader--><path d="M261.083,144.198 C261.083,148.018 261.083,151.838 261.083,155.658 " fill="none" id="_datasetdb-&gt;_dndloader" style="stroke: #000000; stroke-width: 1.0;"/><polygon fill="#000000" points="261.083,160.867,265.083,151.867,261.083,155.867,257.083,151.867,261.083,160.867" style="stroke: #000000; stroke-width: 1.0;"/><!--MD5=[bfb75d4d8f0723c1988c6bc57ecf3a1e]
link _datasetdb to uniquer--><path d="M304.286,134.6 C319.244,138.423 335.776,144.001 349.583,152 C383.253,171.505 413.836,205.808 430.315,226.267 " fill="none" id="_datasetdb-&gt;uniquer" style="stroke: #000000; stroke-width: 1.0;"/><polygon fill="#000000" points="433.614,230.412,431.1412,220.8786,430.5012,226.4992,424.8806,225.8592,433.614,230.412" style="stroke: #000000; stroke-width: 1.0;"/><!--MD5=[fdb1266c795476e54b3fbfa48d7c662e]
link _dndloader to uniquer--><path d="M299.634,190.618 C315.133,195.893 333.257,202.147 349.583,208 C371.655,215.913 396.51,225.237 415.042,232.271 " fill="none" id="_dndloader-&gt;uniquer" style="stroke: #000000; stroke-width: 0.5;"/><polygon fill="#000000" points="420.094,234.191,413.1012,227.2556,415.4199,232.4154,410.2601,234.7341,420.094,234.191" style="stroke: #000000; stroke-width: 0.5;"/><!--MD5=[a30baaf1f5525220c49869b40c8172a6]
link _editui to _fsm--><path d="M114.375,699 C146.505,699 202.239,699 234.669,699 " fill="none" id="_editui-&gt;_fsm" style="stroke: #000000; stroke-width: 0.5;"/><polygon fill="#000000" points="240.055,699,231.055,695,235.055,699,231.055,703,240.055,699" style="stroke: #000000; stroke-width: 0.5;"/><!--MD5=[7a5d0419302720763152f26417e90ab3]
link _editui to _indexeddbstoragecontroller--><path d="M114.375,691.1479 C137.075,683.9585 171.558,673.0372 201.281,663.624 " fill="none" id="_editui-&gt;_indexeddbstoragecontroller" style="stroke: #000000; stroke-width: 0.5;"/><polygon fill="#000000" points="206.388,662.006,196.6003,660.9104,201.6214,663.5158,199.016,668.537,206.388,662.006" style="stroke: #000000; stroke-width: 0.5;"/><!--MD5=[87b71bbd7c7e51674aee4d8d213c4dfd]
link _gclui to _graphcommandlanguage--><path d="M112.12,639.21 C120.719,635.138 130.215,629.701 137.583,623 C158.743,603.759 153.092,589.93 172.583,569 C188.961,551.413 210.476,535.115 228.072,523.115 " fill="none" id="_gclui-&gt;_graphcommandlanguage" style="stroke: #000000; stroke-width: 0.5;"/><polygon fill="#000000" points="232.456,520.159,222.758,521.8762,228.311,522.9552,227.2319,528.5082,232.456,520.159" style="stroke: #000000; stroke-width: 0.5;"/><!--MD5=[94edbdfe38f378104ff793902e80a452]
link _gclui to _querymanager--><path d="M112.409,640.05 C129.041,634.318 152.144,626.482 172.583,620 C183.194,616.635 194.57,613.159 205.491,609.887 " fill="none" id="_gclui-&gt;_querymanager" style="stroke: #000000; stroke-width: 0.5;"/><polygon fill="#000000" points="210.473,608.398,200.7045,607.1424,205.6823,609.8296,202.9951,614.8075,210.473,608.398" style="stroke: #000000; stroke-width: 0.5;"/><!--MD5=[180e44a801c72b313cfac1c6dee1f477]
link _graphcommandlanguage to angliciser--><path d="M342.263,499.013 C361.116,498.076 380.574,497.108 397.307,496.276 " fill="none" id="_graphcommandlanguage-&gt;angliciser" style="stroke: #000000; stroke-width: 0.5;"/><polygon fill="#000000" points="402.409,496.022,393.2213,492.4743,397.4152,496.2705,393.619,500.4644,402.409,496.022" style="stroke: #000000; stroke-width: 0.5;"/><!--MD5=[04abc1225e7ffdb108f39a6b72fc8d2f]
link _graphcommandlanguage to sortedset--><path d="M321.563,485.931 C330.972,483.057 340.568,480.023 349.583,477 C370.763,469.899 394.316,461.076 412.484,454.066 " fill="none" id="_graphcommandlanguage-&gt;sortedset" style="stroke: #000000; stroke-width: 0.5;"/><polygon fill="#000000" points="417.459,452.14,407.6218,451.66,412.7964,453.9456,410.5108,459.1202,417.459,452.14" style="stroke: #000000; stroke-width: 0.5;"/><!--MD5=[0a19c39635a92762a7be9d9130041a5d]
link _huviz to _edge--><path d="M60.822,321.53 C46.6114,326.432 30.558,334.741 22.0832,348.5 C0.6389,383.314 0.6389,681.6856 22.0832,716.5 C30.2952,729.832 45.6234,738.0476 59.4954,743.0038 " fill="none" id="_huviz-&gt;_edge" style="stroke: #000000; stroke-width: 1.0;"/><polygon fill="#000000" points="64.5243,744.6857,57.2578,738.0375,59.7825,743.0997,54.7203,745.6244,64.5243,744.6857" style="stroke: #000000; stroke-width: 1.0;"/><!--MD5=[7c5eb97fb3d0511e7c515fe8c5e2c9a9]
link _huviz to _editui--><path d="M60.822,321.53 C46.6114,326.432 30.558,334.741 22.0832,348.5 C3.6108,378.49 3.6108,635.51 22.0832,665.5 C29.9933,678.3419 44.5059,686.4366 57.9599,691.4438 " fill="none" id="_huviz-&gt;_editui" style="stroke: #000000; stroke-width: 1.0;"/><polygon fill="#000000" points="62.8545,693.152,55.6752,686.4098,58.1338,691.5044,53.0391,693.9629,62.8545,693.152" style="stroke: #000000; stroke-width: 1.0;"/><!--MD5=[78c92fafc734451d0c4222f6f659630a]
link _huviz to _gclui--><path d="M60.822,321.53 C46.6114,326.432 30.558,334.741 22.0832,348.5 C6.5827,373.665 6.5827,589.335 22.0832,614.5 C30.3556,627.93 45.8492,636.168 59.8011,641.113 " fill="none" id="_huviz-&gt;_gclui" style="stroke: #000000; stroke-width: 1.0;"/><polygon fill="#000000" points="64.8553,642.789,57.5721,636.1591,60.1095,641.215,55.0537,643.7524,64.8553,642.789" style="stroke: #000000; stroke-width: 1.0;"/><!--MD5=[45b54291284970458bed53f428aad9bc]
link _huviz to _graphcommandlanguage--><path d="M116.329,324.049 C124.167,327.87 132.096,333.079 137.583,340 C176.627,389.244 129.014,431.711 172.583,477 C174.643,479.141 176.871,481.109 179.231,482.916 " fill="none" id="_huviz-&gt;_graphcommandlanguage" style="stroke: #000000; stroke-width: 1.0;"/><polygon fill="#000000" points="183.613,485.998,178.5533,477.5482,179.5235,483.1212,173.9505,484.0914,183.613,485.998" style="stroke: #000000; stroke-width: 1.0;"/><!--MD5=[611afdb953935b80d86a045e5a20c8c3]
link _huviz to _greenerturtle--><path d="M60.822,321.53 C46.6114,326.432 30.558,334.741 22.0832,348.5 C9.5546,368.84 9.5546,543.16 22.0832,563.5 C26.0494,569.939 31.6755,575.185 37.9958,579.446 " fill="none" id="_huviz-&gt;_greenerturtle" style="stroke: #000000; stroke-width: 1.0;"/><polygon fill="#000000" points="42.4704,582.241,36.9574,574.0797,38.2301,579.5915,32.7183,580.8642,42.4704,582.241" style="stroke: #000000; stroke-width: 1.0;"/><!--MD5=[b5066780bb50e7eb53d192028117f15c]
link _huviz to _indexeddbservice--><path d="M116.11,323.592 C124.128,327.42 132.219,332.748 137.583,340 C188.386,408.681 113.14,467.645 172.583,529 C176.229,532.763 300.476,558.787 379.293,574.991 " fill="none" id="_huviz-&gt;_indexeddbservice" style="stroke: #000000; stroke-width: 1.0;"/><polygon fill="#000000" points="384.417,576.043,376.4073,570.312,379.5195,575.0358,374.7957,578.148,384.417,576.043" style="stroke: #000000; stroke-width: 1.0;"/><!--MD5=[b8419d487ca96138f60f566e4a1586cd]
link _huviz to _indexeddbstoragecontroller--><path d="M116.111,323.292 C124.23,327.115 132.381,332.517 137.583,340 C209.17,442.975 90.9847,524.763 172.583,620 C174.029,621.687 175.58,623.264 177.22,624.739 " fill="none" id="_huviz-&gt;_indexeddbstoragecontroller" style="stroke: #000000; stroke-width: 1.0;"/><polygon fill="#000000" points="181.201,627.995,176.7675,619.2005,177.3309,624.8292,171.7022,625.3926,181.201,627.995" style="stroke: #000000; stroke-width: 1.0;"/><!--MD5=[cf2b9d99b2fde8f9ac8fe3818c591fa6]
link _huviz to multistring--><path d="M60.822,321.53 C46.6114,326.432 30.558,334.741 22.0832,348.5 C2.0375,381.044 1.8021,488.102 22.0832,520.5 C27.7849,529.608 37.0416,535.92 46.8606,540.289 " fill="none" id="_huviz-&gt;multistring" style="stroke: #000000; stroke-width: 1.0;"/><polygon fill="#000000" points="51.7129,542.282,44.9074,535.1626,47.0878,540.3824,41.868,542.5628,51.7129,542.282" style="stroke: #000000; stroke-width: 1.0;"/><!--MD5=[576ad3665183860786542bc172304814]
link _huviz to _node--><path d="M116.444,306.397 C132.668,301.248 153.778,294.631 172.583,289 C192.06,283.168 214.066,276.882 231.137,272.072 " fill="none" id="_huviz-&gt;_node" style="stroke: #000000; stroke-width: 1.0;"/><polygon fill="#000000" points="236.268,270.629,226.521,269.2164,231.4549,271.9833,228.6879,276.9173,236.268,270.629" style="stroke: #000000; stroke-width: 1.0;"/><!--MD5=[c316f54a23eccd85694cacab9137e8a6]
link _huviz to oncerunner--><path d="M60.822,321.53 C46.6114,326.432 30.558,334.741 22.0832,348.5 C7.1655,372.719 6.9903,452.39 22.0832,476.5 C27.7013,485.474 36.7116,491.838 46.3093,496.34 " fill="none" id="_huviz-&gt;oncerunner" style="stroke: #000000; stroke-width: 1.0;"/><polygon fill="#000000" points="51.0558,498.404,44.3968,491.1475,46.4704,496.4106,41.2073,498.4841,51.0558,498.404" style="stroke: #000000; stroke-width: 1.0;"/><!--MD5=[53eaa73e9beaed2f6e00aaef30b9a17d]
link _huviz to _predicate--><path d="M116.115,323.019 C132.405,327.935 153.696,334.349 172.583,340 C187.861,344.571 204.647,349.565 219.395,353.944 " fill="none" id="_huviz-&gt;_predicate" style="stroke: #000000; stroke-width: 1.0;"/><polygon fill="#000000" points="224.314,355.404,216.8245,349.0081,219.5208,353.981,214.5478,356.6772,224.314,355.404" style="stroke: #000000; stroke-width: 1.0;"/><!--MD5=[bc42dcbe4b21fcf3c326d926fe3eabe6]
link _huviz to quadParser--><path d="M60.822,321.53 C46.6114,326.432 30.558,334.741 22.0832,348.5 C2.2706,380.665 2.0379,401.479 22.0832,433.5 C27.7592,442.567 36.8978,448.969 46.6064,453.479 " fill="none" id="_huviz-&gt;quadParser" style="stroke: #000000; stroke-width: 1.0;"/><polygon fill="#000000" points="51.4055,455.544,44.7196,448.3122,46.8127,453.5676,41.5573,455.6607,51.4055,455.544" style="stroke: #000000; stroke-width: 1.0;"/><!--MD5=[ef4f53580943ebda46b8452c1e3fea4a]
link _huviz to _settings--><path d="M60.822,321.53 C46.6114,326.432 30.558,334.741 22.0832,348.5 C14.1582,361.366 14.235,369.587 22.0832,382.5 C28.5259,393.101 39.3982,400.591 50.5053,405.817 " fill="none" id="_huviz-&gt;_settings" style="stroke: #000000; stroke-width: 1.0;"/><polygon fill="#000000" points="55.2677,407.921,48.6512,400.6257,50.694,405.9008,45.4189,407.9437,55.2677,407.921" style="stroke: #000000; stroke-width: 1.0;"/><!--MD5=[0c21caadf211326c87ff1b7e37a323ba]
link _huviz to _settingswidgets--><path d="M116.224,315 C138.707,315 171.733,315 200.472,315 " fill="none" id="_huviz-&gt;_settingswidgets" style="stroke: #000000; stroke-width: 1.0;"/><polygon fill="#000000" points="205.784,315,196.784,311,200.784,315,196.784,319,205.784,315" style="stroke: #000000; stroke-width: 1.0;"/><!--MD5=[4082761b21fcdf8c267ea3a997d893eb]
link _huviz to sortedset--><path d="M116.469,326.087 C123.787,329.851 131.393,334.518 137.583,340 C158.165,358.225 149.556,375.984 172.583,391 C177.396,394.139 327.739,421.362 402.163,434.698 " fill="none" id="_huviz-&gt;sortedset" style="stroke: #000000; stroke-width: 1.0;"/><polygon fill="#000000" points="407.388,435.634,399.2341,430.11,402.4663,434.7525,397.8238,437.9847,407.388,435.634" style="stroke: #000000; stroke-width: 1.0;"/><!--MD5=[19bae500a9ad4dd5ac0c01e4595e6366]
link _huviz to _taxon--><path d="M116.21,324.826 C123.859,328.645 131.71,333.658 137.583,340 C164.507,369.074 143.558,395.024 172.583,422 C188.281,436.59 211.391,444.121 229.919,447.988 " fill="none" id="_huviz-&gt;_taxon" style="stroke: #000000; stroke-width: 1.0;"/><polygon fill="#000000" points="235.013,448.984,226.9484,443.3305,230.106,448.024,225.4125,451.1816,235.013,448.984" style="stroke: #000000; stroke-width: 1.0;"/><!--MD5=[f06c90f6ce968f3d0df0990a2e51a62b]
link _huviz to _textcursor--><path d="M88.5832,332.198 C88.5832,336.018 88.5832,339.838 88.5832,343.658 " fill="none" id="_huviz-&gt;_textcursor" style="stroke: #000000; stroke-width: 1.0;"/><polygon fill="#000000" points="88.5832,348.867,92.5832,339.867,88.5832,343.867,84.5832,339.867,88.5832,348.867" style="stroke: #000000; stroke-width: 1.0;"/><!--MD5=[3a6f22ad93df00ce9fd9dc9592f22562]
link _huviz to uniquer--><path d="M101.6238,297.899 C116.016,279.105 142.027,249.991 172.583,238 C253.745,206.15 359.426,223.118 411.397,234.853 " fill="none" id="_huviz-&gt;uniquer" style="stroke: #000000; stroke-width: 1.0;"/><polygon fill="#000000" points="416.558,236.042,408.6844,230.1254,411.6854,234.9206,406.8902,237.9216,416.558,236.042" style="stroke: #000000; stroke-width: 1.0;"/><!--MD5=[c4773edaa6d8e63a11de9e435cd61aba]
link _indexeddbstoragecontroller to _indexeddbservice--><path d="M323.397,627.915 C332.206,625.335 341.142,622.649 349.583,620 C362.705,615.883 376.776,611.207 389.916,606.726 " fill="none" id="_indexeddbstoragecontroller-&gt;_indexeddbservice" style="stroke: #000000; stroke-width: 0.5;"/><polygon fill="#000000" points="394.711,605.085,384.9007,604.2143,389.9803,606.7038,387.4908,611.7834,394.711,605.085" style="stroke: #000000; stroke-width: 0.5;"/><!--MD5=[a2ca38879bb953ea5390095996b88ddb]
link _node to uniquer--><path d="M285.746,261.255 C316.799,257.652 371.573,251.297 407.601,247.117 " fill="none" id="_node-&gt;uniquer" style="stroke: #000000; stroke-width: 0.5;"/><polygon fill="#000000" points="412.775,246.516,403.3743,243.5788,407.8083,247.0917,404.2954,251.5256,412.775,246.516" style="stroke: #000000; stroke-width: 0.5;"/><!--MD5=[a2f550a9ef4c63f37cf9f4261de5c587]
link _predicate to sortedset--><path d="M297.802,377.108 C313.813,382.377 332.825,389.038 349.583,396 C373.147,405.79 399.128,418.756 417.71,428.426 " fill="none" id="_predicate-&gt;sortedset" style="stroke: #000000; stroke-width: 0.5;"/><polygon fill="#000000" points="422.269,430.81,416.147,423.095,417.8382,428.4932,412.44,430.1844,422.269,430.81" style="stroke: #000000; stroke-width: 0.5;"/><!--MD5=[248000c19addd84d3bd8fd9a624f4569]
link _predicate to _treectrl--><path d="M297.843,369.754 C329.982,373.128 376.875,378.05 408.612,381.381 " fill="none" id="_predicate-&gt;_treectrl" style="stroke: #000000; stroke-width: 0.5;"/><polygon fill="#000000" points="413.962,381.943,405.4297,377.0236,408.9894,381.42,404.593,384.9797,413.962,381.943" style="stroke: #000000; stroke-width: 0.5;"/><!--MD5=[28310eee2fca0e95a76e2266f3caba5f]
link _predicate to uniquer--><path d="M297.875,359.746 C314.438,355.784 333.876,349.551 349.583,340 C384.433,318.81 415.188,281.482 431.257,259.833 " fill="none" id="_predicate-&gt;uniquer" style="stroke: #000000; stroke-width: 0.5;"/><polygon fill="#000000" points="434.272,255.721,425.7255,260.6156,431.3163,259.7538,432.178,265.3447,434.272,255.721" style="stroke: #000000; stroke-width: 0.5;"/><!--MD5=[98be6845be905518450252ae93d07b4f]
link _settings to _settingswidgets--><path d="M121.723,402.357 C127.327,399.054 132.864,395.248 137.583,391 C158.016,372.608 150.27,356.059 172.583,340 C181.069,333.893 191.013,329.273 201.096,325.779 " fill="none" id="_settings-&gt;_settingswidgets" style="stroke: #000000; stroke-width: 0.5;"/><polygon fill="#000000" points="206.052,324.153,196.2533,323.16,201.3015,325.7127,198.7488,330.7609,206.052,324.153" style="stroke: #000000; stroke-width: 0.5;"/><!--MD5=[151ebb7b97156e44f60a81716f179c47]
link _settingswidgets to uniquer--><path d="M316.245,300.457 C327.388,297.034 338.958,293.158 349.583,289 C374.121,279.397 401.005,265.83 419.622,255.919 " fill="none" id="_settingswidgets-&gt;uniquer" style="stroke: #000000; stroke-width: 0.5;"/><polygon fill="#000000" points="424.17,253.483,414.3479,254.2079,419.7628,255.8445,418.1262,261.2594,424.17,253.483" style="stroke: #000000; stroke-width: 0.5;"/><!--MD5=[fc90fe1503a3a89654081b9607cd7cce]
link _taxon to angliciser--><path d="M287.251,457.84 C317.71,464.908 369.313,476.882 404.735,485.101 " fill="none" id="_taxon-&gt;angliciser" style="stroke: #000000; stroke-width: 0.5;"/><polygon fill="#000000" points="409.839,486.286,401.976,480.3553,404.9684,485.1559,400.1678,488.1482,409.839,486.286" style="stroke: #000000; stroke-width: 0.5;"/><!--MD5=[0aee645be1bce300269f0d1fecc89b9b]
link _taxon to sortedset--><path d="M287.251,450.61 C315.674,449.039 362.506,446.452 397.423,444.523 " fill="none" id="_taxon-&gt;sortedset" style="stroke: #000000; stroke-width: 0.5;"/><polygon fill="#000000" points="402.484,444.243,393.2761,440.7481,397.4917,444.5202,393.7196,448.7358,402.484,444.243" style="stroke: #000000; stroke-width: 0.5;"/><!--MD5=[85533fe774a186ff7ac61a8548acf24f]
link _taxon to _treectrl--><path d="M287.251,442.684 C318.914,430.963 373.424,410.785 408.855,397.67 " fill="none" id="_taxon-&gt;_treectrl" style="stroke: #000000; stroke-width: 0.5;"/><polygon fill="#000000" points="413.94,395.788,404.1111,395.1614,409.251,397.5239,406.8885,402.6638,413.94,395.788" style="stroke: #000000; stroke-width: 0.5;"/><!--MD5=[d6a3172dff1eddc9799eb40c22a3dc34]
link <b>gvcl</b> to <b>hsv</b>--><!--MD5=[d5fcc95865112b69530db3bc24e523b9]
link <b>gvcl</b> to _ontoviz--><!--MD5=[f5b7b88db9ca67dfdc2269afca6c2ec9]
link _ontoviz to _socrata--><script type="text/plantuml"><![CDATA[MD5=[b80c6bb1234c22f6bfb7fe885944c9fc]
@startuml

scale max 1920 width
left to right direction

skinparam nodesep 17
skinparam ranksep 35
skinparam monochrome true
skinparam shadowing false
skinparam defaultFontName Tahoma
skinparam defaultFontSize 12
skinparam roundCorner 6
skinparam dpi 150
skinparam arrowColor black
skinparam arrowThickness 0.5
skinparam packageTitleAlignment left

skinparam usecase {
  borderThickness 0.5
}

skinparam rectangle {
  borderThickness 0.5
}

skinparam component {
  borderThickness 1
}


(angliciser)
rectangle "<b>datasetdb</b>" as _datasetdb
rectangle "dndloader" as _dndloader
rectangle "edge" as _edge
rectangle "editui" as _editui
rectangle "fsm" as _fsm
rectangle "gclui" as _gclui
rectangle "graphcommandlanguage" as _graphcommandlanguage
rectangle "greenerturtle" as _greenerturtle
(<b>gvcl</b>)
(<b>hsv</b>)
rectangle "<b>huviz</b>" as _huviz
rectangle "indexeddbservice" as _indexeddbservice
rectangle "indexeddbstoragecontroller" as _indexeddbstoragecontroller
(multistring)
rectangle "node" as _node
(oncerunner)
rectangle "<b>ontoviz</b>" as _ontoviz
rectangle "predicate" as _predicate
(quadParser)
rectangle "querymanager" as _querymanager
rectangle "settings" as _settings
rectangle "settingswidgets" as _settingswidgets
rectangle "<b>socrata</b>" as _socrata
(sortedset)
rectangle "taxon" as _taxon
rectangle "textcursor" as _textcursor
rectangle "treectrl" as _treectrl
(uniquer)


_datasetdb -[thickness=1]> _dndloader
_datasetdb -[thickness=1]> (uniquer)
_dndloader --> (uniquer)
_editui --> _fsm
_editui --> _indexeddbstoragecontroller
_gclui --> _graphcommandlanguage
_gclui --> _querymanager
_graphcommandlanguage --> (angliciser)
_graphcommandlanguage --> (sortedset)
_huviz -[thickness=1]> _edge
_huviz -[thickness=1]> _editui
_huviz -[thickness=1]> _gclui
_huviz -[thickness=1]> _graphcommandlanguage
_huviz -[thickness=1]> _greenerturtle
_huviz -[thickness=1]> _indexeddbservice
_huviz -[thickness=1]> _indexeddbstoragecontroller
_huviz -[thickness=1]> (multistring)
_huviz -[thickness=1]> _node
_huviz -[thickness=1]> (oncerunner)
_huviz -[thickness=1]> _predicate
_huviz -[thickness=1]> (quadParser)
_huviz -[thickness=1]> _settings
_huviz -[thickness=1]> _settingswidgets
_huviz -[thickness=1]> (sortedset)
_huviz -[thickness=1]> _taxon
_huviz -[thickness=1]> _textcursor
_huviz -[thickness=1]> (uniquer)
_indexeddbstoragecontroller --> _indexeddbservice
_node --> (uniquer)
_predicate --> (sortedset)
_predicate --> _treectrl
_predicate --> (uniquer)
_settings --> _settingswidgets
_settingswidgets --> (uniquer)
_taxon --> (angliciser)
_taxon --> (sortedset)
_taxon --> _treectrl

@enduml


' View and edit on https://arkit.pro
]]></script></g></svg>