<?xml version="1.0" encoding="UTF-8" standalone="no"?><svg xmlns="http://www.w3.org/2000/svg" xmlns:xlink="http://www.w3.org/1999/xlink" contentScriptType="application/ecmascript" contentStyleType="text/css" height="762px" preserveAspectRatio="none" style="width:514px;height:762px;" version="1.1" viewBox="0 0 514 762" width="514px" zoomAndPan="magnify"><defs/><g><ellipse cx="443.9739" cy="432.242" fill="#F8F8F8" rx="41.8909" ry="13.242" style="stroke: #383838; stroke-width: 0.5;"/><text fill="#000000" font-family="Tahoma, sans-serif" font-size="12" lengthAdjust="spacingAndGlyphs" textLength="55" x="416.4739" y="435.9842">angliciser</text><!--MD5=[065b424c64954ecc3679e701d25a941e]
entity _datasetdb--><rect fill="#F8F8F8" height="34.4844" rx="3" ry="3" style="stroke: #000000; stroke-width: 0.5;" width="86" x="45.5832" y="141"/><text fill="#000000" font-family="Tahoma, sans-serif" font-size="12" font-weight="bold" lengthAdjust="spacingAndGlyphs" textLength="66" x="55.5832" y="163.0059">datasetdb</text><!--MD5=[68f424e333f01539f4809daa1e86d0f0]
entity _dndloader--><rect fill="#F8F8F8" height="34.4844" rx="3" ry="3" style="stroke: #000000; stroke-width: 0.5;" width="77" x="50.0832" y="282"/><text fill="#000000" font-family="Tahoma, sans-serif" font-size="12" lengthAdjust="spacingAndGlyphs" textLength="57" x="60.0832" y="304.0059">dndloader</text><!--MD5=[88c490e9164e48e33bb1acceb2aacd6d]
entity _edge--><rect fill="#F8F8F8" height="34.4844" rx="3" ry="3" style="stroke: #000000; stroke-width: 0.5;" width="48" x="64.5832" y="615"/><text fill="#000000" font-family="Tahoma, sans-serif" font-size="12" lengthAdjust="spacingAndGlyphs" textLength="28" x="74.5832" y="637.0059">edge</text><!--MD5=[2e8c035363463292a2a2d5ce12b2c02c]
entity _editui--><rect fill="#F8F8F8" height="34.4844" rx="3" ry="3" style="stroke: #000000; stroke-width: 0.5;" width="51" x="63.0832" y="717"/><text fill="#000000" font-family="Tahoma, sans-serif" font-size="12" lengthAdjust="spacingAndGlyphs" textLength="31" x="73.0832" y="739.0059">editui</text><!--MD5=[85e828cec410b55b18bc9d950a8a5ef8]
entity _fsm--><rect fill="#F8F8F8" height="34.4844" rx="3" ry="3" style="stroke: #000000; stroke-width: 0.5;" width="42" x="240.083" y="717"/><text fill="#000000" font-family="Tahoma, sans-serif" font-size="12" lengthAdjust="spacingAndGlyphs" textLength="22" x="250.083" y="739.0059">fsm</text><!--MD5=[4086444eb55f169405db08ef307d9d70]
entity _gclui--><rect fill="#F8F8F8" height="34.4844" rx="3" ry="3" style="stroke: #000000; stroke-width: 0.5;" width="47" x="65.0832" y="666"/><text fill="#000000" font-family="Tahoma, sans-serif" font-size="12" lengthAdjust="spacingAndGlyphs" textLength="27" x="75.0832" y="688.0059">gclui</text><!--MD5=[995c6bd86ece32814d0ce502d3a43650]
entity _graphcommandlanguage--><rect fill="#F8F8F8" height="34.4844" rx="3" ry="3" style="stroke: #000000; stroke-width: 0.5;" width="162" x="180.083" y="419"/><text fill="#000000" font-family="Tahoma, sans-serif" font-size="12" lengthAdjust="spacingAndGlyphs" textLength="142" x="190.083" y="441.0059">graphcommandlanguage</text><!--MD5=[78e51e3f01a585ec427433fb7dc601b3]
entity _greenerturtle--><rect fill="#F8F8F8" height="34.4844" rx="3" ry="3" style="stroke: #000000; stroke-width: 0.5;" width="92" x="42.5832" y="513"/><text fill="#000000" font-family="Tahoma, sans-serif" font-size="12" lengthAdjust="spacingAndGlyphs" textLength="72" x="52.5832" y="535.0059">greenerturtle</text><ellipse cx="88.6751" cy="25.242" fill="#F8F8F8" rx="22.0919" ry="13.242" style="stroke: #383838; stroke-width: 0.5;"/><text fill="#000000" font-family="Tahoma, sans-serif" font-size="12" font-weight="bold" lengthAdjust="spacingAndGlyphs" textLength="27" x="75.1751" y="28.9842">gvcl</text><ellipse cx="88.3467" cy="68.242" fill="#F8F8F8" rx="19.2635" ry="13.242" style="stroke: #383838; stroke-width: 0.5;"/><text fill="#000000" font-family="Tahoma, sans-serif" font-size="12" font-weight="bold" lengthAdjust="spacingAndGlyphs" textLength="23" x="76.8467" y="71.9842">hsv</text><!--MD5=[c17c2e27dcac3cee95af133266e055c4]
entity _huviz--><rect fill="#F8F8F8" height="34.4844" rx="3" ry="3" style="stroke: #000000; stroke-width: 0.5;" width="55" x="61.0832" y="231"/><text fill="#000000" font-family="Tahoma, sans-serif" font-size="12" font-weight="bold" lengthAdjust="spacingAndGlyphs" textLength="35" x="71.0832" y="253.0059">huviz</text><!--MD5=[0ec5cfff40ac86c6e424ea8c83617c61]
entity _indexeddbservice--><rect fill="#F8F8F8" height="34.4844" rx="3" ry="3" style="stroke: #000000; stroke-width: 0.5;" width="119" x="384.583" y="486"/><text fill="#000000" font-family="Tahoma, sans-serif" font-size="12" lengthAdjust="spacingAndGlyphs" textLength="99" x="394.583" y="508.0059">indexeddbservice</text><!--MD5=[af43522a83a3894ea69d66d18845e476]
entity _indexeddbstoragecontroller--><rect fill="#F8F8F8" height="34.4844" rx="3" ry="3" style="stroke: #000000; stroke-width: 0.5;" width="177" x="172.583" y="505"/><text fill="#000000" font-family="Tahoma, sans-serif" font-size="12" lengthAdjust="spacingAndGlyphs" textLength="157" x="182.583" y="527.0059">indexeddbstoragecontroller</text><ellipse cx="88.5096" cy="483.242" fill="#F8F8F8" rx="45.4264" ry="13.242" style="stroke: #383838; stroke-width: 0.5;"/><text fill="#000000" font-family="Tahoma, sans-serif" font-size="12" lengthAdjust="spacingAndGlyphs" textLength="60" x="58.5096" y="486.9842">multistring</text><!--MD5=[a1220b791bfdf8d2fcff6a69a8402a50]
entity _node--><rect fill="#F8F8F8" height="34.4844" rx="3" ry="3" style="stroke: #000000; stroke-width: 0.5;" width="49" x="236.583" y="180"/><text fill="#000000" font-family="Tahoma, sans-serif" font-size="12" lengthAdjust="spacingAndGlyphs" textLength="29" x="246.583" y="202.0059">node</text><ellipse cx="88.5451" cy="440.242" fill="#F8F8F8" rx="48.9619" ry="13.242" style="stroke: #383838; stroke-width: 0.5;"/><text fill="#000000" font-family="Tahoma, sans-serif" font-size="12" lengthAdjust="spacingAndGlyphs" textLength="65" x="56.0451" y="443.9842">oncerunner</text><!--MD5=[1acd4c73490d50fea545701d86a6f02a]
entity _ontoviz--><rect fill="#F8F8F8" height="34.4844" rx="3" ry="3" style="stroke: #000000; stroke-width: 0.5;" width="70" x="226.083" y="8"/><text fill="#000000" font-family="Tahoma, sans-serif" font-size="12" font-weight="bold" lengthAdjust="spacingAndGlyphs" textLength="50" x="236.083" y="30.0059">ontoviz</text><!--MD5=[8bd7f295a0ce07e47a21f34eba561762]
entity _predicate--><rect fill="#F8F8F8" height="34.4844" rx="3" ry="3" style="stroke: #000000; stroke-width: 0.5;" width="73" x="224.583" y="282"/><text fill="#000000" font-family="Tahoma, sans-serif" font-size="12" lengthAdjust="spacingAndGlyphs" textLength="53" x="234.583" y="304.0059">predicate</text><ellipse cx="88.338" cy="397.242" fill="#F8F8F8" rx="48.2548" ry="13.242" style="stroke: #383838; stroke-width: 0.5;"/><text fill="#000000" font-family="Tahoma, sans-serif" font-size="12" lengthAdjust="spacingAndGlyphs" textLength="64" x="56.338" y="400.9842">quadParser</text><!--MD5=[bdeb9b27363b218ec700e114faa1f575]
entity _querymanager--><rect fill="#F8F8F8" height="34.4844" rx="3" ry="3" style="stroke: #000000; stroke-width: 0.5;" width="101" x="210.583" y="666"/><text fill="#000000" font-family="Tahoma, sans-serif" font-size="12" lengthAdjust="spacingAndGlyphs" textLength="81" x="220.583" y="688.0059">querymanager</text><!--MD5=[df354d2524069015f910758bbbe80e8a]
entity _settings--><rect fill="#F8F8F8" height="34.4844" rx="3" ry="3" style="stroke: #000000; stroke-width: 0.5;" width="66" x="55.5832" y="333"/><text fill="#000000" font-family="Tahoma, sans-serif" font-size="12" lengthAdjust="spacingAndGlyphs" textLength="46" x="65.5832" y="355.0059">settings</text><!--MD5=[698519afe8ef840e9874c8356e39c7e3]
entity _settingswidgets--><rect fill="#F8F8F8" height="34.4844" rx="3" ry="3" style="stroke: #000000; stroke-width: 0.5;" width="110" x="206.083" y="231"/><text fill="#000000" font-family="Tahoma, sans-serif" font-size="12" lengthAdjust="spacingAndGlyphs" textLength="90" x="216.083" y="253.0059">settingswidgets</text><!--MD5=[b2685753d20aee33b1198430d4ca6153]
entity _socrata--><rect fill="#F8F8F8" height="34.4844" rx="3" ry="3" style="stroke: #000000; stroke-width: 0.5;" width="71" x="225.583" y="59"/><text fill="#000000" font-family="Tahoma, sans-serif" font-size="12" font-weight="bold" lengthAdjust="spacingAndGlyphs" textLength="51" x="235.583" y="81.0059">socrata</text><ellipse cx="443.9739" cy="375.242" fill="#F8F8F8" rx="41.8909" ry="13.242" style="stroke: #383838; stroke-width: 0.5;"/><text fill="#000000" font-family="Tahoma, sans-serif" font-size="12" lengthAdjust="spacingAndGlyphs" textLength="55" x="416.4739" y="378.9842">sortedset</text><!--MD5=[319f27bc800d444a751a01b2683199e4]
entity _taxon--><rect fill="#F8F8F8" height="34.4844" rx="3" ry="3" style="stroke: #000000; stroke-width: 0.5;" width="52" x="235.083" y="368"/><text fill="#000000" font-family="Tahoma, sans-serif" font-size="12" lengthAdjust="spacingAndGlyphs" textLength="32" x="245.083" y="390.0059">taxon</text><!--MD5=[90aed9b54c4f2d78720c94aa7e57e608]
entity _textcursor--><rect fill="#F8F8F8" height="34.4844" rx="3" ry="3" style="stroke: #000000; stroke-width: 0.5;" width="78" x="49.5832" y="564"/><text fill="#000000" font-family="Tahoma, sans-serif" font-size="12" lengthAdjust="spacingAndGlyphs" textLength="58" x="59.5832" y="586.0059">textcursor</text><!--MD5=[ceba8e24a112afc51c5fe49531598f36]
entity _treectrl--><rect fill="#F8F8F8" height="34.4844" rx="3" ry="3" style="stroke: #000000; stroke-width: 0.5;" width="60" x="414.083" y="301"/><text fill="#000000" font-family="Tahoma, sans-serif" font-size="12" lengthAdjust="spacingAndGlyphs" textLength="40" x="424.083" y="323.0059">treectrl</text><ellipse cx="444.2815" cy="197.242" fill="#F8F8F8" rx="32.6985" ry="13.242" style="stroke: #383838; stroke-width: 0.5;"/><text fill="#000000" font-family="Tahoma, sans-serif" font-size="12" lengthAdjust="spacingAndGlyphs" textLength="42" x="423.2815" y="200.9842">uniquer</text><!--MD5=[edc372a5cb21e65345c5bf7d05238963]
link _datasetdb to _dndloader--><path d="M64.5951,175.26 C38.4774,196.26 2.8372,232.833 22.0832,264.5 C27.5401,273.479 36.1747,280.226 45.4382,285.256 " fill="none" id="_datasetdb-&gt;_dndloader" style="stroke: #000000; stroke-width: 1.0;"/><polygon fill="#000000" points="50.0251,287.59,43.8179,279.9434,45.5688,285.3224,40.1898,287.0734,50.0251,287.59" style="stroke: #000000; stroke-width: 1.0;"/><!--MD5=[bfb75d4d8f0723c1988c6bc57ecf3a1e]
link _datasetdb to uniquer--><path d="M131.882,146.803 C184.068,134.893 275.03,120.381 349.583,141 C378.164,148.904 406.792,168.118 424.699,181.832 " fill="none" id="_datasetdb-&gt;uniquer" style="stroke: #000000; stroke-width: 1.0;"/><polygon fill="#000000" points="429.014,185.19,424.3671,176.5063,425.0678,182.1196,419.4545,182.8203,429.014,185.19" style="stroke: #000000; stroke-width: 1.0;"/><!--MD5=[a30baaf1f5525220c49869b40c8172a6]
link _editui to _fsm--><path d="M114.375,734 C146.505,734 202.239,734 234.669,734 " fill="none" id="_editui-&gt;_fsm" style="stroke: #000000; stroke-width: 0.5;"/><polygon fill="#000000" points="240.055,734,231.055,730,235.055,734,231.055,738,240.055,734" style="stroke: #000000; stroke-width: 0.5;"/><!--MD5=[7a5d0419302720763152f26417e90ab3]
link _editui to _indexeddbstoragecontroller--><path d="M114.558,724.0026 C122.473,720.0808 130.895,715.0522 137.583,709 C141.199,705.7283 214.666,592.297 246.058,543.721 " fill="none" id="_editui-&gt;_indexeddbstoragecontroller" style="stroke: #000000; stroke-width: 0.5;"/><polygon fill="#000000" points="248.961,539.229,240.7178,544.6188,246.2481,543.429,247.4378,548.9594,248.961,539.229" style="stroke: #000000; stroke-width: 0.5;"/><!--MD5=[87b71bbd7c7e51674aee4d8d213c4dfd]
link _gclui to _graphcommandlanguage--><path d="M112.495,675.8988 C121.571,671.9886 131.314,666.2172 137.583,658 C182.262,599.435 131.524,557.157 172.583,496 C183.939,479.086 201.815,465.588 218.457,455.711 " fill="none" id="_gclui-&gt;_graphcommandlanguage" style="stroke: #000000; stroke-width: 0.5;"/><polygon fill="#000000" points="223.112,453.021,213.318,454.0594,218.7825,455.5221,217.3198,460.9866,223.112,453.021" style="stroke: #000000; stroke-width: 0.5;"/><!--MD5=[94edbdfe38f378104ff793902e80a452]
link _gclui to _querymanager--><path d="M112.224,683 C135.87,683 173.838,683 205.378,683 " fill="none" id="_gclui-&gt;_querymanager" style="stroke: #000000; stroke-width: 0.5;"/><polygon fill="#000000" points="210.382,683,201.382,679,205.382,683,201.382,687,210.382,683" style="stroke: #000000; stroke-width: 0.5;"/><!--MD5=[180e44a801c72b313cfac1c6dee1f477]
link _graphcommandlanguage to angliciser--><path d="M342.263,434.228 C360.944,433.815 380.22,433.389 396.85,433.022 " fill="none" id="_graphcommandlanguage-&gt;angliciser" style="stroke: #000000; stroke-width: 0.5;"/><polygon fill="#000000" points="401.922,432.91,392.8362,429.109,396.9232,433.02,393.0122,437.107,401.922,432.91" style="stroke: #000000; stroke-width: 0.5;"/><!--MD5=[04abc1225e7ffdb108f39a6b72fc8d2f]
link _graphcommandlanguage to sortedset--><path d="M321.563,418.931 C330.972,416.057 340.568,413.023 349.583,410 C370.763,402.899 394.316,394.076 412.484,387.066 " fill="none" id="_graphcommandlanguage-&gt;sortedset" style="stroke: #000000; stroke-width: 0.5;"/><polygon fill="#000000" points="417.459,385.14,407.6218,384.66,412.7964,386.9456,410.5108,392.1202,417.459,385.14" style="stroke: #000000; stroke-width: 0.5;"/><!--MD5=[7710c5335812acb0ea2698ca9a3eda09]
link _huviz to _dndloader--><path d="M88.5832,265.198 C88.5832,269.018 88.5832,272.838 88.5832,276.658 " fill="none" id="_huviz-&gt;_dndloader" style="stroke: #000000; stroke-width: 1.0;"/><polygon fill="#000000" points="88.5832,281.867,92.5832,272.867,88.5832,276.867,84.5832,272.867,88.5832,281.867" style="stroke: #000000; stroke-width: 1.0;"/><!--MD5=[0a19c39635a92762a7be9d9130041a5d]
link _huviz to _edge--><path d="M60.822,254.53 C46.6114,259.432 30.558,267.741 22.0832,281.5 C3.6108,311.49 3.6108,568.51 22.0832,598.5 C30.2952,611.832 45.6234,620.048 59.4954,625.004 " fill="none" id="_huviz-&gt;_edge" style="stroke: #000000; stroke-width: 1.0;"/><polygon fill="#000000" points="64.5243,626.686,57.258,620.0376,59.7825,625.0999,54.7203,627.6244,64.5243,626.686" style="stroke: #000000; stroke-width: 1.0;"/><!--MD5=[7c5eb97fb3d0511e7c515fe8c5e2c9a9]
link _huviz to _editui--><path d="M60.822,254.53 C46.6114,259.432 30.558,267.741 22.0832,281.5 C9.8751,301.32 9.8751,680.6804 22.0832,700.5 C29.9933,713.3419 44.5059,721.4366 57.9599,726.4438 " fill="none" id="_huviz-&gt;_editui" style="stroke: #000000; stroke-width: 1.0;"/><polygon fill="#000000" points="62.8545,728.152,55.6752,721.4098,58.1338,726.5044,53.0391,728.9629,62.8545,728.152" style="stroke: #000000; stroke-width: 1.0;"/><!--MD5=[78c92fafc734451d0c4222f6f659630a]
link _huviz to _gclui--><path d="M60.822,254.53 C46.6114,259.432 30.558,267.741 22.0832,281.5 C0.6389,316.314 0.6389,614.686 22.0832,649.5 C30.3556,662.9301 45.8492,671.1681 59.8011,676.1126 " fill="none" id="_huviz-&gt;_gclui" style="stroke: #000000; stroke-width: 1.0;"/><polygon fill="#000000" points="64.8553,677.7887,57.572,671.1589,60.1095,676.2147,55.0537,678.7522,64.8553,677.7887" style="stroke: #000000; stroke-width: 1.0;"/><!--MD5=[45b54291284970458bed53f428aad9bc]
link _huviz to _graphcommandlanguage--><path d="M116.329,257.049 C124.167,260.87 132.096,266.079 137.583,273 C176.627,322.244 129.014,364.711 172.583,410 C174.643,412.141 176.871,414.109 179.231,415.916 " fill="none" id="_huviz-&gt;_graphcommandlanguage" style="stroke: #000000; stroke-width: 1.0;"/><polygon fill="#000000" points="183.613,418.998,178.5533,410.5482,179.5235,416.1212,173.9505,417.0914,183.613,418.998" style="stroke: #000000; stroke-width: 1.0;"/><!--MD5=[611afdb953935b80d86a045e5a20c8c3]
link _huviz to _greenerturtle--><path d="M60.822,254.53 C46.6114,259.432 30.558,267.741 22.0832,281.5 C9.6129,301.745 9.7338,475.181 22.0832,495.5 C26.035,502.002 31.6532,507.334 37.97,511.691 " fill="none" id="_huviz-&gt;_greenerturtle" style="stroke: #000000; stroke-width: 1.0;"/><polygon fill="#000000" points="42.4428,514.554,37.0191,506.3331,38.2316,511.8584,32.7062,513.0709,42.4428,514.554" style="stroke: #000000; stroke-width: 1.0;"/><!--MD5=[b5066780bb50e7eb53d192028117f15c]
link _huviz to _indexeddbservice--><path d="M116.106,256.595 C124.124,260.423 132.216,265.751 137.583,273 C188.158,341.306 111.59,401.811 172.583,461 C187.217,475.201 303.813,489.239 379.077,496.949 " fill="none" id="_huviz-&gt;_indexeddbservice" style="stroke: #000000; stroke-width: 1.0;"/><polygon fill="#000000" points="384.422,497.493,375.8727,492.6032,379.4476,496.9873,375.0636,500.5622,384.422,497.493" style="stroke: #000000; stroke-width: 1.0;"/><!--MD5=[b8419d487ca96138f60f566e4a1586cd]
link _huviz to _indexeddbstoragecontroller--><path d="M116.215,256.515 C124.24,260.338 132.309,265.683 137.583,273 C195.219,352.961 109.122,416.578 172.583,492 C175.84,495.871 179.62,499.243 183.746,502.181 " fill="none" id="_huviz-&gt;_indexeddbstoragecontroller" style="stroke: #000000; stroke-width: 1.0;"/><polygon fill="#000000" points="187.979,504.977,182.6712,496.6808,183.806,502.2226,178.2642,503.3575,187.979,504.977" style="stroke: #000000; stroke-width: 1.0;"/><!--MD5=[cf2b9d99b2fde8f9ac8fe3818c591fa6]
link _huviz to multistring--><path d="M60.822,254.53 C46.6114,259.432 30.558,267.741 22.0832,281.5 C2.154,313.855 1.92,420.291 22.0832,452.5 C27.9861,461.93 37.634,468.477 47.7734,473.011 " fill="none" id="_huviz-&gt;multistring" style="stroke: #000000; stroke-width: 1.0;"/><polygon fill="#000000" points="52.4549,474.955,45.6778,467.8086,47.8374,473.037,42.609,475.1966,52.4549,474.955" style="stroke: #000000; stroke-width: 1.0;"/><!--MD5=[576ad3665183860786542bc172304814]
link _huviz to _node--><path d="M116.444,239.397 C132.668,234.248 153.778,227.631 172.583,222 C192.06,216.168 214.066,209.882 231.137,205.072 " fill="none" id="_huviz-&gt;_node" style="stroke: #000000; stroke-width: 1.0;"/><polygon fill="#000000" points="236.268,203.629,226.521,202.2164,231.4549,204.9833,228.6879,209.9173,236.268,203.629" style="stroke: #000000; stroke-width: 1.0;"/><!--MD5=[c316f54a23eccd85694cacab9137e8a6]
link _huviz to oncerunner--><path d="M60.822,254.53 C46.6114,259.432 30.558,267.741 22.0832,281.5 C7.1655,305.719 6.9903,385.39 22.0832,409.5 C27.7013,418.474 36.7116,424.838 46.3093,429.34 " fill="none" id="_huviz-&gt;oncerunner" style="stroke: #000000; stroke-width: 1.0;"/><polygon fill="#000000" points="51.0558,431.404,44.3968,424.1475,46.4704,429.4106,41.2073,431.4841,51.0558,431.404" style="stroke: #000000; stroke-width: 1.0;"/><!--MD5=[53eaa73e9beaed2f6e00aaef30b9a17d]
link _huviz to _predicate--><path d="M116.115,256.019 C132.405,260.935 153.696,267.349 172.583,273 C187.861,277.571 204.647,282.565 219.395,286.944 " fill="none" id="_huviz-&gt;_predicate" style="stroke: #000000; stroke-width: 1.0;"/><polygon fill="#000000" points="224.314,288.404,216.8245,282.0081,219.5208,286.981,214.5478,289.6772,224.314,288.404" style="stroke: #000000; stroke-width: 1.0;"/><!--MD5=[bc42dcbe4b21fcf3c326d926fe3eabe6]
link _huviz to quadParser--><path d="M60.822,254.53 C46.6114,259.432 30.558,267.741 22.0832,281.5 C2.2706,313.665 2.0379,334.479 22.0832,366.5 C27.7592,375.567 36.8978,381.969 46.6064,386.479 " fill="none" id="_huviz-&gt;quadParser" style="stroke: #000000; stroke-width: 1.0;"/><polygon fill="#000000" points="51.4055,388.544,44.7196,381.3122,46.8127,386.5676,41.5573,388.6607,51.4055,388.544" style="stroke: #000000; stroke-width: 1.0;"/><!--MD5=[ef4f53580943ebda46b8452c1e3fea4a]
link _huviz to _settings--><path d="M60.822,254.53 C46.6114,259.432 30.558,267.741 22.0832,281.5 C14.1582,294.366 14.235,302.587 22.0832,315.5 C28.5259,326.101 39.3982,333.591 50.5053,338.817 " fill="none" id="_huviz-&gt;_settings" style="stroke: #000000; stroke-width: 1.0;"/><polygon fill="#000000" points="55.2677,340.921,48.6512,333.6257,50.694,338.9008,45.4189,340.9437,55.2677,340.921" style="stroke: #000000; stroke-width: 1.0;"/><!--MD5=[0c21caadf211326c87ff1b7e37a323ba]
link _huviz to _settingswidgets--><path d="M116.224,248 C138.707,248 171.733,248 200.472,248 " fill="none" id="_huviz-&gt;_settingswidgets" style="stroke: #000000; stroke-width: 1.0;"/><polygon fill="#000000" points="205.784,248,196.784,244,200.784,248,196.784,252,205.784,248" style="stroke: #000000; stroke-width: 1.0;"/><!--MD5=[4082761b21fcdf8c267ea3a997d893eb]
link _huviz to sortedset--><path d="M116.469,259.087 C123.787,262.851 131.393,267.518 137.583,273 C158.165,291.225 149.556,308.984 172.583,324 C177.396,327.139 327.739,354.362 402.163,367.698 " fill="none" id="_huviz-&gt;sortedset" style="stroke: #000000; stroke-width: 1.0;"/><polygon fill="#000000" points="407.388,368.634,399.2341,363.11,402.4663,367.7525,397.8238,370.9847,407.388,368.634" style="stroke: #000000; stroke-width: 1.0;"/><!--MD5=[19bae500a9ad4dd5ac0c01e4595e6366]
link _huviz to _taxon--><path d="M116.21,257.826 C123.859,261.645 131.71,266.658 137.583,273 C164.507,302.074 143.558,328.024 172.583,355 C188.281,369.59 211.391,377.121 229.919,380.988 " fill="none" id="_huviz-&gt;_taxon" style="stroke: #000000; stroke-width: 1.0;"/><polygon fill="#000000" points="235.013,381.984,226.9484,376.3305,230.106,381.024,225.4125,384.1816,235.013,381.984" style="stroke: #000000; stroke-width: 1.0;"/><!--MD5=[f06c90f6ce968f3d0df0990a2e51a62b]
link _huviz to _textcursor--><path d="M60.822,254.53 C46.6114,259.432 30.558,267.741 22.0832,281.5 C6.5827,306.665 6.5827,522.335 22.0832,547.5 C27.4435,556.202 35.8357,562.725 44.8758,567.584 " fill="none" id="_huviz-&gt;_textcursor" style="stroke: #000000; stroke-width: 1.0;"/><polygon fill="#000000" points="49.3552,569.837,43.1141,562.2181,44.8889,567.5893,39.5177,569.3641,49.3552,569.837" style="stroke: #000000; stroke-width: 1.0;"/><!--MD5=[3a6f22ad93df00ce9fd9dc9592f22562]
link _huviz to uniquer--><path d="M101.6238,230.899 C116.016,212.105 142.027,182.991 172.583,171 C256.228,138.176 365.136,168.584 415.419,186.306 " fill="none" id="_huviz-&gt;uniquer" style="stroke: #000000; stroke-width: 1.0;"/><polygon fill="#000000" points="420.389,188.083,413.2602,181.2874,415.6807,186.4002,410.5678,188.8207,420.389,188.083" style="stroke: #000000; stroke-width: 1.0;"/><!--MD5=[c4773edaa6d8e63a11de9e435cd61aba]
link _indexeddbstoragecontroller to _indexeddbservice--><path d="M349.667,512.806 C359.733,511.749 369.848,510.688 379.512,509.673 " fill="none" id="_indexeddbstoragecontroller-&gt;_indexeddbservice" style="stroke: #000000; stroke-width: 0.5;"/><polygon fill="#000000" points="384.521,509.147,375.1529,506.1074,379.5483,509.6684,375.9872,514.0637,384.521,509.147" style="stroke: #000000; stroke-width: 0.5;"/><!--MD5=[a2ca38879bb953ea5390095996b88ddb]
link _node to uniquer--><path d="M285.746,197 C316.434,197 370.288,197 406.321,197 " fill="none" id="_node-&gt;uniquer" style="stroke: #000000; stroke-width: 0.5;"/><polygon fill="#000000" points="411.504,197,402.504,193,406.504,197,402.504,201,411.504,197" style="stroke: #000000; stroke-width: 0.5;"/><!--MD5=[a2f550a9ef4c63f37cf9f4261de5c587]
link _predicate to sortedset--><path d="M297.802,310.108 C313.813,315.377 332.825,322.038 349.583,329 C373.147,338.79 399.128,351.756 417.71,361.426 " fill="none" id="_predicate-&gt;sortedset" style="stroke: #000000; stroke-width: 0.5;"/><polygon fill="#000000" points="422.269,363.81,416.147,356.095,417.8382,361.4932,412.44,363.1844,422.269,363.81" style="stroke: #000000; stroke-width: 0.5;"/><!--MD5=[248000c19addd84d3bd8fd9a624f4569]
link _predicate to _treectrl--><path d="M297.843,302.754 C329.982,306.128 376.875,311.05 408.612,314.381 " fill="none" id="_predicate-&gt;_treectrl" style="stroke: #000000; stroke-width: 0.5;"/><polygon fill="#000000" points="413.962,314.943,405.4297,310.0236,408.9894,314.42,404.593,317.9797,413.962,314.943" style="stroke: #000000; stroke-width: 0.5;"/><!--MD5=[28310eee2fca0e95a76e2266f3caba5f]
link _predicate to uniquer--><path d="M297.808,291.769 C314.172,287.618 333.466,281.507 349.583,273 C380.197,256.84 410.302,229.815 427.764,212.724 " fill="none" id="_predicate-&gt;uniquer" style="stroke: #000000; stroke-width: 0.5;"/><polygon fill="#000000" points="431.503,209.026,422.2915,212.5113,427.9482,212.5422,427.9174,218.199,431.503,209.026" style="stroke: #000000; stroke-width: 0.5;"/><!--MD5=[98be6845be905518450252ae93d07b4f]
link _settings to _settingswidgets--><path d="M121.723,335.357 C127.327,332.054 132.864,328.248 137.583,324 C158.016,305.608 150.27,289.059 172.583,273 C181.069,266.893 191.013,262.273 201.096,258.779 " fill="none" id="_settings-&gt;_settingswidgets" style="stroke: #000000; stroke-width: 0.5;"/><polygon fill="#000000" points="206.052,257.153,196.2533,256.16,201.3015,258.7127,198.7488,263.7609,206.052,257.153" style="stroke: #000000; stroke-width: 0.5;"/><!--MD5=[151ebb7b97156e44f60a81716f179c47]
link _settingswidgets to uniquer--><path d="M316.389,232.698 C347.628,223.896 385.756,213.153 411.975,205.765 " fill="none" id="_settingswidgets-&gt;uniquer" style="stroke: #000000; stroke-width: 0.5;"/><polygon fill="#000000" points="417.054,204.334,407.3066,202.924,412.2413,205.6897,409.4757,210.6244,417.054,204.334" style="stroke: #000000; stroke-width: 0.5;"/><!--MD5=[fc90fe1503a3a89654081b9607cd7cce]
link _taxon to angliciser--><path d="M287.251,391.535 C318.173,399.565 370.886,413.253 406.338,422.458 " fill="none" id="_taxon-&gt;angliciser" style="stroke: #000000; stroke-width: 0.5;"/><polygon fill="#000000" points="411.439,423.783,403.7319,417.651,406.5992,422.5273,401.7229,425.3946,411.439,423.783" style="stroke: #000000; stroke-width: 0.5;"/><!--MD5=[0aee645be1bce300269f0d1fecc89b9b]
link _taxon to sortedset--><path d="M287.251,383.61 C315.674,382.039 362.506,379.452 397.423,377.523 " fill="none" id="_taxon-&gt;sortedset" style="stroke: #000000; stroke-width: 0.5;"/><polygon fill="#000000" points="402.484,377.243,393.2761,373.7481,397.4917,377.5202,393.7196,381.7358,402.484,377.243" style="stroke: #000000; stroke-width: 0.5;"/><!--MD5=[85533fe774a186ff7ac61a8548acf24f]
link _taxon to _treectrl--><path d="M287.251,375.684 C318.914,363.963 373.424,343.785 408.855,330.67 " fill="none" id="_taxon-&gt;_treectrl" style="stroke: #000000; stroke-width: 0.5;"/><polygon fill="#000000" points="413.94,328.788,404.1111,328.1614,409.251,330.5239,406.8885,335.6638,413.94,328.788" style="stroke: #000000; stroke-width: 0.5;"/><!--MD5=[d6a3172dff1eddc9799eb40c22a3dc34]
link <b>gvcl</b> to <b>hsv</b>--><!--MD5=[d5fcc95865112b69530db3bc24e523b9]
link <b>gvcl</b> to _ontoviz--><!--MD5=[f5b7b88db9ca67dfdc2269afca6c2ec9]
link _ontoviz to _socrata--><script type="text/plantuml"><![CDATA[MD5=[5b3002f3657ee84da37ae69fac873de8]
@startuml

scale max 1920 width
left to right direction

skinparam nodesep 17
skinparam ranksep 35
skinparam monochrome true
skinparam shadowing false
skinparam defaultFontName Tahoma
skinparam defaultFontSize 12
skinparam roundCorner 6
skinparam dpi 150
skinparam arrowColor black
skinparam arrowThickness 0.5
skinparam packageTitleAlignment left

skinparam usecase {
  borderThickness 0.5
}

skinparam rectangle {
  borderThickness 0.5
}

skinparam component {
  borderThickness 1
}


(angliciser)
rectangle "<b>datasetdb</b>" as _datasetdb
rectangle "dndloader" as _dndloader
rectangle "edge" as _edge
rectangle "editui" as _editui
rectangle "fsm" as _fsm
rectangle "gclui" as _gclui
rectangle "graphcommandlanguage" as _graphcommandlanguage
rectangle "greenerturtle" as _greenerturtle
(<b>gvcl</b>)
(<b>hsv</b>)
rectangle "<b>huviz</b>" as _huviz
rectangle "indexeddbservice" as _indexeddbservice
rectangle "indexeddbstoragecontroller" as _indexeddbstoragecontroller
(multistring)
rectangle "node" as _node
(oncerunner)
rectangle "<b>ontoviz</b>" as _ontoviz
rectangle "predicate" as _predicate
(quadParser)
rectangle "querymanager" as _querymanager
rectangle "settings" as _settings
rectangle "settingswidgets" as _settingswidgets
rectangle "<b>socrata</b>" as _socrata
(sortedset)
rectangle "taxon" as _taxon
rectangle "textcursor" as _textcursor
rectangle "treectrl" as _treectrl
(uniquer)


_datasetdb -[thickness=1]> _dndloader
_datasetdb -[thickness=1]> (uniquer)
_editui --> _fsm
_editui --> _indexeddbstoragecontroller
_gclui --> _graphcommandlanguage
_gclui --> _querymanager
_graphcommandlanguage --> (angliciser)
_graphcommandlanguage --> (sortedset)
_huviz -[thickness=1]> _dndloader
_huviz -[thickness=1]> _edge
_huviz -[thickness=1]> _editui
_huviz -[thickness=1]> _gclui
_huviz -[thickness=1]> _graphcommandlanguage
_huviz -[thickness=1]> _greenerturtle
_huviz -[thickness=1]> _indexeddbservice
_huviz -[thickness=1]> _indexeddbstoragecontroller
_huviz -[thickness=1]> (multistring)
_huviz -[thickness=1]> _node
_huviz -[thickness=1]> (oncerunner)
_huviz -[thickness=1]> _predicate
_huviz -[thickness=1]> (quadParser)
_huviz -[thickness=1]> _settings
_huviz -[thickness=1]> _settingswidgets
_huviz -[thickness=1]> (sortedset)
_huviz -[thickness=1]> _taxon
_huviz -[thickness=1]> _textcursor
_huviz -[thickness=1]> (uniquer)
_indexeddbstoragecontroller --> _indexeddbservice
_node --> (uniquer)
_predicate --> (sortedset)
_predicate --> _treectrl
_predicate --> (uniquer)
_settings --> _settingswidgets
_settingswidgets --> (uniquer)
_taxon --> (angliciser)
_taxon --> (sortedset)
_taxon --> _treectrl

@enduml


' View and edit on https://arkit.pro
]]></script></g></svg>