<?xml version="1.0" encoding="UTF-8" standalone="no"?><svg xmlns="http://www.w3.org/2000/svg" xmlns:xlink="http://www.w3.org/1999/xlink" contentScriptType="application/ecmascript" contentStyleType="text/css" height="778px" preserveAspectRatio="none" style="width:514px;height:778px;" version="1.1" viewBox="0 0 514 778" width="514px" zoomAndPan="magnify"><defs/><g><ellipse cx="443.9739" cy="503.242" fill="#F8F8F8" rx="41.8909" ry="13.242" style="stroke: #383838; stroke-width: 0.5;"/><text fill="#000000" font-family="Tahoma, sans-serif" font-size="12" lengthAdjust="spacingAndGlyphs" textLength="55" x="416.4739" y="506.9842">angliciser</text><!--MD5=[065b424c64954ecc3679e701d25a941e]
entity _datasetdb--><rect fill="#F8F8F8" height="34.4844" rx="3" ry="3" style="stroke: #000000; stroke-width: 0.5;" width="86" x="218.083" y="110"/><text fill="#000000" font-family="Tahoma, sans-serif" font-size="12" font-weight="bold" lengthAdjust="spacingAndGlyphs" textLength="66" x="228.083" y="132.0059">datasetdb</text><!--MD5=[68f424e333f01539f4809daa1e86d0f0]
entity _dndloader--><rect fill="#F8F8F8" height="34.4844" rx="3" ry="3" style="stroke: #000000; stroke-width: 0.5;" width="77" x="222.583" y="247"/><text fill="#000000" font-family="Tahoma, sans-serif" font-size="12" lengthAdjust="spacingAndGlyphs" textLength="57" x="232.583" y="269.0059">dndloader</text><!--MD5=[88c490e9164e48e33bb1acceb2aacd6d]
entity _edge--><rect fill="#F8F8F8" height="34.4844" rx="3" ry="3" style="stroke: #000000; stroke-width: 0.5;" width="48" x="64.5832" y="400"/><text fill="#000000" font-family="Tahoma, sans-serif" font-size="12" lengthAdjust="spacingAndGlyphs" textLength="28" x="74.5832" y="422.0059">edge</text><!--MD5=[2e8c035363463292a2a2d5ce12b2c02c]
entity _editui--><rect fill="#F8F8F8" height="34.4844" rx="3" ry="3" style="stroke: #000000; stroke-width: 0.5;" width="51" x="63.0832" y="733"/><text fill="#000000" font-family="Tahoma, sans-serif" font-size="12" lengthAdjust="spacingAndGlyphs" textLength="31" x="73.0832" y="755.0059">editui</text><!--MD5=[85e828cec410b55b18bc9d950a8a5ef8]
entity _fsm--><rect fill="#F8F8F8" height="34.4844" rx="3" ry="3" style="stroke: #000000; stroke-width: 0.5;" width="42" x="240.083" y="733"/><text fill="#000000" font-family="Tahoma, sans-serif" font-size="12" lengthAdjust="spacingAndGlyphs" textLength="22" x="250.083" y="755.0059">fsm</text><!--MD5=[4086444eb55f169405db08ef307d9d70]
entity _gclui--><rect fill="#F8F8F8" height="34.4844" rx="3" ry="3" style="stroke: #000000; stroke-width: 0.5;" width="47" x="65.0832" y="682"/><text fill="#000000" font-family="Tahoma, sans-serif" font-size="12" lengthAdjust="spacingAndGlyphs" textLength="27" x="75.0832" y="704.0059">gclui</text><!--MD5=[995c6bd86ece32814d0ce502d3a43650]
entity _graphcommandlanguage--><rect fill="#F8F8F8" height="34.4844" rx="3" ry="3" style="stroke: #000000; stroke-width: 0.5;" width="162" x="180.083" y="486"/><text fill="#000000" font-family="Tahoma, sans-serif" font-size="12" lengthAdjust="spacingAndGlyphs" textLength="142" x="190.083" y="508.0059">graphcommandlanguage</text><!--MD5=[78e51e3f01a585ec427433fb7dc601b3]
entity _greenerturtle--><rect fill="#F8F8F8" height="34.4844" rx="3" ry="3" style="stroke: #000000; stroke-width: 0.5;" width="92" x="42.5832" y="580"/><text fill="#000000" font-family="Tahoma, sans-serif" font-size="12" lengthAdjust="spacingAndGlyphs" textLength="72" x="52.5832" y="602.0059">greenerturtle</text><ellipse cx="88.6751" cy="25.242" fill="#F8F8F8" rx="22.0919" ry="13.242" style="stroke: #383838; stroke-width: 0.5;"/><text fill="#000000" font-family="Tahoma, sans-serif" font-size="12" font-weight="bold" lengthAdjust="spacingAndGlyphs" textLength="27" x="75.1751" y="28.9842">gvcl</text><ellipse cx="88.3467" cy="68.242" fill="#F8F8F8" rx="19.2635" ry="13.242" style="stroke: #383838; stroke-width: 0.5;"/><text fill="#000000" font-family="Tahoma, sans-serif" font-size="12" font-weight="bold" lengthAdjust="spacingAndGlyphs" textLength="23" x="76.8467" y="71.9842">hsv</text><!--MD5=[c17c2e27dcac3cee95af133266e055c4]
entity _huviz--><rect fill="#F8F8F8" height="34.4844" rx="3" ry="3" style="stroke: #000000; stroke-width: 0.5;" width="55" x="61.0832" y="298"/><text fill="#000000" font-family="Tahoma, sans-serif" font-size="12" font-weight="bold" lengthAdjust="spacingAndGlyphs" textLength="35" x="71.0832" y="320.0059">huviz</text><!--MD5=[0ec5cfff40ac86c6e424ea8c83617c61]
entity _indexeddbservice--><rect fill="#F8F8F8" height="34.4844" rx="3" ry="3" style="stroke: #000000; stroke-width: 0.5;" width="119" x="384.583" y="570"/><text fill="#000000" font-family="Tahoma, sans-serif" font-size="12" lengthAdjust="spacingAndGlyphs" textLength="99" x="394.583" y="592.0059">indexeddbservice</text><!--MD5=[af43522a83a3894ea69d66d18845e476]
entity _indexeddbstoragecontroller--><rect fill="#F8F8F8" height="34.4844" rx="3" ry="3" style="stroke: #000000; stroke-width: 0.5;" width="177" x="172.583" y="607"/><text fill="#000000" font-family="Tahoma, sans-serif" font-size="12" lengthAdjust="spacingAndGlyphs" textLength="157" x="182.583" y="629.0059">indexeddbstoragecontroller</text><ellipse cx="88.5096" cy="550.242" fill="#F8F8F8" rx="45.4264" ry="13.242" style="stroke: #383838; stroke-width: 0.5;"/><text fill="#000000" font-family="Tahoma, sans-serif" font-size="12" lengthAdjust="spacingAndGlyphs" textLength="60" x="58.5096" y="553.9842">multistring</text><!--MD5=[a1220b791bfdf8d2fcff6a69a8402a50]
entity _node--><rect fill="#F8F8F8" height="34.4844" rx="3" ry="3" style="stroke: #000000; stroke-width: 0.5;" width="49" x="236.583" y="196"/><text fill="#000000" font-family="Tahoma, sans-serif" font-size="12" lengthAdjust="spacingAndGlyphs" textLength="29" x="246.583" y="218.0059">node</text><ellipse cx="88.5451" cy="507.242" fill="#F8F8F8" rx="48.9619" ry="13.242" style="stroke: #383838; stroke-width: 0.5;"/><text fill="#000000" font-family="Tahoma, sans-serif" font-size="12" lengthAdjust="spacingAndGlyphs" textLength="65" x="56.0451" y="510.9842">oncerunner</text><!--MD5=[1acd4c73490d50fea545701d86a6f02a]
entity _ontoviz--><rect fill="#F8F8F8" height="34.4844" rx="3" ry="3" style="stroke: #000000; stroke-width: 0.5;" width="70" x="226.083" y="8"/><text fill="#000000" font-family="Tahoma, sans-serif" font-size="12" font-weight="bold" lengthAdjust="spacingAndGlyphs" textLength="50" x="236.083" y="30.0059">ontoviz</text><!--MD5=[8bd7f295a0ce07e47a21f34eba561762]
entity _predicate--><rect fill="#F8F8F8" height="34.4844" rx="3" ry="3" style="stroke: #000000; stroke-width: 0.5;" width="73" x="224.583" y="349"/><text fill="#000000" font-family="Tahoma, sans-serif" font-size="12" lengthAdjust="spacingAndGlyphs" textLength="53" x="234.583" y="371.0059">predicate</text><ellipse cx="88.338" cy="464.242" fill="#F8F8F8" rx="48.2548" ry="13.242" style="stroke: #383838; stroke-width: 0.5;"/><text fill="#000000" font-family="Tahoma, sans-serif" font-size="12" lengthAdjust="spacingAndGlyphs" textLength="64" x="56.338" y="467.9842">quadParser</text><!--MD5=[bdeb9b27363b218ec700e114faa1f575]
entity _querymanager--><rect fill="#F8F8F8" height="34.4844" rx="3" ry="3" style="stroke: #000000; stroke-width: 0.5;" width="101" x="210.583" y="682"/><text fill="#000000" font-family="Tahoma, sans-serif" font-size="12" lengthAdjust="spacingAndGlyphs" textLength="81" x="220.583" y="704.0059">querymanager</text><!--MD5=[df354d2524069015f910758bbbe80e8a]
entity _settings--><rect fill="#F8F8F8" height="34.4844" rx="3" ry="3" style="stroke: #000000; stroke-width: 0.5;" width="66" x="55.5832" y="349"/><text fill="#000000" font-family="Tahoma, sans-serif" font-size="12" lengthAdjust="spacingAndGlyphs" textLength="46" x="65.5832" y="371.0059">settings</text><!--MD5=[698519afe8ef840e9874c8356e39c7e3]
entity _settingswidgets--><rect fill="#F8F8F8" height="34.4844" rx="3" ry="3" style="stroke: #000000; stroke-width: 0.5;" width="110" x="206.083" y="298"/><text fill="#000000" font-family="Tahoma, sans-serif" font-size="12" lengthAdjust="spacingAndGlyphs" textLength="90" x="216.083" y="320.0059">settingswidgets</text><!--MD5=[b2685753d20aee33b1198430d4ca6153]
entity _socrata--><rect fill="#F8F8F8" height="34.4844" rx="3" ry="3" style="stroke: #000000; stroke-width: 0.5;" width="71" x="225.583" y="59"/><text fill="#000000" font-family="Tahoma, sans-serif" font-size="12" font-weight="bold" lengthAdjust="spacingAndGlyphs" textLength="51" x="235.583" y="81.0059">socrata</text><ellipse cx="443.9739" cy="460.242" fill="#F8F8F8" rx="41.8909" ry="13.242" style="stroke: #383838; stroke-width: 0.5;"/><text fill="#000000" font-family="Tahoma, sans-serif" font-size="12" lengthAdjust="spacingAndGlyphs" textLength="55" x="416.4739" y="463.9842">sortedset</text><!--MD5=[319f27bc800d444a751a01b2683199e4]
entity _taxon--><rect fill="#F8F8F8" height="34.4844" rx="3" ry="3" style="stroke: #000000; stroke-width: 0.5;" width="52" x="235.083" y="400"/><text fill="#000000" font-family="Tahoma, sans-serif" font-size="12" lengthAdjust="spacingAndGlyphs" textLength="32" x="245.083" y="422.0059">taxon</text><!--MD5=[90aed9b54c4f2d78720c94aa7e57e608]
entity _textcursor--><rect fill="#F8F8F8" height="34.4844" rx="3" ry="3" style="stroke: #000000; stroke-width: 0.5;" width="78" x="49.5832" y="631"/><text fill="#000000" font-family="Tahoma, sans-serif" font-size="12" lengthAdjust="spacingAndGlyphs" textLength="58" x="59.5832" y="653.0059">textcursor</text><!--MD5=[ceba8e24a112afc51c5fe49531598f36]
entity _treectrl--><rect fill="#F8F8F8" height="34.4844" rx="3" ry="3" style="stroke: #000000; stroke-width: 0.5;" width="60" x="414.083" y="372"/><text fill="#000000" font-family="Tahoma, sans-serif" font-size="12" lengthAdjust="spacingAndGlyphs" textLength="40" x="424.083" y="394.0059">treectrl</text><ellipse cx="444.2815" cy="239.242" fill="#F8F8F8" rx="32.6985" ry="13.242" style="stroke: #383838; stroke-width: 0.5;"/><text fill="#000000" font-family="Tahoma, sans-serif" font-size="12" lengthAdjust="spacingAndGlyphs" textLength="42" x="423.2815" y="242.9842">uniquer</text><!--MD5=[edc372a5cb21e65345c5bf7d05238963]
link _datasetdb to _dndloader--><path d="M218.057,130.318 C194.881,134.633 168.381,144.258 155.083,165.5 C139.99,189.61 139.99,205.39 155.083,229.5 C168.115,250.317 194.274,258.973 217.343,262.41 " fill="none" id="_datasetdb-&gt;_dndloader" style="stroke: #000000; stroke-width: 1.0;"/><polygon fill="#000000" points="222.518,263.103,214.1277,257.9451,217.5621,262.4401,213.0671,265.8745,222.518,263.103" style="stroke: #000000; stroke-width: 1.0;"/><!--MD5=[bfb75d4d8f0723c1988c6bc57ecf3a1e]
link _datasetdb to uniquer--><path d="M304.48,137.875 C319.297,142.61 335.688,148.949 349.583,157 C380.846,175.113 411.19,204.585 428.457,222.825 " fill="none" id="_datasetdb-&gt;uniquer" style="stroke: #000000; stroke-width: 1.0;"/><polygon fill="#000000" points="432.145,226.761,428.9103,217.4585,428.7263,223.1123,423.0725,222.9283,432.145,226.761" style="stroke: #000000; stroke-width: 1.0;"/><!--MD5=[fdb1266c795476e54b3fbfa48d7c662e]
link _dndloader to uniquer--><path d="M299.587,258.82 C331.399,254.426 376.701,248.169 407.849,243.867 " fill="none" id="_dndloader-&gt;uniquer" style="stroke: #000000; stroke-width: 0.5;"/><polygon fill="#000000" points="413.108,243.14,403.6452,240.4094,408.155,243.8243,404.7401,248.3341,413.108,243.14" style="stroke: #000000; stroke-width: 0.5;"/><!--MD5=[a30baaf1f5525220c49869b40c8172a6]
link _editui to _fsm--><path d="M114.375,750 C146.505,750 202.239,750 234.669,750 " fill="none" id="_editui-&gt;_fsm" style="stroke: #000000; stroke-width: 0.5;"/><polygon fill="#000000" points="240.055,750,231.055,746,235.055,750,231.055,754,240.055,750" style="stroke: #000000; stroke-width: 0.5;"/><!--MD5=[7a5d0419302720763152f26417e90ab3]
link _editui to _indexeddbstoragecontroller--><path d="M114.482,739.9178 C122.392,735.9905 130.83,730.9799 137.583,725 C158.165,706.7747 152.361,692.6228 172.583,674 C185.647,661.97 202.106,651.619 217.215,643.508 " fill="none" id="_editui-&gt;_indexeddbstoragecontroller" style="stroke: #000000; stroke-width: 0.5;"/><polygon fill="#000000" points="221.855,641.063,212.0281,641.72,217.4316,643.394,215.7576,648.7975,221.855,641.063" style="stroke: #000000; stroke-width: 0.5;"/><!--MD5=[87b71bbd7c7e51674aee4d8d213c4dfd]
link _gclui to _graphcommandlanguage--><path d="M112.571,691.3449 C121.439,687.3873 131.009,681.73 137.583,674 C169.725,636.207 143.539,608.223 172.583,568 C185.86,549.613 205.882,534.197 223.424,522.999 " fill="none" id="_gclui-&gt;_graphcommandlanguage" style="stroke: #000000; stroke-width: 0.5;"/><polygon fill="#000000" points="227.825,520.244,218.0744,521.632,223.5877,522.8984,222.3214,528.4117,227.825,520.244" style="stroke: #000000; stroke-width: 0.5;"/><!--MD5=[94edbdfe38f378104ff793902e80a452]
link _gclui to _querymanager--><path d="M112.224,699 C135.87,699 173.838,699 205.378,699 " fill="none" id="_gclui-&gt;_querymanager" style="stroke: #000000; stroke-width: 0.5;"/><polygon fill="#000000" points="210.382,699,201.382,695,205.382,699,201.382,703,210.382,699" style="stroke: #000000; stroke-width: 0.5;"/><!--MD5=[2f4a81c33d3c78d79ede8fe8a7b03976]
link _gclui to sortedset--><path d="M112.126,690.9438 C120.926,686.9247 130.566,681.3299 137.583,674 C163.021,647.429 145.804,624.218 172.583,599 C234.169,541.004 282.685,580.779 349.583,529 C370.462,512.84 363.449,496.825 384.583,481 C390.759,476.376 398.049,472.696 405.348,469.795 " fill="none" id="_gclui-&gt;sortedset" style="stroke: #000000; stroke-width: 0.5;"/><polygon fill="#000000" points="410.389,467.908,400.5579,467.3169,405.7063,469.6608,403.3624,474.8092,410.389,467.908" style="stroke: #000000; stroke-width: 0.5;"/><!--MD5=[180e44a801c72b313cfac1c6dee1f477]
link _graphcommandlanguage to angliciser--><path d="M342.263,503 C360.944,503 380.22,503 396.85,503 " fill="none" id="_graphcommandlanguage-&gt;angliciser" style="stroke: #000000; stroke-width: 0.5;"/><polygon fill="#000000" points="401.922,503,392.922,499,396.922,503,392.922,507,401.922,503" style="stroke: #000000; stroke-width: 0.5;"/><!--MD5=[04abc1225e7ffdb108f39a6b72fc8d2f]
link _graphcommandlanguage to sortedset--><path d="M333.879,485.944 C358.367,480.126 384.766,473.854 405.473,468.935 " fill="none" id="_graphcommandlanguage-&gt;sortedset" style="stroke: #000000; stroke-width: 0.5;"/><polygon fill="#000000" points="410.34,467.779,400.6591,465.9677,405.4754,468.9348,402.5084,473.7511,410.34,467.779" style="stroke: #000000; stroke-width: 0.5;"/><!--MD5=[0a19c39635a92762a7be9d9130041a5d]
link _huviz to _edge--><path d="M60.822,321.53 C46.6114,326.432 30.558,334.741 22.0832,348.5 C14.1582,361.366 14.235,369.587 22.0832,382.5 C30.2653,395.963 45.5919,404.409 59.4705,409.572 " fill="none" id="_huviz-&gt;_edge" style="stroke: #000000; stroke-width: 1.0;"/><polygon fill="#000000" points="64.5022,411.329,57.3241,404.5854,59.7818,409.6806,54.6866,412.1382,64.5022,411.329" style="stroke: #000000; stroke-width: 1.0;"/><!--MD5=[7c5eb97fb3d0511e7c515fe8c5e2c9a9]
link _huviz to _editui--><path d="M60.822,321.53 C46.6114,326.432 30.558,334.741 22.0832,348.5 C0.6389,383.314 0.6389,681.6856 22.0832,716.5 C29.9933,729.3419 44.5059,737.4366 57.9599,742.4438 " fill="none" id="_huviz-&gt;_editui" style="stroke: #000000; stroke-width: 1.0;"/><polygon fill="#000000" points="62.8545,744.152,55.6752,737.4098,58.1338,742.5044,53.0391,744.9629,62.8545,744.152" style="stroke: #000000; stroke-width: 1.0;"/><!--MD5=[78c92fafc734451d0c4222f6f659630a]
link _huviz to _gclui--><path d="M60.822,321.53 C46.6114,326.432 30.558,334.741 22.0832,348.5 C3.6108,378.49 3.6108,635.51 22.0832,665.5 C30.3556,678.9301 45.8492,687.1681 59.8011,692.1126 " fill="none" id="_huviz-&gt;_gclui" style="stroke: #000000; stroke-width: 1.0;"/><polygon fill="#000000" points="64.8553,693.7887,57.572,687.1589,60.1095,692.2147,55.0537,694.7522,64.8553,693.7887" style="stroke: #000000; stroke-width: 1.0;"/><!--MD5=[45b54291284970458bed53f428aad9bc]
link _huviz to _graphcommandlanguage--><path d="M116.299,324.073 C124.135,327.895 132.071,333.099 137.583,340 C175.73,387.759 130.968,428.231 172.583,473 C176.109,476.793 180.136,480.107 184.48,483.002 " fill="none" id="_huviz-&gt;_graphcommandlanguage" style="stroke: #000000; stroke-width: 1.0;"/><polygon fill="#000000" points="188.924,485.759,183.3848,477.6154,184.6752,483.1231,179.1675,484.4135,188.924,485.759" style="stroke: #000000; stroke-width: 1.0;"/><!--MD5=[611afdb953935b80d86a045e5a20c8c3]
link _huviz to _greenerturtle--><path d="M60.822,321.53 C46.6114,326.432 30.558,334.741 22.0832,348.5 C9.5546,368.84 9.5546,543.16 22.0832,563.5 C26.0494,569.939 31.6755,575.185 37.9958,579.446 " fill="none" id="_huviz-&gt;_greenerturtle" style="stroke: #000000; stroke-width: 1.0;"/><polygon fill="#000000" points="42.4704,582.241,36.9574,574.0797,38.2301,579.5915,32.7183,580.8642,42.4704,582.241" style="stroke: #000000; stroke-width: 1.0;"/><!--MD5=[b5066780bb50e7eb53d192028117f15c]
link _huviz to _indexeddbservice--><path d="M116.11,323.592 C124.128,327.42 132.219,332.748 137.583,340 C188.386,408.681 113.031,467.75 172.583,529 C225.909,583.847 317.586,592.897 379.252,591.907 " fill="none" id="_huviz-&gt;_indexeddbservice" style="stroke: #000000; stroke-width: 1.0;"/><polygon fill="#000000" points="384.38,591.8,375.2996,587.986,379.3811,591.9029,375.4642,595.9843,384.38,591.8" style="stroke: #000000; stroke-width: 1.0;"/><!--MD5=[b8419d487ca96138f60f566e4a1586cd]
link _huviz to _indexeddbstoragecontroller--><path d="M116.215,323.515 C124.24,327.338 132.309,332.683 137.583,340 C195.219,419.961 121.468,474.721 172.583,559 C184.073,577.944 203.354,593.155 220.897,604.086 " fill="none" id="_huviz-&gt;_indexeddbstoragecontroller" style="stroke: #000000; stroke-width: 1.0;"/><polygon fill="#000000" points="225.314,606.773,219.7028,598.6789,221.042,604.1749,215.5459,605.5141,225.314,606.773" style="stroke: #000000; stroke-width: 1.0;"/><!--MD5=[cf2b9d99b2fde8f9ac8fe3818c591fa6]
link _huviz to multistring--><path d="M60.822,321.53 C46.6114,326.432 30.558,334.741 22.0832,348.5 C2.0375,381.044 1.8021,488.102 22.0832,520.5 C27.7849,529.608 37.0416,535.92 46.8606,540.289 " fill="none" id="_huviz-&gt;multistring" style="stroke: #000000; stroke-width: 1.0;"/><polygon fill="#000000" points="51.7129,542.282,44.9074,535.1626,47.0878,540.3824,41.868,542.5628,51.7129,542.282" style="stroke: #000000; stroke-width: 1.0;"/><!--MD5=[576ad3665183860786542bc172304814]
link _huviz to _node--><path d="M103.716,297.801 C118.973,280.314 144.842,253.631 172.583,238 C190.67,227.809 213.244,221.493 230.932,217.759 " fill="none" id="_huviz-&gt;_node" style="stroke: #000000; stroke-width: 1.0;"/><polygon fill="#000000" points="236.254,216.682,226.6395,214.5463,231.3533,217.6736,228.226,222.3874,236.254,216.682" style="stroke: #000000; stroke-width: 1.0;"/><!--MD5=[c316f54a23eccd85694cacab9137e8a6]
link _huviz to oncerunner--><path d="M60.822,321.53 C46.6114,326.432 30.558,334.741 22.0832,348.5 C7.1655,372.719 6.9903,452.39 22.0832,476.5 C27.7013,485.474 36.7116,491.838 46.3093,496.34 " fill="none" id="_huviz-&gt;oncerunner" style="stroke: #000000; stroke-width: 1.0;"/><polygon fill="#000000" points="51.0558,498.404,44.3968,491.1475,46.4704,496.4106,41.2073,498.4841,51.0558,498.404" style="stroke: #000000; stroke-width: 1.0;"/><!--MD5=[53eaa73e9beaed2f6e00aaef30b9a17d]
link _huviz to _predicate--><path d="M116.115,323.019 C132.405,327.935 153.696,334.349 172.583,340 C187.861,344.571 204.647,349.565 219.395,353.944 " fill="none" id="_huviz-&gt;_predicate" style="stroke: #000000; stroke-width: 1.0;"/><polygon fill="#000000" points="224.314,355.404,216.8245,349.0081,219.5208,353.981,214.5478,356.6772,224.314,355.404" style="stroke: #000000; stroke-width: 1.0;"/><!--MD5=[bc42dcbe4b21fcf3c326d926fe3eabe6]
link _huviz to quadParser--><path d="M60.822,321.53 C46.6114,326.432 30.558,334.741 22.0832,348.5 C2.2706,380.665 2.0379,401.479 22.0832,433.5 C27.7592,442.567 36.8978,448.969 46.6064,453.479 " fill="none" id="_huviz-&gt;quadParser" style="stroke: #000000; stroke-width: 1.0;"/><polygon fill="#000000" points="51.4055,455.544,44.7196,448.3122,46.8127,453.5676,41.5573,455.6607,51.4055,455.544" style="stroke: #000000; stroke-width: 1.0;"/><!--MD5=[ef4f53580943ebda46b8452c1e3fea4a]
link _huviz to _settings--><path d="M88.5832,332.198 C88.5832,336.018 88.5832,339.838 88.5832,343.658 " fill="none" id="_huviz-&gt;_settings" style="stroke: #000000; stroke-width: 1.0;"/><polygon fill="#000000" points="88.5832,348.867,92.5832,339.867,88.5832,343.867,84.5832,339.867,88.5832,348.867" style="stroke: #000000; stroke-width: 1.0;"/><!--MD5=[0c21caadf211326c87ff1b7e37a323ba]
link _huviz to _settingswidgets--><path d="M116.224,315 C138.707,315 171.733,315 200.472,315 " fill="none" id="_huviz-&gt;_settingswidgets" style="stroke: #000000; stroke-width: 1.0;"/><polygon fill="#000000" points="205.784,315,196.784,311,200.784,315,196.784,319,205.784,315" style="stroke: #000000; stroke-width: 1.0;"/><!--MD5=[4082761b21fcdf8c267ea3a997d893eb]
link _huviz to sortedset--><path d="M116.499,324.567 C124.16,328.376 131.945,333.448 137.583,340 C168.846,376.328 134.526,412.867 172.583,442 C206.731,468.14 329.96,466.133 397.693,462.844 " fill="none" id="_huviz-&gt;sortedset" style="stroke: #000000; stroke-width: 1.0;"/><polygon fill="#000000" points="402.872,462.584,393.6832,459.0391,397.8783,462.834,394.0833,467.0291,402.872,462.584" style="stroke: #000000; stroke-width: 1.0;"/><!--MD5=[19bae500a9ad4dd5ac0c01e4595e6366]
link _huviz to _taxon--><path d="M116.469,326.087 C123.787,329.851 131.393,334.518 137.583,340 C158.165,358.225 150.355,374.824 172.583,391 C189.332,403.188 211.789,409.709 229.758,413.171 " fill="none" id="_huviz-&gt;_taxon" style="stroke: #000000; stroke-width: 1.0;"/><polygon fill="#000000" points="234.699,414.069,226.5579,408.5263,229.7794,413.1762,225.1294,416.3977,234.699,414.069" style="stroke: #000000; stroke-width: 1.0;"/><!--MD5=[f06c90f6ce968f3d0df0990a2e51a62b]
link _huviz to _textcursor--><path d="M60.822,321.53 C46.6114,326.432 30.558,334.741 22.0832,348.5 C6.5827,373.665 6.5827,589.335 22.0832,614.5 C27.4435,623.202 35.8357,629.725 44.8758,634.584 " fill="none" id="_huviz-&gt;_textcursor" style="stroke: #000000; stroke-width: 1.0;"/><polygon fill="#000000" points="49.3552,636.837,43.1141,629.2181,44.8889,634.5893,39.5177,636.3641,49.3552,636.837" style="stroke: #000000; stroke-width: 1.0;"/><!--MD5=[3a6f22ad93df00ce9fd9dc9592f22562]
link _huviz to uniquer--><path d="M94.7801,297.736 C104.5785,268.661 128.833,210.774 172.583,187 C241.704,149.44 273.436,167.25 349.583,187 C377.429,194.222 405.803,211.738 423.875,224.449 " fill="none" id="_huviz-&gt;uniquer" style="stroke: #000000; stroke-width: 1.0;"/><polygon fill="#000000" points="428.241,227.568,423.2418,219.0823,424.1721,224.6621,418.5923,225.5924,428.241,227.568" style="stroke: #000000; stroke-width: 1.0;"/><!--MD5=[c4773edaa6d8e63a11de9e435cd61aba]
link _indexeddbstoragecontroller to _indexeddbservice--><path d="M345.431,606.962 C356.856,604.627 368.434,602.26 379.431,600.012 " fill="none" id="_indexeddbstoragecontroller-&gt;_indexeddbservice" style="stroke: #000000; stroke-width: 0.5;"/><polygon fill="#000000" points="384.44,598.988,374.8212,596.8717,379.5413,599.9895,376.4235,604.7096,384.44,598.988" style="stroke: #000000; stroke-width: 0.5;"/><!--MD5=[a2ca38879bb953ea5390095996b88ddb]
link _node to uniquer--><path d="M285.746,216.399 C316.89,220.873 371.896,228.774 407.918,233.949 " fill="none" id="_node-&gt;uniquer" style="stroke: #000000; stroke-width: 0.5;"/><polygon fill="#000000" points="413.09,234.692,404.7506,229.4523,408.1409,233.9807,403.6125,237.371,413.09,234.692" style="stroke: #000000; stroke-width: 0.5;"/><!--MD5=[a2f550a9ef4c63f37cf9f4261de5c587]
link _predicate to sortedset--><path d="M297.637,373.101 C313.966,377.123 333.279,382.982 349.583,391 C365.007,398.585 401.322,426.642 423.884,444.558 " fill="none" id="_predicate-&gt;sortedset" style="stroke: #000000; stroke-width: 0.5;"/><polygon fill="#000000" points="427.929,447.778,423.3781,439.0436,424.0169,444.6643,418.3962,445.303,427.929,447.778" style="stroke: #000000; stroke-width: 0.5;"/><!--MD5=[248000c19addd84d3bd8fd9a624f4569]
link _predicate to _treectrl--><path d="M297.843,370.544 C329.982,374.628 376.875,380.587 408.612,384.62 " fill="none" id="_predicate-&gt;_treectrl" style="stroke: #000000; stroke-width: 0.5;"/><polygon fill="#000000" points="413.962,385.299,405.5377,380.1968,409.0019,384.669,404.5297,388.1331,413.962,385.299" style="stroke: #000000; stroke-width: 0.5;"/><!--MD5=[28310eee2fca0e95a76e2266f3caba5f]
link _predicate to uniquer--><path d="M297.962,359.888 C314.544,355.957 333.973,349.708 349.583,340 C385.346,317.758 416.184,278.268 431.927,255.823 " fill="none" id="_predicate-&gt;uniquer" style="stroke: #000000; stroke-width: 0.5;"/><polygon fill="#000000" points="434.871,251.571,426.4579,256.6915,432.0238,255.6811,433.0341,261.247,434.871,251.571" style="stroke: #000000; stroke-width: 0.5;"/><!--MD5=[98be6845be905518450252ae93d07b4f]
link _settings to _settingswidgets--><path d="M121.847,355.685 C137.188,350.834 155.803,345.024 172.583,340 C181.734,337.26 191.443,334.42 200.936,331.679 " fill="none" id="_settings-&gt;_settingswidgets" style="stroke: #000000; stroke-width: 0.5;"/><polygon fill="#000000" points="205.877,330.257,196.1217,328.9025,201.0721,331.64,198.3346,336.5904,205.877,330.257" style="stroke: #000000; stroke-width: 0.5;"/><!--MD5=[151ebb7b97156e44f60a81716f179c47]
link _settingswidgets to uniquer--><path d="M316.356,300.735 C327.491,297.292 339.03,293.337 349.583,289 C374.854,278.614 402.251,263.464 420.814,252.566 " fill="none" id="_settingswidgets-&gt;uniquer" style="stroke: #000000; stroke-width: 0.5;"/><polygon fill="#000000" points="425.336,249.892,415.5529,251.0283,421.0317,252.4363,419.6237,257.9151,425.336,249.892" style="stroke: #000000; stroke-width: 0.5;"/><!--MD5=[fc90fe1503a3a89654081b9607cd7cce]
link _taxon to angliciser--><path d="M287.445,431.41 C311.911,445.032 350.194,465.619 384.583,481 C392.941,484.738 402.144,488.402 410.727,491.634 " fill="none" id="_taxon-&gt;angliciser" style="stroke: #000000; stroke-width: 0.5;"/><polygon fill="#000000" points="415.423,493.383,408.3858,486.4926,410.7376,491.6374,405.5928,493.9892,415.423,493.383" style="stroke: #000000; stroke-width: 0.5;"/><!--MD5=[0aee645be1bce300269f0d1fecc89b9b]
link _taxon to sortedset--><path d="M287.251,422.979 C317.803,430.237 369.627,442.549 405.057,450.966 " fill="none" id="_taxon-&gt;sortedset" style="stroke: #000000; stroke-width: 0.5;"/><polygon fill="#000000" points="410.161,452.179,402.329,446.2074,405.2963,451.0235,400.4802,453.9909,410.161,452.179" style="stroke: #000000; stroke-width: 0.5;"/><!--MD5=[85533fe774a186ff7ac61a8548acf24f]
link _taxon to _treectrl--><path d="M287.251,413.107 C318.914,408.209 373.424,399.776 408.855,394.295 " fill="none" id="_taxon-&gt;_treectrl" style="stroke: #000000; stroke-width: 0.5;"/><polygon fill="#000000" points="413.94,393.508,404.4344,390.9307,408.9988,394.2723,405.6572,398.8367,413.94,393.508" style="stroke: #000000; stroke-width: 0.5;"/><!--MD5=[d6a3172dff1eddc9799eb40c22a3dc34]
link <b>gvcl</b> to <b>hsv</b>--><!--MD5=[d5fcc95865112b69530db3bc24e523b9]
link <b>gvcl</b> to _ontoviz--><!--MD5=[f5b7b88db9ca67dfdc2269afca6c2ec9]
link _ontoviz to _socrata--><script type="text/plantuml"><![CDATA[MD5=[4fc5f6b4ef47c0d24ebf873e765e45f4]
@startuml

scale max 1920 width
left to right direction

skinparam nodesep 17
skinparam ranksep 35
skinparam monochrome true
skinparam shadowing false
skinparam defaultFontName Tahoma
skinparam defaultFontSize 12
skinparam roundCorner 6
skinparam dpi 150
skinparam arrowColor black
skinparam arrowThickness 0.5
skinparam packageTitleAlignment left

skinparam usecase {
  borderThickness 0.5
}

skinparam rectangle {
  borderThickness 0.5
}

skinparam component {
  borderThickness 1
}


(angliciser)
rectangle "<b>datasetdb</b>" as _datasetdb
rectangle "dndloader" as _dndloader
rectangle "edge" as _edge
rectangle "editui" as _editui
rectangle "fsm" as _fsm
rectangle "gclui" as _gclui
rectangle "graphcommandlanguage" as _graphcommandlanguage
rectangle "greenerturtle" as _greenerturtle
(<b>gvcl</b>)
(<b>hsv</b>)
rectangle "<b>huviz</b>" as _huviz
rectangle "indexeddbservice" as _indexeddbservice
rectangle "indexeddbstoragecontroller" as _indexeddbstoragecontroller
(multistring)
rectangle "node" as _node
(oncerunner)
rectangle "<b>ontoviz</b>" as _ontoviz
rectangle "predicate" as _predicate
(quadParser)
rectangle "querymanager" as _querymanager
rectangle "settings" as _settings
rectangle "settingswidgets" as _settingswidgets
rectangle "<b>socrata</b>" as _socrata
(sortedset)
rectangle "taxon" as _taxon
rectangle "textcursor" as _textcursor
rectangle "treectrl" as _treectrl
(uniquer)


_datasetdb -[thickness=1]> _dndloader
_datasetdb -[thickness=1]> (uniquer)
_dndloader --> (uniquer)
_editui --> _fsm
_editui --> _indexeddbstoragecontroller
_gclui --> _graphcommandlanguage
_gclui --> _querymanager
_gclui --> (sortedset)
_graphcommandlanguage --> (angliciser)
_graphcommandlanguage --> (sortedset)
_huviz -[thickness=1]> _edge
_huviz -[thickness=1]> _editui
_huviz -[thickness=1]> _gclui
_huviz -[thickness=1]> _graphcommandlanguage
_huviz -[thickness=1]> _greenerturtle
_huviz -[thickness=1]> _indexeddbservice
_huviz -[thickness=1]> _indexeddbstoragecontroller
_huviz -[thickness=1]> (multistring)
_huviz -[thickness=1]> _node
_huviz -[thickness=1]> (oncerunner)
_huviz -[thickness=1]> _predicate
_huviz -[thickness=1]> (quadParser)
_huviz -[thickness=1]> _settings
_huviz -[thickness=1]> _settingswidgets
_huviz -[thickness=1]> (sortedset)
_huviz -[thickness=1]> _taxon
_huviz -[thickness=1]> _textcursor
_huviz -[thickness=1]> (uniquer)
_indexeddbstoragecontroller --> _indexeddbservice
_node --> (uniquer)
_predicate --> (sortedset)
_predicate --> _treectrl
_predicate --> (uniquer)
_settings --> _settingswidgets
_settingswidgets --> (uniquer)
_taxon --> (angliciser)
_taxon --> (sortedset)
_taxon --> _treectrl

@enduml


' View and edit on https://arkit.pro
]]></script></g></svg>