<?xml version="1.0" encoding="UTF-8" standalone="no"?><svg xmlns="http://www.w3.org/2000/svg" xmlns:xlink="http://www.w3.org/1999/xlink" contentScriptType="application/ecmascript" contentStyleType="text/css" height="781px" preserveAspectRatio="none" style="width:618px;height:781px;" version="1.1" viewBox="0 0 618 781" width="618px" zoomAndPan="magnify"><defs/><g><ellipse cx="446.5399" cy="301.242" fill="#F8F8F8" rx="41.8909" ry="13.242" style="stroke: #383838; stroke-width: 0.5;"/><text fill="#000000" font-family="Tahoma, sans-serif" font-size="12" lengthAdjust="spacingAndGlyphs" textLength="55" x="419.0399" y="304.9842">angliciser</text><!--MD5=[c85f6d4caefce92acd9ac3fe1e6380c2]
entity _coloredtreepicker--><rect fill="#F8F8F8" height="34.4844" rx="3" ry="3" style="stroke: #000000; stroke-width: 0.5;" width="120" x="202.649" y="736"/><text fill="#000000" font-family="Tahoma, sans-serif" font-size="12" lengthAdjust="spacingAndGlyphs" textLength="100" x="212.649" y="758.0059">coloredtreepicker</text><!--MD5=[68f424e333f01539f4809daa1e86d0f0]
entity _dndloader--><rect fill="#F8F8F8" height="34.4844" rx="3" ry="3" style="stroke: #000000; stroke-width: 0.5;" width="77" x="50.6494" y="439"/><text fill="#000000" font-family="Tahoma, sans-serif" font-size="12" lengthAdjust="spacingAndGlyphs" textLength="57" x="60.6494" y="461.0059">dndloader</text><!--MD5=[88c490e9164e48e33bb1acceb2aacd6d]
entity _edge--><rect fill="#F8F8F8" height="34.4844" rx="3" ry="3" style="stroke: #000000; stroke-width: 0.5;" width="48" x="65.1494" y="387"/><text fill="#000000" font-family="Tahoma, sans-serif" font-size="12" lengthAdjust="spacingAndGlyphs" textLength="28" x="75.1494" y="409.0059">edge</text><!--MD5=[2e8c035363463292a2a2d5ce12b2c02c]
entity _editui--><rect fill="#F8F8F8" height="34.4844" rx="3" ry="3" style="stroke: #000000; stroke-width: 0.5;" width="51" x="63.6494" y="639"/><text fill="#000000" font-family="Tahoma, sans-serif" font-size="12" lengthAdjust="spacingAndGlyphs" textLength="31" x="73.6494" y="661.0059">editui</text><!--MD5=[85e828cec410b55b18bc9d950a8a5ef8]
entity _fsm--><rect fill="#F8F8F8" height="34.4844" rx="3" ry="3" style="stroke: #000000; stroke-width: 0.5;" width="42" x="241.649" y="594"/><text fill="#000000" font-family="Tahoma, sans-serif" font-size="12" lengthAdjust="spacingAndGlyphs" textLength="22" x="251.649" y="616.0059">fsm</text><!--MD5=[4086444eb55f169405db08ef307d9d70]
entity _gclui--><rect fill="#F8F8F8" height="34.4844" rx="3" ry="3" style="stroke: #000000; stroke-width: 0.5;" width="47" x="65.6494" y="691"/><text fill="#000000" font-family="Tahoma, sans-serif" font-size="12" lengthAdjust="spacingAndGlyphs" textLength="27" x="75.6494" y="713.0059">gclui</text><!--MD5=[995c6bd86ece32814d0ce502d3a43650]
entity _graphcommandlanguage--><rect fill="#F8F8F8" height="34.4844" rx="3" ry="3" style="stroke: #000000; stroke-width: 0.5;" width="162" x="181.649" y="292"/><text fill="#000000" font-family="Tahoma, sans-serif" font-size="12" lengthAdjust="spacingAndGlyphs" textLength="142" x="191.649" y="314.0059">graphcommandlanguage</text><!--MD5=[78e51e3f01a585ec427433fb7dc601b3]
entity _greenerturtle--><rect fill="#F8F8F8" height="34.4844" rx="3" ry="3" style="stroke: #000000; stroke-width: 0.5;" width="92" x="43.1494" y="335"/><text fill="#000000" font-family="Tahoma, sans-serif" font-size="12" lengthAdjust="spacingAndGlyphs" textLength="72" x="53.1494" y="357.0059">greenerturtle</text><ellipse cx="89.2413" cy="25.242" fill="#F8F8F8" rx="22.0919" ry="13.242" style="stroke: #383838; stroke-width: 0.5;"/><text fill="#000000" font-family="Tahoma, sans-serif" font-size="12" font-weight="bold" lengthAdjust="spacingAndGlyphs" textLength="27" x="75.7413" y="28.9842">gvcl</text><ellipse cx="446.5668" cy="753.9342" fill="#F8F8F8" rx="15.4178" ry="12.9342" style="stroke: #383838; stroke-width: 0.5;"/><text fill="#000000" font-family="Tahoma, sans-serif" font-size="12" lengthAdjust="spacingAndGlyphs" textLength="17" x="438.0668" y="757.6764">hsl</text><ellipse cx="88.9129" cy="69.242" fill="#F8F8F8" rx="19.2635" ry="13.242" style="stroke: #383838; stroke-width: 0.5;"/><text fill="#000000" font-family="Tahoma, sans-serif" font-size="12" font-weight="bold" lengthAdjust="spacingAndGlyphs" textLength="23" x="77.4129" y="72.9842">hsv</text><!--MD5=[c17c2e27dcac3cee95af133266e055c4]
entity _huviz--><rect fill="#F8F8F8" height="34.4844" rx="3" ry="3" style="stroke: #000000; stroke-width: 0.5;" width="55" x="61.6494" y="195"/><text fill="#000000" font-family="Tahoma, sans-serif" font-size="12" font-weight="bold" lengthAdjust="spacingAndGlyphs" textLength="35" x="71.6494" y="217.0059">huviz</text><!--MD5=[0ec5cfff40ac86c6e424ea8c83617c61]
entity _indexeddbservice--><rect fill="#F8F8F8" height="34.4844" rx="3" ry="3" style="stroke: #000000; stroke-width: 0.5;" width="119" x="387.149" y="384"/><text fill="#000000" font-family="Tahoma, sans-serif" font-size="12" lengthAdjust="spacingAndGlyphs" textLength="99" x="397.149" y="406.0059">indexeddbservice</text><!--MD5=[af43522a83a3894ea69d66d18845e476]
entity _indexeddbstoragecontroller--><rect fill="#F8F8F8" height="34.4844" rx="3" ry="3" style="stroke: #000000; stroke-width: 0.5;" width="177" x="174.149" y="478"/><text fill="#000000" font-family="Tahoma, sans-serif" font-size="12" lengthAdjust="spacingAndGlyphs" textLength="157" x="184.149" y="500.0059">indexeddbstoragecontroller</text><ellipse cx="89.0758" cy="304.242" fill="#F8F8F8" rx="45.4264" ry="13.242" style="stroke: #383838; stroke-width: 0.5;"/><text fill="#000000" font-family="Tahoma, sans-serif" font-size="12" lengthAdjust="spacingAndGlyphs" textLength="60" x="59.0758" y="307.9842">multistring</text><!--MD5=[a1220b791bfdf8d2fcff6a69a8402a50]
entity _node--><rect fill="#F8F8F8" height="34.4844" rx="3" ry="3" style="stroke: #000000; stroke-width: 0.5;" width="49" x="422.149" y="332"/><text fill="#000000" font-family="Tahoma, sans-serif" font-size="12" lengthAdjust="spacingAndGlyphs" textLength="29" x="432.149" y="354.0059">node</text><ellipse cx="89.1113" cy="260.242" fill="#F8F8F8" rx="48.9619" ry="13.242" style="stroke: #383838; stroke-width: 0.5;"/><text fill="#000000" font-family="Tahoma, sans-serif" font-size="12" lengthAdjust="spacingAndGlyphs" textLength="65" x="56.6113" y="263.9842">oncerunner</text><!--MD5=[1acd4c73490d50fea545701d86a6f02a]
entity _ontoviz--><rect fill="#F8F8F8" height="34.4844" rx="3" ry="3" style="stroke: #000000; stroke-width: 0.5;" width="70" x="227.649" y="8"/><text fill="#000000" font-family="Tahoma, sans-serif" font-size="12" font-weight="bold" lengthAdjust="spacingAndGlyphs" textLength="50" x="237.649" y="30.0059">ontoviz</text><!--MD5=[8bd7f295a0ce07e47a21f34eba561762]
entity _predicate--><rect fill="#F8F8F8" height="34.4844" rx="3" ry="3" style="stroke: #000000; stroke-width: 0.5;" width="73" x="226.149" y="150"/><text fill="#000000" font-family="Tahoma, sans-serif" font-size="12" lengthAdjust="spacingAndGlyphs" textLength="53" x="236.149" y="172.0059">predicate</text><ellipse cx="88.9042" cy="556.242" fill="#F8F8F8" rx="48.2548" ry="13.242" style="stroke: #383838; stroke-width: 0.5;"/><text fill="#000000" font-family="Tahoma, sans-serif" font-size="12" lengthAdjust="spacingAndGlyphs" textLength="64" x="56.9042" y="559.9842">quadParser</text><!--MD5=[bdeb9b27363b218ec700e114faa1f575]
entity _querymanager--><rect fill="#F8F8F8" height="34.4844" rx="3" ry="3" style="stroke: #000000; stroke-width: 0.5;" width="101" x="212.149" y="646"/><text fill="#000000" font-family="Tahoma, sans-serif" font-size="12" lengthAdjust="spacingAndGlyphs" textLength="81" x="222.149" y="668.0059">querymanager</text><!--MD5=[df354d2524069015f910758bbbe80e8a]
entity _settings--><rect fill="#F8F8F8" height="34.4844" rx="3" ry="3" style="stroke: #000000; stroke-width: 0.5;" width="66" x="56.1494" y="587"/><text fill="#000000" font-family="Tahoma, sans-serif" font-size="12" lengthAdjust="spacingAndGlyphs" textLength="46" x="66.1494" y="609.0059">settings</text><!--MD5=[698519afe8ef840e9874c8356e39c7e3]
entity _settingswidgets--><rect fill="#F8F8F8" height="34.4844" rx="3" ry="3" style="stroke: #000000; stroke-width: 0.5;" width="110" x="207.649" y="426"/><text fill="#000000" font-family="Tahoma, sans-serif" font-size="12" lengthAdjust="spacingAndGlyphs" textLength="90" x="217.649" y="448.0059">settingswidgets</text><!--MD5=[b2685753d20aee33b1198430d4ca6153]
entity _socrata--><rect fill="#F8F8F8" height="34.4844" rx="3" ry="3" style="stroke: #000000; stroke-width: 0.5;" width="71" x="227.149" y="60"/><text fill="#000000" font-family="Tahoma, sans-serif" font-size="12" font-weight="bold" lengthAdjust="spacingAndGlyphs" textLength="51" x="237.149" y="82.0059">socrata</text><ellipse cx="446.5399" cy="257.242" fill="#F8F8F8" rx="41.8909" ry="13.242" style="stroke: #383838; stroke-width: 0.5;"/><text fill="#000000" font-family="Tahoma, sans-serif" font-size="12" lengthAdjust="spacingAndGlyphs" textLength="55" x="419.0399" y="260.9842">sortedset</text><!--MD5=[319f27bc800d444a751a01b2683199e4]
entity _taxon--><rect fill="#F8F8F8" height="34.4844" rx="3" ry="3" style="stroke: #000000; stroke-width: 0.5;" width="52" x="236.649" y="240"/><text fill="#000000" font-family="Tahoma, sans-serif" font-size="12" lengthAdjust="spacingAndGlyphs" textLength="32" x="246.649" y="262.0059">taxon</text><!--MD5=[90aed9b54c4f2d78720c94aa7e57e608]
entity _textcursor--><rect fill="#F8F8F8" height="34.4844" rx="3" ry="3" style="stroke: #000000; stroke-width: 0.5;" width="78" x="50.1494" y="491"/><text fill="#000000" font-family="Tahoma, sans-serif" font-size="12" lengthAdjust="spacingAndGlyphs" textLength="58" x="60.1494" y="513.0059">textcursor</text><!--MD5=[ceba8e24a112afc51c5fe49531598f36]
entity _treectrl--><rect fill="#F8F8F8" height="34.4844" rx="3" ry="3" style="stroke: #000000; stroke-width: 0.5;" width="60" x="416.649" y="192"/><text fill="#000000" font-family="Tahoma, sans-serif" font-size="12" lengthAdjust="spacingAndGlyphs" textLength="40" x="426.649" y="214.0059">treectrl</text><!--MD5=[c4d596e948cbed671d412ad21a22ac4a]
entity _treepicker--><rect fill="#F8F8F8" height="34.4844" rx="3" ry="3" style="stroke: #000000; stroke-width: 0.5;" width="76" x="408.649" y="689"/><text fill="#000000" font-family="Tahoma, sans-serif" font-size="12" lengthAdjust="spacingAndGlyphs" textLength="56" x="418.649" y="711.0059">treepicker</text><ellipse cx="574.8475" cy="349.242" fill="#F8F8F8" rx="32.6985" ry="13.242" style="stroke: #383838; stroke-width: 0.5;"/><text fill="#000000" font-family="Tahoma, sans-serif" font-size="12" lengthAdjust="spacingAndGlyphs" textLength="42" x="553.8475" y="352.9842">uniquer</text><!--MD5=[5cd249406984a5cc838d707d05280374]
link _coloredtreepicker to hsl--><path d="M322.74,753.3247 C358.25,753.5198 401.184,753.7557 425.764,753.8907 " fill="none" id="_coloredtreepicker-&gt;hsl" style="stroke: #000000; stroke-width: 0.5;"/><polygon fill="#000000" points="431.015,753.9196,422.0368,749.8708,426.0151,753.8925,421.9934,757.8707,431.015,753.9196" style="stroke: #000000; stroke-width: 0.5;"/><!--MD5=[aa63334a7eb54a4d8e25fa7ab8740525]
link _coloredtreepicker to _treepicker--><path d="M322.74,737.7404 C349.097,730.9339 379.544,723.0713 403.54,716.8745 " fill="none" id="_coloredtreepicker-&gt;_treepicker" style="stroke: #000000; stroke-width: 0.5;"/><polygon fill="#000000" points="408.558,715.5784,398.8438,713.9555,403.7168,716.8284,400.8438,721.7014,408.558,715.5784" style="stroke: #000000; stroke-width: 0.5;"/><!--MD5=[a30baaf1f5525220c49869b40c8172a6]
link _editui to _fsm--><path d="M114.721,649.553 C147.074,641.063 203.672,626.213 236.373,617.632 " fill="none" id="_editui-&gt;_fsm" style="stroke: #000000; stroke-width: 0.5;"/><polygon fill="#000000" points="241.408,616.311,231.6877,614.7249,236.5716,617.5794,233.7171,622.4633,241.408,616.311" style="stroke: #000000; stroke-width: 0.5;"/><!--MD5=[7a5d0419302720763152f26417e90ab3]
link _editui to _indexeddbstoragecontroller--><path d="M114.781,645.064 C122.673,640.95 131.169,635.835 138.149,630 C157.801,613.574 157.203,604.204 174.149,585 C195.732,560.542 221.989,533.918 240.076,516.021 " fill="none" id="_editui-&gt;_indexeddbstoragecontroller" style="stroke: #000000; stroke-width: 0.5;"/><polygon fill="#000000" points="244.034,512.115,234.8189,515.591,240.4757,515.6276,240.4391,521.2843,244.034,512.115" style="stroke: #000000; stroke-width: 0.5;"/><!--MD5=[f941d9f8ed439ca0b18e22352ae94bbf]
link _gclui to _coloredtreepicker--><path d="M112.923,713.9757 C134.456,719.6258 167.798,728.3743 197.459,736.1571 " fill="none" id="_gclui-&gt;_coloredtreepicker" style="stroke: #000000; stroke-width: 0.5;"/><polygon fill="#000000" points="202.567,737.4973,194.8781,731.3426,197.731,736.2274,192.8462,739.0802,202.567,737.4973" style="stroke: #000000; stroke-width: 0.5;"/><!--MD5=[87b71bbd7c7e51674aee4d8d213c4dfd]
link _gclui to _graphcommandlanguage--><path d="M112.898,700.8641 C122.173,696.8005 132.115,690.7324 138.149,682 C205.723,584.217 126.992,526.104 174.149,417 C189.111,382.384 218.412,349.785 238.971,329.64 " fill="none" id="_gclui-&gt;_graphcommandlanguage" style="stroke: #000000; stroke-width: 0.5;"/><polygon fill="#000000" points="242.702,326.025,233.4544,329.4134,239.1105,329.5037,239.0202,335.1598,242.702,326.025" style="stroke: #000000; stroke-width: 0.5;"/><!--MD5=[94edbdfe38f378104ff793902e80a452]
link _gclui to _querymanager--><path d="M112.923,702.0243 C136.794,695.7608 175.176,685.6897 206.969,677.3475 " fill="none" id="_gclui-&gt;_querymanager" style="stroke: #000000; stroke-width: 0.5;"/><polygon fill="#000000" points="212.012,676.0244,202.2916,674.4388,207.1756,677.293,204.3214,682.177,212.012,676.0244" style="stroke: #000000; stroke-width: 0.5;"/><!--MD5=[71af8658dd215183f4594b4f0638118a]
link _gclui to _treepicker--><path d="M112.657,707.8734 C170.936,707.5455 327.492,706.6647 403.327,706.2381 " fill="none" id="_gclui-&gt;_treepicker" style="stroke: #000000; stroke-width: 0.5;"/><polygon fill="#000000" points="408.645,706.2082,399.6223,702.2597,403.6451,706.2368,399.668,710.2596,408.645,706.2082" style="stroke: #000000; stroke-width: 0.5;"/><!--MD5=[180e44a801c72b313cfac1c6dee1f477]
link _graphcommandlanguage to angliciser--><path d="M343.742,305.479 C362.929,304.636 382.772,303.764 399.793,303.016 " fill="none" id="_graphcommandlanguage-&gt;angliciser" style="stroke: #000000; stroke-width: 0.5;"/><polygon fill="#000000" points="404.981,302.788,395.8137,299.1878,399.9858,303.008,396.1657,307.1801,404.981,302.788" style="stroke: #000000; stroke-width: 0.5;"/><!--MD5=[04abc1225e7ffdb108f39a6b72fc8d2f]
link _graphcommandlanguage to sortedset--><path d="M323.243,291.973 C352.108,283.726 385.779,274.106 410.492,267.045 " fill="none" id="_graphcommandlanguage-&gt;sortedset" style="stroke: #000000; stroke-width: 0.5;"/><polygon fill="#000000" points="415.312,265.668,405.5592,264.2959,410.5046,267.0424,407.7582,271.9878,415.312,265.668" style="stroke: #000000; stroke-width: 0.5;"/><!--MD5=[7710c5335812acb0ea2698ca9a3eda09]
link _huviz to _dndloader--><path d="M61.4927,218.969 C47.082,224.158 30.7174,232.857 22.1494,247 C2.1138,280.071 2.1138,387.929 22.1494,421 C27.701,430.164 36.5257,437.042 45.9714,442.161 " fill="none" id="_huviz-&gt;_dndloader" style="stroke: #000000; stroke-width: 1.0;"/><polygon fill="#000000" points="50.6466,444.535,44.4335,436.8932,46.1886,442.2709,40.8109,444.0259,50.6466,444.535" style="stroke: #000000; stroke-width: 1.0;"/><!--MD5=[0a19c39635a92762a7be9d9130041a5d]
link _huviz to _edge--><path d="M61.4927,218.969 C47.082,224.158 30.7174,232.857 22.1494,247 C8.1014,270.188 8.1014,345.812 22.1494,369 C30.3859,382.595 45.8273,391.161 59.8118,396.413 " fill="none" id="_huviz-&gt;_edge" style="stroke: #000000; stroke-width: 1.0;"/><polygon fill="#000000" points="64.882,398.201,57.7246,391.4355,60.1666,396.5381,55.064,398.9801,64.882,398.201" style="stroke: #000000; stroke-width: 1.0;"/><!--MD5=[7c5eb97fb3d0511e7c515fe8c5e2c9a9]
link _huviz to _editui--><path d="M61.4927,218.969 C47.082,224.158 30.7174,232.857 22.1494,247 C0.6169,282.542 0.6169,585.458 22.1494,621 C30.1437,634.196 44.9252,642.653 58.5743,647.941 " fill="none" id="_huviz-&gt;_editui" style="stroke: #000000; stroke-width: 1.0;"/><polygon fill="#000000" points="63.537,649.748,56.4502,642.9086,58.8391,648.0363,53.7115,650.4252,63.537,649.748" style="stroke: #000000; stroke-width: 1.0;"/><!--MD5=[78c92fafc734451d0c4222f6f659630a]
link _huviz to _gclui--><path d="M61.4927,218.969 C47.082,224.158 30.7174,232.857 22.1494,247 C9.8862,267.242 9.8862,652.758 22.1494,673 C30.5804,686.9163 46.5604,695.5625 60.7997,700.7791 " fill="none" id="_huviz-&gt;_gclui" style="stroke: #000000; stroke-width: 1.0;"/><polygon fill="#000000" points="65.5485,702.4194,58.3476,695.7003,60.8225,700.787,55.7357,703.2619,65.5485,702.4194" style="stroke: #000000; stroke-width: 1.0;"/><!--MD5=[45b54291284970458bed53f428aad9bc]
link _huviz to _graphcommandlanguage--><path d="M116.766,223.985 C124.079,227.907 131.75,232.651 138.149,238 C157.801,254.426 152.902,268.698 174.149,283 C177.74,285.417 181.561,287.614 185.521,289.611 " fill="none" id="_huviz-&gt;_graphcommandlanguage" style="stroke: #000000; stroke-width: 1.0;"/><polygon fill="#000000" points="190.229,291.864,183.8378,284.3705,185.719,289.7054,180.3841,291.5866,190.229,291.864" style="stroke: #000000; stroke-width: 1.0;"/><!--MD5=[611afdb953935b80d86a045e5a20c8c3]
link _huviz to _greenerturtle--><path d="M61.4927,218.969 C47.082,224.158 30.7174,232.857 22.1494,247 C6.0288,273.609 6.0288,290.391 22.1494,317 C26.1826,323.657 31.9435,329.109 38.415,333.555 " fill="none" id="_huviz-&gt;_greenerturtle" style="stroke: #000000; stroke-width: 1.0;"/><polygon fill="#000000" points="42.9963,336.476,37.5565,328.2657,38.7798,333.7887,33.2568,335.0121,42.9963,336.476" style="stroke: #000000; stroke-width: 1.0;"/><!--MD5=[b5066780bb50e7eb53d192028117f15c]
link _huviz to _indexeddbservice--><path d="M116.877,221.64 C124.714,225.627 132.647,230.993 138.149,238 C177.03,287.515 126.187,334.219 174.149,375 C204.341,400.671 311.127,403.887 381.434,403.038 " fill="none" id="_huviz-&gt;_indexeddbservice" style="stroke: #000000; stroke-width: 1.0;"/><polygon fill="#000000" points="386.853,402.964,377.7979,399.0904,381.8535,403.034,377.9099,407.0896,386.853,402.964" style="stroke: #000000; stroke-width: 1.0;"/><!--MD5=[b8419d487ca96138f60f566e4a1586cd]
link _huviz to _indexeddbstoragecontroller--><path d="M116.815,221.062 C124.842,225.051 132.904,230.566 138.149,238 C198.055,322.898 105.7697,390.765 174.149,469 C175.883,470.984 177.761,472.819 179.756,474.518 " fill="none" id="_huviz-&gt;_indexeddbstoragecontroller" style="stroke: #000000; stroke-width: 1.0;"/><polygon fill="#000000" points="184.01,477.815,179.3472,469.1398,180.0582,474.7518,174.4462,475.4628,184.01,477.815" style="stroke: #000000; stroke-width: 1.0;"/><!--MD5=[cf2b9d99b2fde8f9ac8fe3818c591fa6]
link _huviz to multistring--><path d="M61.4927,218.969 C47.082,224.158 30.7174,232.857 22.1494,247 C16.1617,256.883 16.0742,263.17 22.1494,273 C28.1094,282.644 37.9496,289.324 48.277,293.938 " fill="none" id="_huviz-&gt;multistring" style="stroke: #000000; stroke-width: 1.0;"/><polygon fill="#000000" points="53.0441,295.915,46.2636,288.7718,48.4257,293.9992,43.1983,296.1613,53.0441,295.915" style="stroke: #000000; stroke-width: 1.0;"/><!--MD5=[576ad3665183860786542bc172304814]
link _huviz to _node--><path d="M116.97,222.233 C124.627,226.206 132.434,231.416 138.149,238 C168.293,272.726 137.087,307.78 174.149,335 C247.3,388.725 363.747,369.637 417.17,356.811 " fill="none" id="_huviz-&gt;_node" style="stroke: #000000; stroke-width: 1.0;"/><polygon fill="#000000" points="422.14,355.592,412.4461,353.8519,417.284,356.7835,414.3525,361.6214,422.14,355.592" style="stroke: #000000; stroke-width: 1.0;"/><!--MD5=[c316f54a23eccd85694cacab9137e8a6]
link _huviz to oncerunner--><path d="M89.1494,229.165 C89.1494,233.316 89.1494,237.467 89.1494,241.617 " fill="none" id="_huviz-&gt;oncerunner" style="stroke: #000000; stroke-width: 1.0;"/><polygon fill="#000000" points="89.1494,246.875,93.1494,237.875,89.1494,241.875,85.1494,237.875,89.1494,246.875" style="stroke: #000000; stroke-width: 1.0;"/><!--MD5=[53eaa73e9beaed2f6e00aaef30b9a17d]
link _huviz to _predicate--><path d="M116.946,204.969 C144.846,197.648 188.885,186.093 221.057,177.651 " fill="none" id="_huviz-&gt;_predicate" style="stroke: #000000; stroke-width: 1.0;"/><polygon fill="#000000" points="226.114,176.324,216.3937,174.7379,221.2776,177.5924,218.4231,182.4763,226.114,176.324" style="stroke: #000000; stroke-width: 1.0;"/><!--MD5=[bc42dcbe4b21fcf3c326d926fe3eabe6]
link _huviz to quadParser--><path d="M61.4927,218.969 C47.082,224.158 30.7174,232.857 22.1494,247 C6.1439,273.419 5.9101,498.724 22.1494,525 C27.9341,534.36 37.3741,540.928 47.3671,545.525 " fill="none" id="_huviz-&gt;quadParser" style="stroke: #000000; stroke-width: 1.0;"/><polygon fill="#000000" points="51.9863,547.501,45.285,540.2834,47.3893,545.5344,42.1384,547.6386,51.9863,547.501" style="stroke: #000000; stroke-width: 1.0;"/><!--MD5=[ef4f53580943ebda46b8452c1e3fea4a]
link _huviz to _settings--><path d="M61.4927,218.969 C47.082,224.158 30.7174,232.857 22.1494,247 C3.6107,277.6 3.6107,538.4 22.1494,569 C28.6944,579.803 39.7889,587.431 51.0867,592.743 " fill="none" id="_huviz-&gt;_settings" style="stroke: #000000; stroke-width: 1.0;"/><polygon fill="#000000" points="55.9283,594.88,49.3102,587.5861,51.3542,592.8608,46.0795,594.9047,55.9283,594.88" style="stroke: #000000; stroke-width: 1.0;"/><!--MD5=[0c21caadf211326c87ff1b7e37a323ba]
link _huviz to _settingswidgets--><path d="M116.832,221.357 C124.762,225.346 132.762,230.787 138.149,238 C184.366,299.876 124.426,348.905 174.149,408 C181.707,416.982 191.902,423.679 202.662,428.666 " fill="none" id="_huviz-&gt;_settingswidgets" style="stroke: #000000; stroke-width: 1.0;"/><polygon fill="#000000" points="207.302,430.7,200.6652,423.4231,202.7227,428.6925,197.4533,430.75,207.302,430.7" style="stroke: #000000; stroke-width: 1.0;"/><!--MD5=[4082761b21fcdf8c267ea3a997d893eb]
link _huviz to sortedset--><path d="M116.659,212.222 C164.056,212.996 266.304,216.385 351.149,231 C371.689,234.538 394.207,240.642 412.108,246.047 " fill="none" id="_huviz-&gt;sortedset" style="stroke: #000000; stroke-width: 1.0;"/><polygon fill="#000000" points="417.029,247.551,409.5895,241.097,412.247,246.0908,407.2532,248.7483,417.029,247.551" style="stroke: #000000; stroke-width: 1.0;"/><!--MD5=[19bae500a9ad4dd5ac0c01e4595e6366]
link _huviz to _taxon--><path d="M116.946,219.031 C147.976,227.173 198.969,240.553 231.397,249.062 " fill="none" id="_huviz-&gt;_taxon" style="stroke: #000000; stroke-width: 1.0;"/><polygon fill="#000000" points="236.436,250.384,228.7456,244.2312,231.5996,249.1153,226.7156,251.9694,236.436,250.384" style="stroke: #000000; stroke-width: 1.0;"/><!--MD5=[f06c90f6ce968f3d0df0990a2e51a62b]
link _huviz to _textcursor--><path d="M61.4927,218.969 C47.082,224.158 30.7174,232.857 22.1494,247 C9.1378,268.477 9.1378,451.523 22.1494,473 C27.5841,481.971 36.1556,488.751 45.3757,493.835 " fill="none" id="_huviz-&gt;_textcursor" style="stroke: #000000; stroke-width: 1.0;"/><polygon fill="#000000" points="49.9431,496.197,43.7857,488.5103,45.5017,493.9006,40.1114,495.6166,49.9431,496.197" style="stroke: #000000; stroke-width: 1.0;"/><!--MD5=[3a6f22ad93df00ce9fd9dc9592f22562]
link _huviz to uniquer--><path d="M103.78,194.933 C118.859,177.557 144.921,151.698 174.149,141 C243.478,115.626 447.746,107.841 506.149,153 C562.729,196.748 572.141,290.685 573.521,330.528 " fill="none" id="_huviz-&gt;uniquer" style="stroke: #000000; stroke-width: 1.0;"/><polygon fill="#000000" points="573.671,336.001,577.4227,326.8947,573.5339,331.0029,569.4257,327.1141,573.671,336.001" style="stroke: #000000; stroke-width: 1.0;"/><!--MD5=[c4773edaa6d8e63a11de9e435cd61aba]
link _indexeddbstoragecontroller to _indexeddbservice--><path d="M330.015,477.87 C337.283,475.235 344.463,472.282 351.149,469 C377.127,456.249 403.605,436.492 421.899,421.553 " fill="none" id="_indexeddbstoragecontroller-&gt;_indexeddbservice" style="stroke: #000000; stroke-width: 0.5;"/><polygon fill="#000000" points="425.906,418.251,416.4168,420.8881,422.0475,421.4309,421.5047,427.0617,425.906,418.251" style="stroke: #000000; stroke-width: 0.5;"/><!--MD5=[a2ca38879bb953ea5390095996b88ddb]
link _node to uniquer--><path d="M471.349,349 C489.75,349 515.599,349 536.709,349 " fill="none" id="_node-&gt;uniquer" style="stroke: #000000; stroke-width: 0.5;"/><polygon fill="#000000" points="541.966,349,532.966,345,536.966,349,532.966,353,541.966,349" style="stroke: #000000; stroke-width: 0.5;"/><!--MD5=[a2f550a9ef4c63f37cf9f4261de5c587]
link _predicate to sortedset--><path d="M299.41,175.625 C315.967,180.605 335.408,187.915 351.149,198 C370.468,210.377 367.95,222.438 387.149,235 C394.142,239.576 402.222,243.389 410.102,246.485 " fill="none" id="_predicate-&gt;sortedset" style="stroke: #000000; stroke-width: 0.5;"/><polygon fill="#000000" points="414.971,248.321,407.9612,241.4027,410.2926,246.5568,405.1385,248.8881,414.971,248.321" style="stroke: #000000; stroke-width: 0.5;"/><!--MD5=[248000c19addd84d3bd8fd9a624f4569]
link _predicate to _treectrl--><path d="M299.173,175.198 C331.675,182.698 379.446,193.722 411.507,201.121 " fill="none" id="_predicate-&gt;_treectrl" style="stroke: #000000; stroke-width: 0.5;"/><polygon fill="#000000" points="416.513,202.276,408.643,196.3545,411.6411,201.1516,406.844,204.1496,416.513,202.276" style="stroke: #000000; stroke-width: 0.5;"/><!--MD5=[28310eee2fca0e95a76e2266f3caba5f]
link _predicate to uniquer--><path d="M299.221,158.557 C350.225,148.641 444.742,138.673 506.149,183 C554.996,218.26 568.567,295.156 572.28,330.526 " fill="none" id="_predicate-&gt;uniquer" style="stroke: #000000; stroke-width: 0.5;"/><polygon fill="#000000" points="572.795,335.833,575.9046,326.4879,572.3108,330.8565,567.9422,327.2627,572.795,335.833" style="stroke: #000000; stroke-width: 0.5;"/><!--MD5=[98be6845be905518450252ae93d07b4f]
link _settings to _settingswidgets--><path d="M122.604,590.827 C128.375,587.338 133.892,583.088 138.149,578 C170.887,538.87 137.534,504.527 174.149,469 C182.04,461.344 192.08,455.928 202.524,452.101 " fill="none" id="_settings-&gt;_settingswidgets" style="stroke: #000000; stroke-width: 0.5;"/><polygon fill="#000000" points="207.345,450.451,197.5347,449.5803,202.6143,452.0698,200.1248,457.1494,207.345,450.451" style="stroke: #000000; stroke-width: 0.5;"/><!--MD5=[151ebb7b97156e44f60a81716f179c47]
link _settingswidgets to uniquer--><path d="M317.79,450.91 C369.071,455.839 446.842,456.506 506.149,427 C532.755,413.763 553.23,384.914 564.343,366.254 " fill="none" id="_settingswidgets-&gt;uniquer" style="stroke: #000000; stroke-width: 0.5;"/><polygon fill="#000000" points="566.965,361.745,558.9838,367.5157,564.4522,366.0677,565.9002,371.5361,566.965,361.745" style="stroke: #000000; stroke-width: 0.5;"/><!--MD5=[fc90fe1503a3a89654081b9607cd7cce]
link _taxon to angliciser--><path d="M288.956,263.118 C319.77,270.568 372.103,283.22 407.737,291.834 " fill="none" id="_taxon-&gt;angliciser" style="stroke: #000000; stroke-width: 0.5;"/><polygon fill="#000000" points="412.868,293.075,405.0609,287.0709,408.0082,291.8993,403.1798,294.8466,412.868,293.075" style="stroke: #000000; stroke-width: 0.5;"/><!--MD5=[0aee645be1bce300269f0d1fecc89b9b]
link _taxon to sortedset--><path d="M288.956,257 C317.443,257 364.321,257 399.393,257 " fill="none" id="_taxon-&gt;sortedset" style="stroke: #000000; stroke-width: 0.5;"/><polygon fill="#000000" points="404.479,257,395.479,253,399.479,257,395.479,261,404.479,257" style="stroke: #000000; stroke-width: 0.5;"/><!--MD5=[85533fe774a186ff7ac61a8548acf24f]
link _taxon to _treectrl--><path d="M288.956,250.326 C320.794,241.929 375.605,227.473 411.232,218.077 " fill="none" id="_taxon-&gt;_treectrl" style="stroke: #000000; stroke-width: 0.5;"/><polygon fill="#000000" points="416.345,216.729,406.6227,215.1551,411.5101,218.0034,408.6618,222.8909,416.345,216.729" style="stroke: #000000; stroke-width: 0.5;"/><!--MD5=[2ff73aa3b99096fa975781b07659832c]
link _treepicker to uniquer--><path d="M453.727,688.7811 C474.956,628.631 545.692,428.214 567.315,366.947 " fill="none" id="_treepicker-&gt;uniquer" style="stroke: #000000; stroke-width: 0.5;"/><polygon fill="#000000" points="569.02,362.116,562.2521,369.2711,567.3555,366.8308,569.7958,371.9343,569.02,362.116" style="stroke: #000000; stroke-width: 0.5;"/><!--MD5=[d6a3172dff1eddc9799eb40c22a3dc34]
link <b>gvcl</b> to <b>hsv</b>--><!--MD5=[d5fcc95865112b69530db3bc24e523b9]
link <b>gvcl</b> to _ontoviz--><!--MD5=[f5b7b88db9ca67dfdc2269afca6c2ec9]
link _ontoviz to _socrata--><script type="text/plantuml"><![CDATA[MD5=[03b3245af10702b0cce76531803c00fb]
@startuml

scale max 1920 width
left to right direction

skinparam nodesep 18
skinparam ranksep 36
skinparam monochrome true
skinparam shadowing false
skinparam defaultFontName Tahoma
skinparam defaultFontSize 12
skinparam roundCorner 6
skinparam dpi 150
skinparam arrowColor black
skinparam arrowThickness 0.5
skinparam packageTitleAlignment left

skinparam usecase {
  borderThickness 0.5
}

skinparam rectangle {
  borderThickness 0.5
}

skinparam component {
  borderThickness 1
}


(angliciser)
rectangle "coloredtreepicker" as _coloredtreepicker
rectangle "dndloader" as _dndloader
rectangle "edge" as _edge
rectangle "editui" as _editui
rectangle "fsm" as _fsm
rectangle "gclui" as _gclui
rectangle "graphcommandlanguage" as _graphcommandlanguage
rectangle "greenerturtle" as _greenerturtle
(<b>gvcl</b>)
(hsl)
(<b>hsv</b>)
rectangle "<b>huviz</b>" as _huviz
rectangle "indexeddbservice" as _indexeddbservice
rectangle "indexeddbstoragecontroller" as _indexeddbstoragecontroller
(multistring)
rectangle "node" as _node
(oncerunner)
rectangle "<b>ontoviz</b>" as _ontoviz
rectangle "predicate" as _predicate
(quadParser)
rectangle "querymanager" as _querymanager
rectangle "settings" as _settings
rectangle "settingswidgets" as _settingswidgets
rectangle "<b>socrata</b>" as _socrata
(sortedset)
rectangle "taxon" as _taxon
rectangle "textcursor" as _textcursor
rectangle "treectrl" as _treectrl
rectangle "treepicker" as _treepicker
(uniquer)


_coloredtreepicker --> (hsl)
_coloredtreepicker --> _treepicker
_editui --> _fsm
_editui --> _indexeddbstoragecontroller
_gclui --> _coloredtreepicker
_gclui --> _graphcommandlanguage
_gclui --> _querymanager
_gclui --> _treepicker
_graphcommandlanguage --> (angliciser)
_graphcommandlanguage --> (sortedset)
_huviz -[thickness=1]> _dndloader
_huviz -[thickness=1]> _edge
_huviz -[thickness=1]> _editui
_huviz -[thickness=1]> _gclui
_huviz -[thickness=1]> _graphcommandlanguage
_huviz -[thickness=1]> _greenerturtle
_huviz -[thickness=1]> _indexeddbservice
_huviz -[thickness=1]> _indexeddbstoragecontroller
_huviz -[thickness=1]> (multistring)
_huviz -[thickness=1]> _node
_huviz -[thickness=1]> (oncerunner)
_huviz -[thickness=1]> _predicate
_huviz -[thickness=1]> (quadParser)
_huviz -[thickness=1]> _settings
_huviz -[thickness=1]> _settingswidgets
_huviz -[thickness=1]> (sortedset)
_huviz -[thickness=1]> _taxon
_huviz -[thickness=1]> _textcursor
_huviz -[thickness=1]> (uniquer)
_indexeddbstoragecontroller --> _indexeddbservice
_node --> (uniquer)
_predicate --> (sortedset)
_predicate --> _treectrl
_predicate --> (uniquer)
_settings --> _settingswidgets
_settingswidgets --> (uniquer)
_taxon --> (angliciser)
_taxon --> (sortedset)
_taxon --> _treectrl
_treepicker --> (uniquer)

@enduml


' View and edit on https://arkit.pro
]]></script></g></svg>