<?xml version="1.0" encoding="UTF-8" standalone="no"?><svg xmlns="http://www.w3.org/2000/svg" xmlns:xlink="http://www.w3.org/1999/xlink" contentScriptType="application/ecmascript" contentStyleType="text/css" height="777px" preserveAspectRatio="none" style="width:618px;height:777px;" version="1.1" viewBox="0 0 618 777" width="618px" zoomAndPan="magnify"><defs/><g><ellipse cx="446.5399" cy="301.242" fill="#F8F8F8" rx="41.8909" ry="13.242" style="stroke: #383838; stroke-width: 0.5;"/><text fill="#000000" font-family="Tahoma, sans-serif" font-size="12" lengthAdjust="spacingAndGlyphs" textLength="55" x="419.0399" y="304.9842">angliciser</text><!--MD5=[c85f6d4caefce92acd9ac3fe1e6380c2]
entity _coloredtreepicker--><rect fill="#F8F8F8" height="34.4844" rx="3" ry="3" style="stroke: #000000; stroke-width: 0.5;" width="120" x="202.649" y="732"/><text fill="#000000" font-family="Tahoma, sans-serif" font-size="12" lengthAdjust="spacingAndGlyphs" textLength="100" x="212.649" y="754.0059">coloredtreepicker</text><!--MD5=[68f424e333f01539f4809daa1e86d0f0]
entity _dndloader--><rect fill="#F8F8F8" height="34.4844" rx="3" ry="3" style="stroke: #000000; stroke-width: 0.5;" width="77" x="50.6494" y="435"/><text fill="#000000" font-family="Tahoma, sans-serif" font-size="12" lengthAdjust="spacingAndGlyphs" textLength="57" x="60.6494" y="457.0059">dndloader</text><!--MD5=[88c490e9164e48e33bb1acceb2aacd6d]
entity _edge--><rect fill="#F8F8F8" height="34.4844" rx="3" ry="3" style="stroke: #000000; stroke-width: 0.5;" width="48" x="65.1494" y="383"/><text fill="#000000" font-family="Tahoma, sans-serif" font-size="12" lengthAdjust="spacingAndGlyphs" textLength="28" x="75.1494" y="405.0059">edge</text><!--MD5=[2e8c035363463292a2a2d5ce12b2c02c]
entity _editui--><rect fill="#F8F8F8" height="34.4844" rx="3" ry="3" style="stroke: #000000; stroke-width: 0.5;" width="51" x="63.6494" y="635"/><text fill="#000000" font-family="Tahoma, sans-serif" font-size="12" lengthAdjust="spacingAndGlyphs" textLength="31" x="73.6494" y="657.0059">editui</text><!--MD5=[85e828cec410b55b18bc9d950a8a5ef8]
entity _fsm--><rect fill="#F8F8F8" height="34.4844" rx="3" ry="3" style="stroke: #000000; stroke-width: 0.5;" width="42" x="241.649" y="590"/><text fill="#000000" font-family="Tahoma, sans-serif" font-size="12" lengthAdjust="spacingAndGlyphs" textLength="22" x="251.649" y="612.0059">fsm</text><!--MD5=[4086444eb55f169405db08ef307d9d70]
entity _gclui--><rect fill="#F8F8F8" height="34.4844" rx="3" ry="3" style="stroke: #000000; stroke-width: 0.5;" width="47" x="65.6494" y="687"/><text fill="#000000" font-family="Tahoma, sans-serif" font-size="12" lengthAdjust="spacingAndGlyphs" textLength="27" x="75.6494" y="709.0059">gclui</text><!--MD5=[995c6bd86ece32814d0ce502d3a43650]
entity _graphcommandlanguage--><rect fill="#F8F8F8" height="34.4844" rx="3" ry="3" style="stroke: #000000; stroke-width: 0.5;" width="162" x="181.649" y="288"/><text fill="#000000" font-family="Tahoma, sans-serif" font-size="12" lengthAdjust="spacingAndGlyphs" textLength="142" x="191.649" y="310.0059">graphcommandlanguage</text><!--MD5=[78e51e3f01a585ec427433fb7dc601b3]
entity _greenerturtle--><rect fill="#F8F8F8" height="34.4844" rx="3" ry="3" style="stroke: #000000; stroke-width: 0.5;" width="92" x="43.1494" y="331"/><text fill="#000000" font-family="Tahoma, sans-serif" font-size="12" lengthAdjust="spacingAndGlyphs" textLength="72" x="53.1494" y="353.0059">greenerturtle</text><ellipse cx="89.2413" cy="23.242" fill="#F8F8F8" rx="22.0919" ry="13.242" style="stroke: #383838; stroke-width: 0.5;"/><text fill="#000000" font-family="Tahoma, sans-serif" font-size="12" font-weight="bold" lengthAdjust="spacingAndGlyphs" textLength="27" x="75.7413" y="26.9842">gvcl</text><ellipse cx="446.5668" cy="749.9342" fill="#F8F8F8" rx="15.4178" ry="12.9342" style="stroke: #383838; stroke-width: 0.5;"/><text fill="#000000" font-family="Tahoma, sans-serif" font-size="12" lengthAdjust="spacingAndGlyphs" textLength="17" x="438.0668" y="753.6764">hsl</text><ellipse cx="88.9129" cy="67.242" fill="#F8F8F8" rx="19.2635" ry="13.242" style="stroke: #383838; stroke-width: 0.5;"/><text fill="#000000" font-family="Tahoma, sans-serif" font-size="12" font-weight="bold" lengthAdjust="spacingAndGlyphs" textLength="23" x="77.4129" y="70.9842">hsv</text><!--MD5=[c17c2e27dcac3cee95af133266e055c4]
entity _huviz--><rect fill="#F8F8F8" height="34.4844" rx="3" ry="3" style="stroke: #000000; stroke-width: 0.5;" width="55" x="61.6494" y="191"/><text fill="#000000" font-family="Tahoma, sans-serif" font-size="12" font-weight="bold" lengthAdjust="spacingAndGlyphs" textLength="35" x="71.6494" y="213.0059">huviz</text><!--MD5=[0ec5cfff40ac86c6e424ea8c83617c61]
entity _indexeddbservice--><rect fill="#F8F8F8" height="34.4844" rx="3" ry="3" style="stroke: #000000; stroke-width: 0.5;" width="119" x="387.149" y="384"/><text fill="#000000" font-family="Tahoma, sans-serif" font-size="12" lengthAdjust="spacingAndGlyphs" textLength="99" x="397.149" y="406.0059">indexeddbservice</text><!--MD5=[af43522a83a3894ea69d66d18845e476]
entity _indexeddbstoragecontroller--><rect fill="#F8F8F8" height="34.4844" rx="3" ry="3" style="stroke: #000000; stroke-width: 0.5;" width="177" x="174.149" y="477"/><text fill="#000000" font-family="Tahoma, sans-serif" font-size="12" lengthAdjust="spacingAndGlyphs" textLength="157" x="184.149" y="499.0059">indexeddbstoragecontroller</text><ellipse cx="89.0758" cy="300.242" fill="#F8F8F8" rx="45.4264" ry="13.242" style="stroke: #383838; stroke-width: 0.5;"/><text fill="#000000" font-family="Tahoma, sans-serif" font-size="12" lengthAdjust="spacingAndGlyphs" textLength="60" x="59.0758" y="303.9842">multistring</text><!--MD5=[a1220b791bfdf8d2fcff6a69a8402a50]
entity _node--><rect fill="#F8F8F8" height="34.4844" rx="3" ry="3" style="stroke: #000000; stroke-width: 0.5;" width="49" x="422.149" y="332"/><text fill="#000000" font-family="Tahoma, sans-serif" font-size="12" lengthAdjust="spacingAndGlyphs" textLength="29" x="432.149" y="354.0059">node</text><ellipse cx="89.1113" cy="256.242" fill="#F8F8F8" rx="48.9619" ry="13.242" style="stroke: #383838; stroke-width: 0.5;"/><text fill="#000000" font-family="Tahoma, sans-serif" font-size="12" lengthAdjust="spacingAndGlyphs" textLength="65" x="56.6113" y="259.9842">oncerunner</text><!--MD5=[1acd4c73490d50fea545701d86a6f02a]
entity _ontoviz--><rect fill="#F8F8F8" height="34.4844" rx="3" ry="3" style="stroke: #000000; stroke-width: 0.5;" width="70" x="54.1494" y="98"/><text fill="#000000" font-family="Tahoma, sans-serif" font-size="12" font-weight="bold" lengthAdjust="spacingAndGlyphs" textLength="50" x="64.1494" y="120.0059">ontoviz</text><!--MD5=[8bd7f295a0ce07e47a21f34eba561762]
entity _predicate--><rect fill="#F8F8F8" height="34.4844" rx="3" ry="3" style="stroke: #000000; stroke-width: 0.5;" width="73" x="226.149" y="146"/><text fill="#000000" font-family="Tahoma, sans-serif" font-size="12" lengthAdjust="spacingAndGlyphs" textLength="53" x="236.149" y="168.0059">predicate</text><ellipse cx="88.9042" cy="552.242" fill="#F8F8F8" rx="48.2548" ry="13.242" style="stroke: #383838; stroke-width: 0.5;"/><text fill="#000000" font-family="Tahoma, sans-serif" font-size="12" lengthAdjust="spacingAndGlyphs" textLength="64" x="56.9042" y="555.9842">quadParser</text><!--MD5=[bdeb9b27363b218ec700e114faa1f575]
entity _querymanager--><rect fill="#F8F8F8" height="34.4844" rx="3" ry="3" style="stroke: #000000; stroke-width: 0.5;" width="101" x="212.149" y="642"/><text fill="#000000" font-family="Tahoma, sans-serif" font-size="12" lengthAdjust="spacingAndGlyphs" textLength="81" x="222.149" y="664.0059">querymanager</text><ellipse cx="262.8774" cy="22.9457" fill="#F8F8F8" rx="62.7284" ry="14.9457" style="stroke: #383838; stroke-width: 0.5;"/><text fill="#000000" font-family="Tahoma, sans-serif" font-size="12" font-weight="bold" lengthAdjust="spacingAndGlyphs" textLength="95" x="215.3774" y="26.6879">resourcemenu</text><!--MD5=[df354d2524069015f910758bbbe80e8a]
entity _settings--><rect fill="#F8F8F8" height="34.4844" rx="3" ry="3" style="stroke: #000000; stroke-width: 0.5;" width="66" x="56.1494" y="583"/><text fill="#000000" font-family="Tahoma, sans-serif" font-size="12" lengthAdjust="spacingAndGlyphs" textLength="46" x="66.1494" y="605.0059">settings</text><!--MD5=[698519afe8ef840e9874c8356e39c7e3]
entity _settingswidgets--><rect fill="#F8F8F8" height="34.4844" rx="3" ry="3" style="stroke: #000000; stroke-width: 0.5;" width="110" x="207.649" y="425"/><text fill="#000000" font-family="Tahoma, sans-serif" font-size="12" lengthAdjust="spacingAndGlyphs" textLength="90" x="217.649" y="447.0059">settingswidgets</text><!--MD5=[b2685753d20aee33b1198430d4ca6153]
entity _socrata--><rect fill="#F8F8F8" height="34.4844" rx="3" ry="3" style="stroke: #000000; stroke-width: 0.5;" width="71" x="227.149" y="56"/><text fill="#000000" font-family="Tahoma, sans-serif" font-size="12" font-weight="bold" lengthAdjust="spacingAndGlyphs" textLength="51" x="237.149" y="78.0059">socrata</text><!--MD5=[54ff41620e670ad663e6c1b91bbeac92]
entity _sortedset--><rect fill="#F8F8F8" height="34.4844" rx="3" ry="3" style="stroke: #000000; stroke-width: 0.5;" width="75" x="409.149" y="236"/><text fill="#000000" font-family="Tahoma, sans-serif" font-size="12" lengthAdjust="spacingAndGlyphs" textLength="55" x="419.149" y="258.0059">sortedset</text><!--MD5=[319f27bc800d444a751a01b2683199e4]
entity _taxon--><rect fill="#F8F8F8" height="34.4844" rx="3" ry="3" style="stroke: #000000; stroke-width: 0.5;" width="52" x="236.649" y="236"/><text fill="#000000" font-family="Tahoma, sans-serif" font-size="12" lengthAdjust="spacingAndGlyphs" textLength="32" x="246.649" y="258.0059">taxon</text><!--MD5=[90aed9b54c4f2d78720c94aa7e57e608]
entity _textcursor--><rect fill="#F8F8F8" height="34.4844" rx="3" ry="3" style="stroke: #000000; stroke-width: 0.5;" width="78" x="50.1494" y="487"/><text fill="#000000" font-family="Tahoma, sans-serif" font-size="12" lengthAdjust="spacingAndGlyphs" textLength="58" x="60.1494" y="509.0059">textcursor</text><!--MD5=[ceba8e24a112afc51c5fe49531598f36]
entity _treectrl--><rect fill="#F8F8F8" height="34.4844" rx="3" ry="3" style="stroke: #000000; stroke-width: 0.5;" width="60" x="416.649" y="184"/><text fill="#000000" font-family="Tahoma, sans-serif" font-size="12" lengthAdjust="spacingAndGlyphs" textLength="40" x="426.649" y="206.0059">treectrl</text><!--MD5=[c4d596e948cbed671d412ad21a22ac4a]
entity _treepicker--><rect fill="#F8F8F8" height="34.4844" rx="3" ry="3" style="stroke: #000000; stroke-width: 0.5;" width="76" x="408.649" y="685"/><text fill="#000000" font-family="Tahoma, sans-serif" font-size="12" lengthAdjust="spacingAndGlyphs" textLength="56" x="418.649" y="707.0059">treepicker</text><ellipse cx="574.8475" cy="349.242" fill="#F8F8F8" rx="32.6985" ry="13.242" style="stroke: #383838; stroke-width: 0.5;"/><text fill="#000000" font-family="Tahoma, sans-serif" font-size="12" lengthAdjust="spacingAndGlyphs" textLength="42" x="553.8475" y="352.9842">uniquer</text><!--MD5=[5cd249406984a5cc838d707d05280374]
link _coloredtreepicker to hsl--><path d="M322.74,749.3247 C358.25,749.5198 401.184,749.7557 425.764,749.8907 " fill="none" id="_coloredtreepicker-&gt;hsl" style="stroke: #000000; stroke-width: 0.5;"/><polygon fill="#000000" points="431.015,749.9196,422.0368,745.8708,426.0151,749.8925,421.9934,753.8707,431.015,749.9196" style="stroke: #000000; stroke-width: 0.5;"/><!--MD5=[aa63334a7eb54a4d8e25fa7ab8740525]
link _coloredtreepicker to _treepicker--><path d="M322.74,733.7404 C349.097,726.9339 379.544,719.0713 403.54,712.8745 " fill="none" id="_coloredtreepicker-&gt;_treepicker" style="stroke: #000000; stroke-width: 0.5;"/><polygon fill="#000000" points="408.558,711.5784,398.8438,709.9555,403.7168,712.8284,400.8438,717.7014,408.558,711.5784" style="stroke: #000000; stroke-width: 0.5;"/><!--MD5=[a30baaf1f5525220c49869b40c8172a6]
link _editui to _fsm--><path d="M114.721,645.553 C147.074,637.063 203.672,622.213 236.373,613.632 " fill="none" id="_editui-&gt;_fsm" style="stroke: #000000; stroke-width: 0.5;"/><polygon fill="#000000" points="241.408,612.311,231.6877,610.7249,236.5716,613.5794,233.7171,618.4633,241.408,612.311" style="stroke: #000000; stroke-width: 0.5;"/><!--MD5=[7a5d0419302720763152f26417e90ab3]
link _editui to _indexeddbstoragecontroller--><path d="M114.781,641.064 C122.673,636.95 131.169,631.835 138.149,626 C157.801,609.574 157.041,600.06 174.149,581 C195.302,557.435 221.201,532.077 239.312,514.853 " fill="none" id="_editui-&gt;_indexeddbstoragecontroller" style="stroke: #000000; stroke-width: 0.5;"/><polygon fill="#000000" points="243.282,511.089,233.9986,514.3781,239.6534,514.529,239.5026,520.1838,243.282,511.089" style="stroke: #000000; stroke-width: 0.5;"/><!--MD5=[f941d9f8ed439ca0b18e22352ae94bbf]
link _gclui to _coloredtreepicker--><path d="M112.923,709.9757 C134.456,715.6258 167.798,724.3743 197.459,732.1571 " fill="none" id="_gclui-&gt;_coloredtreepicker" style="stroke: #000000; stroke-width: 0.5;"/><polygon fill="#000000" points="202.567,733.4973,194.8781,727.3426,197.731,732.2274,192.8462,735.0802,202.567,733.4973" style="stroke: #000000; stroke-width: 0.5;"/><!--MD5=[87b71bbd7c7e51674aee4d8d213c4dfd]
link _gclui to _graphcommandlanguage--><path d="M112.891,696.8597 C122.165,692.7953 132.108,686.7277 138.149,678 C205.045,581.355 128.155,524.166 174.149,416 C189.245,380.498 218.8,346.738 239.361,325.97 " fill="none" id="_gclui-&gt;_graphcommandlanguage" style="stroke: #000000; stroke-width: 0.5;"/><polygon fill="#000000" points="243.09,322.246,233.8955,325.776,239.5523,325.7794,239.5489,331.4362,243.09,322.246" style="stroke: #000000; stroke-width: 0.5;"/><!--MD5=[94edbdfe38f378104ff793902e80a452]
link _gclui to _querymanager--><path d="M112.923,698.0243 C136.794,691.7608 175.176,681.6897 206.969,673.3475 " fill="none" id="_gclui-&gt;_querymanager" style="stroke: #000000; stroke-width: 0.5;"/><polygon fill="#000000" points="212.012,672.0244,202.2916,670.4388,207.1756,673.293,204.3214,678.177,212.012,672.0244" style="stroke: #000000; stroke-width: 0.5;"/><!--MD5=[71af8658dd215183f4594b4f0638118a]
link _gclui to _treepicker--><path d="M112.657,703.8734 C170.936,703.5455 327.492,702.6647 403.327,702.2381 " fill="none" id="_gclui-&gt;_treepicker" style="stroke: #000000; stroke-width: 0.5;"/><polygon fill="#000000" points="408.645,702.2082,399.6223,698.2597,403.6451,702.2368,399.668,706.2596,408.645,702.2082" style="stroke: #000000; stroke-width: 0.5;"/><!--MD5=[180e44a801c72b313cfac1c6dee1f477]
link _graphcommandlanguage to angliciser--><path d="M343.742,303.24 C362.756,302.822 382.415,302.39 399.332,302.018 " fill="none" id="_graphcommandlanguage-&gt;angliciser" style="stroke: #000000; stroke-width: 0.5;"/><polygon fill="#000000" points="404.491,301.905,395.4052,298.104,399.4922,302.015,395.5812,306.102,404.491,301.905" style="stroke: #000000; stroke-width: 0.5;"/><!--MD5=[0efe7eb2c13d8101a1669ca619d526fd]
link _graphcommandlanguage to _sortedset--><path d="M323.243,287.973 C349.665,280.424 380.114,271.724 404.033,264.89 " fill="none" id="_graphcommandlanguage-&gt;_sortedset" style="stroke: #000000; stroke-width: 0.5;"/><polygon fill="#000000" points="409.034,263.461,399.2813,262.0882,404.2265,264.835,401.4797,269.7802,409.034,263.461" style="stroke: #000000; stroke-width: 0.5;"/><!--MD5=[7710c5335812acb0ea2698ca9a3eda09]
link _huviz to _dndloader--><path d="M61.4927,214.969 C47.082,220.158 30.7174,228.857 22.1494,243 C2.1138,276.071 2.1138,383.929 22.1494,417 C27.701,426.164 36.5257,433.042 45.9714,438.161 " fill="none" id="_huviz-&gt;_dndloader" style="stroke: #000000; stroke-width: 1.0;"/><polygon fill="#000000" points="50.6466,440.535,44.4335,432.8932,46.1886,438.2709,40.8109,440.0259,50.6466,440.535" style="stroke: #000000; stroke-width: 1.0;"/><!--MD5=[0a19c39635a92762a7be9d9130041a5d]
link _huviz to _edge--><path d="M61.4927,214.969 C47.082,220.158 30.7174,228.857 22.1494,243 C8.1014,266.188 8.1014,341.812 22.1494,365 C30.3859,378.595 45.8273,387.161 59.8118,392.413 " fill="none" id="_huviz-&gt;_edge" style="stroke: #000000; stroke-width: 1.0;"/><polygon fill="#000000" points="64.882,394.201,57.7246,387.4355,60.1666,392.5381,55.064,394.9801,64.882,394.201" style="stroke: #000000; stroke-width: 1.0;"/><!--MD5=[7c5eb97fb3d0511e7c515fe8c5e2c9a9]
link _huviz to _editui--><path d="M61.4927,214.969 C47.082,220.158 30.7174,228.857 22.1494,243 C0.6169,278.542 0.6169,581.458 22.1494,617 C30.1437,630.196 44.9252,638.653 58.5743,643.941 " fill="none" id="_huviz-&gt;_editui" style="stroke: #000000; stroke-width: 1.0;"/><polygon fill="#000000" points="63.537,645.748,56.4502,638.9086,58.8391,644.0363,53.7115,646.4252,63.537,645.748" style="stroke: #000000; stroke-width: 1.0;"/><!--MD5=[78c92fafc734451d0c4222f6f659630a]
link _huviz to _gclui--><path d="M61.4927,214.969 C47.082,220.158 30.7174,228.857 22.1494,243 C9.8862,263.242 9.8862,648.758 22.1494,669 C30.5804,682.9163 46.5604,691.5625 60.7997,696.7791 " fill="none" id="_huviz-&gt;_gclui" style="stroke: #000000; stroke-width: 1.0;"/><polygon fill="#000000" points="65.5485,698.4194,58.3476,691.7003,60.8225,696.787,55.7357,699.2619,65.5485,698.4194" style="stroke: #000000; stroke-width: 1.0;"/><!--MD5=[45b54291284970458bed53f428aad9bc]
link _huviz to _graphcommandlanguage--><path d="M116.766,219.985 C124.079,223.907 131.75,228.651 138.149,234 C157.801,250.426 152.902,264.698 174.149,279 C177.74,281.417 181.561,283.614 185.521,285.611 " fill="none" id="_huviz-&gt;_graphcommandlanguage" style="stroke: #000000; stroke-width: 1.0;"/><polygon fill="#000000" points="190.229,287.864,183.8378,280.3705,185.719,285.7054,180.3841,287.5866,190.229,287.864" style="stroke: #000000; stroke-width: 1.0;"/><!--MD5=[611afdb953935b80d86a045e5a20c8c3]
link _huviz to _greenerturtle--><path d="M61.4927,214.969 C47.082,220.158 30.7174,228.857 22.1494,243 C6.0288,269.609 6.0288,286.391 22.1494,313 C26.1826,319.657 31.9435,325.109 38.415,329.555 " fill="none" id="_huviz-&gt;_greenerturtle" style="stroke: #000000; stroke-width: 1.0;"/><polygon fill="#000000" points="42.9963,332.476,37.5565,324.2657,38.7798,329.7887,33.2568,331.0121,42.9963,332.476" style="stroke: #000000; stroke-width: 1.0;"/><!--MD5=[b5066780bb50e7eb53d192028117f15c]
link _huviz to _indexeddbservice--><path d="M116.892,217.629 C124.73,221.614 132.66,226.984 138.149,234 C177.472,284.261 125.757,331.399 174.149,373 C204.267,398.891 311.357,402.88 381.699,402.549 " fill="none" id="_huviz-&gt;_indexeddbservice" style="stroke: #000000; stroke-width: 1.0;"/><polygon fill="#000000" points="387.12,402.515,378.095,398.5716,382.1201,402.5464,378.1453,406.5715,387.12,402.515" style="stroke: #000000; stroke-width: 1.0;"/><!--MD5=[b8419d487ca96138f60f566e4a1586cd]
link _huviz to _indexeddbstoragecontroller--><path d="M116.823,217.056 C124.852,221.045 132.911,226.561 138.149,234 C198.731,320.034 104.9799,388.706 174.149,468 C175.881,469.985 177.757,471.823 179.751,473.522 " fill="none" id="_huviz-&gt;_indexeddbstoragecontroller" style="stroke: #000000; stroke-width: 1.0;"/><polygon fill="#000000" points="184.002,476.822,179.3462,468.1431,180.0526,473.7557,174.4401,474.4621,184.002,476.822" style="stroke: #000000; stroke-width: 1.0;"/><!--MD5=[cf2b9d99b2fde8f9ac8fe3818c591fa6]
link _huviz to multistring--><path d="M61.4927,214.969 C47.082,220.158 30.7174,228.857 22.1494,243 C16.1617,252.883 16.0742,259.17 22.1494,269 C28.1094,278.644 37.9496,285.324 48.277,289.938 " fill="none" id="_huviz-&gt;multistring" style="stroke: #000000; stroke-width: 1.0;"/><polygon fill="#000000" points="53.0441,291.915,46.2636,284.7718,48.4257,289.9992,43.1983,292.1613,53.0441,291.915" style="stroke: #000000; stroke-width: 1.0;"/><!--MD5=[576ad3665183860786542bc172304814]
link _huviz to _node--><path d="M116.97,218.233 C124.627,222.206 132.434,227.416 138.149,234 C168.293,268.726 137.288,303.508 174.149,331 C246.967,385.308 363.581,368.184 417.108,356.299 " fill="none" id="_huviz-&gt;_node" style="stroke: #000000; stroke-width: 1.0;"/><polygon fill="#000000" points="422.088,355.168,412.4252,353.2629,417.2124,356.2765,414.1988,361.0638,422.088,355.168" style="stroke: #000000; stroke-width: 1.0;"/><!--MD5=[c316f54a23eccd85694cacab9137e8a6]
link _huviz to oncerunner--><path d="M89.1494,225.165 C89.1494,229.316 89.1494,233.467 89.1494,237.617 " fill="none" id="_huviz-&gt;oncerunner" style="stroke: #000000; stroke-width: 1.0;"/><polygon fill="#000000" points="89.1494,242.875,93.1494,233.875,89.1494,237.875,85.1494,233.875,89.1494,242.875" style="stroke: #000000; stroke-width: 1.0;"/><!--MD5=[53eaa73e9beaed2f6e00aaef30b9a17d]
link _huviz to _predicate--><path d="M116.946,200.969 C144.846,193.648 188.885,182.093 221.057,173.651 " fill="none" id="_huviz-&gt;_predicate" style="stroke: #000000; stroke-width: 1.0;"/><polygon fill="#000000" points="226.114,172.324,216.3937,170.7379,221.2776,173.5924,218.4231,178.4763,226.114,172.324" style="stroke: #000000; stroke-width: 1.0;"/><!--MD5=[bc42dcbe4b21fcf3c326d926fe3eabe6]
link _huviz to quadParser--><path d="M61.4927,214.969 C47.082,220.158 30.7174,228.857 22.1494,243 C6.1439,269.419 5.9101,494.724 22.1494,521 C27.9341,530.36 37.3741,536.928 47.3671,541.525 " fill="none" id="_huviz-&gt;quadParser" style="stroke: #000000; stroke-width: 1.0;"/><polygon fill="#000000" points="51.9863,543.501,45.285,536.2834,47.3893,541.5344,42.1384,543.6386,51.9863,543.501" style="stroke: #000000; stroke-width: 1.0;"/><!--MD5=[ef4f53580943ebda46b8452c1e3fea4a]
link _huviz to _settings--><path d="M61.4927,214.969 C47.082,220.158 30.7174,228.857 22.1494,243 C3.6107,273.6 3.6107,534.4 22.1494,565 C28.6944,575.803 39.7889,583.431 51.0867,588.743 " fill="none" id="_huviz-&gt;_settings" style="stroke: #000000; stroke-width: 1.0;"/><polygon fill="#000000" points="55.9283,590.88,49.3102,583.5861,51.3542,588.8608,46.0795,590.9047,55.9283,590.88" style="stroke: #000000; stroke-width: 1.0;"/><!--MD5=[0c21caadf211326c87ff1b7e37a323ba]
link _huviz to _settingswidgets--><path d="M116.837,217.353 C124.768,221.342 132.766,226.783 138.149,234 C184.589,296.252 124.765,345.057 174.149,405 C181.674,414.134 191.854,421.054 202.61,426.284 " fill="none" id="_huviz-&gt;_settingswidgets" style="stroke: #000000; stroke-width: 1.0;"/><polygon fill="#000000" points="207.249,428.423,200.7521,421.0209,202.7088,426.3286,197.4011,428.2853,207.249,428.423" style="stroke: #000000; stroke-width: 1.0;"/><!--MD5=[38ff69355a392520dfa6bb4e13bad1f0]
link _huviz to _sortedset--><path d="M116.659,208.222 C164.056,208.996 266.304,212.385 351.149,227 C368.626,230.01 387.535,234.879 403.813,239.593 " fill="none" id="_huviz-&gt;_sortedset" style="stroke: #000000; stroke-width: 1.0;"/><polygon fill="#000000" points="408.776,241.049,401.2658,234.6775,403.9781,239.6416,399.014,242.354,408.776,241.049" style="stroke: #000000; stroke-width: 1.0;"/><!--MD5=[19bae500a9ad4dd5ac0c01e4595e6366]
link _huviz to _taxon--><path d="M116.946,215.031 C147.976,223.173 198.969,236.553 231.397,245.062 " fill="none" id="_huviz-&gt;_taxon" style="stroke: #000000; stroke-width: 1.0;"/><polygon fill="#000000" points="236.436,246.384,228.7456,240.2312,231.5996,245.1153,226.7156,247.9694,236.436,246.384" style="stroke: #000000; stroke-width: 1.0;"/><!--MD5=[f06c90f6ce968f3d0df0990a2e51a62b]
link _huviz to _textcursor--><path d="M61.4927,214.969 C47.082,220.158 30.7174,228.857 22.1494,243 C9.1378,264.477 9.1378,447.523 22.1494,469 C27.5841,477.971 36.1556,484.751 45.3757,489.835 " fill="none" id="_huviz-&gt;_textcursor" style="stroke: #000000; stroke-width: 1.0;"/><polygon fill="#000000" points="49.9431,492.197,43.7857,484.5103,45.5017,489.9006,40.1114,491.6166,49.9431,492.197" style="stroke: #000000; stroke-width: 1.0;"/><!--MD5=[3a6f22ad93df00ce9fd9dc9592f22562]
link _huviz to uniquer--><path d="M103.78,190.933 C118.859,173.557 144.921,147.698 174.149,137 C243.458,111.633 447.569,101.106 506.149,146 C565.113,191.188 573.144,289.688 573.836,330.606 " fill="none" id="_huviz-&gt;uniquer" style="stroke: #000000; stroke-width: 1.0;"/><polygon fill="#000000" points="573.889,335.76,577.7962,326.7193,573.8376,330.7603,569.7966,326.8016,573.889,335.76" style="stroke: #000000; stroke-width: 1.0;"/><!--MD5=[c4773edaa6d8e63a11de9e435cd61aba]
link _indexeddbstoragecontroller to _indexeddbservice--><path d="M329.528,476.99 C336.958,474.322 344.309,471.328 351.149,468 C376.874,455.485 403.186,436.193 421.491,421.518 " fill="none" id="_indexeddbstoragecontroller-&gt;_indexeddbservice" style="stroke: #000000; stroke-width: 0.5;"/><polygon fill="#000000" points="425.504,418.273,415.991,420.8232,421.6166,421.4175,421.0222,427.0431,425.504,418.273" style="stroke: #000000; stroke-width: 0.5;"/><!--MD5=[a2ca38879bb953ea5390095996b88ddb]
link _node to uniquer--><path d="M471.349,349 C489.75,349 515.599,349 536.709,349 " fill="none" id="_node-&gt;uniquer" style="stroke: #000000; stroke-width: 0.5;"/><polygon fill="#000000" points="541.966,349,532.966,345,536.966,349,532.966,353,541.966,349" style="stroke: #000000; stroke-width: 0.5;"/><!--MD5=[93ed82f8c79f28d038d68c50d730322f]
link _predicate to _sortedset--><path d="M299.158,172.032 C315.659,177.101 335.126,184.369 351.149,194 C369.752,205.182 368.995,215.104 387.149,227 C392.557,230.544 398.528,233.819 404.526,236.766 " fill="none" id="_predicate-&gt;_sortedset" style="stroke: #000000; stroke-width: 0.5;"/><polygon fill="#000000" points="409.11,238.954,402.7121,231.4662,404.598,236.7995,399.2648,238.6854,409.11,238.954" style="stroke: #000000; stroke-width: 0.5;"/><!--MD5=[248000c19addd84d3bd8fd9a624f4569]
link _predicate to _treectrl--><path d="M299.173,170.417 C331.675,177.203 379.446,187.177 411.507,193.871 " fill="none" id="_predicate-&gt;_treectrl" style="stroke: #000000; stroke-width: 0.5;"/><polygon fill="#000000" points="416.513,194.917,408.5197,189.1632,411.6184,193.8958,406.8858,196.9945,416.513,194.917" style="stroke: #000000; stroke-width: 0.5;"/><!--MD5=[28310eee2fca0e95a76e2266f3caba5f]
link _predicate to uniquer--><path d="M299.235,153.713 C350.256,142.639 444.793,130.724 506.149,175 C557.488,212.047 569.78,293.905 572.723,330.588 " fill="none" id="_predicate-&gt;uniquer" style="stroke: #000000; stroke-width: 0.5;"/><polygon fill="#000000" points="573.093,335.662,576.4267,326.3945,572.7287,330.6753,568.448,326.9773,573.093,335.662" style="stroke: #000000; stroke-width: 0.5;"/><!--MD5=[98be6845be905518450252ae93d07b4f]
link _settings to _settingswidgets--><path d="M122.57,586.798 C128.344,583.312 133.871,579.07 138.149,574 C170.235,535.975 138.296,502.496 174.149,468 C182.072,460.377 192.126,454.977 202.575,451.153 " fill="none" id="_settings-&gt;_settingswidgets" style="stroke: #000000; stroke-width: 0.5;"/><polygon fill="#000000" points="207.398,449.506,197.5883,448.6291,202.6663,451.1218,200.1736,456.1998,207.398,449.506" style="stroke: #000000; stroke-width: 0.5;"/><!--MD5=[151ebb7b97156e44f60a81716f179c47]
link _settingswidgets to uniquer--><path d="M317.77,450.185 C369.037,455.363 446.797,456.377 506.149,427 C532.782,413.818 553.249,384.953 564.353,366.275 " fill="none" id="_settingswidgets-&gt;uniquer" style="stroke: #000000; stroke-width: 0.5;"/><polygon fill="#000000" points="566.973,361.761,558.9955,367.5368,564.463,366.0853,565.9144,371.5528,566.973,361.761" style="stroke: #000000; stroke-width: 0.5;"/><!--MD5=[fc90fe1503a3a89654081b9607cd7cce]
link _taxon to angliciser--><path d="M288.956,259.674 C320.142,267.899 373.371,281.938 409.021,291.34 " fill="none" id="_taxon-&gt;angliciser" style="stroke: #000000; stroke-width: 0.5;"/><polygon fill="#000000" points="414.149,292.692,406.4658,286.5301,409.3141,291.4176,404.4267,294.2659,414.149,292.692" style="stroke: #000000; stroke-width: 0.5;"/><!--MD5=[e718b0c18ad25aacf97ca456a9ede7e1]
link _taxon to _sortedset--><path d="M288.956,253 C318.653,253 368.337,253 403.797,253 " fill="none" id="_taxon-&gt;_sortedset" style="stroke: #000000; stroke-width: 0.5;"/><polygon fill="#000000" points="408.922,253,399.922,249,403.922,253,399.922,257,408.922,253" style="stroke: #000000; stroke-width: 0.5;"/><!--MD5=[85533fe774a186ff7ac61a8548acf24f]
link _taxon to _treectrl--><path d="M288.956,245.77 C320.794,236.673 375.605,221.013 411.232,210.833 " fill="none" id="_taxon-&gt;_treectrl" style="stroke: #000000; stroke-width: 0.5;"/><polygon fill="#000000" points="416.345,209.373,406.5922,208.0009,411.5376,210.7474,408.7912,215.6928,416.345,209.373" style="stroke: #000000; stroke-width: 0.5;"/><!--MD5=[2ff73aa3b99096fa975781b07659832c]
link _treepicker to uniquer--><path d="M453.727,684.9741 C474.956,625.498 545.692,427.326 567.315,366.746 " fill="none" id="_treepicker-&gt;uniquer" style="stroke: #000000; stroke-width: 0.5;"/><polygon fill="#000000" points="569.02,361.969,562.2282,369.1014,567.3398,366.6782,569.763,371.7898,569.02,361.969" style="stroke: #000000; stroke-width: 0.5;"/><!--MD5=[d6a3172dff1eddc9799eb40c22a3dc34]
link <b>gvcl</b> to <b>hsv</b>--><!--MD5=[13ff5a45a6b44f8e41639dec84eafb63]
link <b>hsv</b> to _ontoviz--><!--MD5=[d80ff44ef30ca62068a133c3a9ae6920]
link <b>gvcl</b> to <b>resourcemenu</b>--><!--MD5=[db8edb2caa039a607f2d974334611951]
link <b>resourcemenu</b> to _socrata--><script type="text/plantuml"><![CDATA[MD5=[cc0eae4014979fd24168043dd1763954]
@startuml

scale max 1920 width
left to right direction

skinparam nodesep 18
skinparam ranksep 36
skinparam monochrome true
skinparam shadowing false
skinparam defaultFontName Tahoma
skinparam defaultFontSize 12
skinparam roundCorner 6
skinparam dpi 150
skinparam arrowColor black
skinparam arrowThickness 0.5
skinparam packageTitleAlignment left

skinparam usecase {
  borderThickness 0.5
}

skinparam rectangle {
  borderThickness 0.5
}

skinparam component {
  borderThickness 1
}


(angliciser)
rectangle "coloredtreepicker" as _coloredtreepicker
rectangle "dndloader" as _dndloader
rectangle "edge" as _edge
rectangle "editui" as _editui
rectangle "fsm" as _fsm
rectangle "gclui" as _gclui
rectangle "graphcommandlanguage" as _graphcommandlanguage
rectangle "greenerturtle" as _greenerturtle
(<b>gvcl</b>)
(hsl)
(<b>hsv</b>)
rectangle "<b>huviz</b>" as _huviz
rectangle "indexeddbservice" as _indexeddbservice
rectangle "indexeddbstoragecontroller" as _indexeddbstoragecontroller
(multistring)
rectangle "node" as _node
(oncerunner)
rectangle "<b>ontoviz</b>" as _ontoviz
rectangle "predicate" as _predicate
(quadParser)
rectangle "querymanager" as _querymanager
(<b>resourcemenu</b>)
rectangle "settings" as _settings
rectangle "settingswidgets" as _settingswidgets
rectangle "<b>socrata</b>" as _socrata
rectangle "sortedset" as _sortedset
rectangle "taxon" as _taxon
rectangle "textcursor" as _textcursor
rectangle "treectrl" as _treectrl
rectangle "treepicker" as _treepicker
(uniquer)


_coloredtreepicker --> (hsl)
_coloredtreepicker --> _treepicker
_editui --> _fsm
_editui --> _indexeddbstoragecontroller
_gclui --> _coloredtreepicker
_gclui --> _graphcommandlanguage
_gclui --> _querymanager
_gclui --> _treepicker
_graphcommandlanguage --> (angliciser)
_graphcommandlanguage --> _sortedset
_huviz -[thickness=1]> _dndloader
_huviz -[thickness=1]> _edge
_huviz -[thickness=1]> _editui
_huviz -[thickness=1]> _gclui
_huviz -[thickness=1]> _graphcommandlanguage
_huviz -[thickness=1]> _greenerturtle
_huviz -[thickness=1]> _indexeddbservice
_huviz -[thickness=1]> _indexeddbstoragecontroller
_huviz -[thickness=1]> (multistring)
_huviz -[thickness=1]> _node
_huviz -[thickness=1]> (oncerunner)
_huviz -[thickness=1]> _predicate
_huviz -[thickness=1]> (quadParser)
_huviz -[thickness=1]> _settings
_huviz -[thickness=1]> _settingswidgets
_huviz -[thickness=1]> _sortedset
_huviz -[thickness=1]> _taxon
_huviz -[thickness=1]> _textcursor
_huviz -[thickness=1]> (uniquer)
_indexeddbstoragecontroller --> _indexeddbservice
_node --> (uniquer)
_predicate --> _sortedset
_predicate --> _treectrl
_predicate --> (uniquer)
_settings --> _settingswidgets
_settingswidgets --> (uniquer)
_taxon --> (angliciser)
_taxon --> _sortedset
_taxon --> _treectrl
_treepicker --> (uniquer)

@enduml


' View and edit on https://arkit.pro
]]></script></g></svg>