<?xml version="1.0" encoding="UTF-8" standalone="no"?><svg xmlns="http://www.w3.org/2000/svg" xmlns:xlink="http://www.w3.org/1999/xlink" contentScriptType="application/ecmascript" contentStyleType="text/css" height="752px" preserveAspectRatio="none" style="width:512px;height:752px;" version="1.1" viewBox="0 0 512 752" width="512px" zoomAndPan="magnify"><defs/><g><ellipse cx="441.4349" cy="399.242" fill="#F8F8F8" rx="41.8909" ry="13.242" style="stroke: #383838; stroke-width: 0.5;"/><text fill="#000000" font-family="Tahoma, sans-serif" font-size="12" lengthAdjust="spacingAndGlyphs" textLength="55" x="413.9349" y="402.9842">angliciser</text><!--MD5=[68f424e333f01539f4809daa1e86d0f0]
entity _dndloader--><rect fill="#F8F8F8" height="34.4844" rx="3" ry="3" style="stroke: #000000; stroke-width: 0.5;" width="77" x="49.5435" y="562"/><text fill="#000000" font-family="Tahoma, sans-serif" font-size="12" lengthAdjust="spacingAndGlyphs" textLength="57" x="59.5435" y="584.0059">dndloader</text><!--MD5=[88c490e9164e48e33bb1acceb2aacd6d]
entity _edge--><rect fill="#F8F8F8" height="34.4844" rx="3" ry="3" style="stroke: #000000; stroke-width: 0.5;" width="48" x="64.0435" y="460"/><text fill="#000000" font-family="Tahoma, sans-serif" font-size="12" lengthAdjust="spacingAndGlyphs" textLength="28" x="74.0435" y="482.0059">edge</text><!--MD5=[2e8c035363463292a2a2d5ce12b2c02c]
entity _editui--><rect fill="#F8F8F8" height="34.4844" rx="3" ry="3" style="stroke: #000000; stroke-width: 0.5;" width="51" x="62.5435" y="707"/><text fill="#000000" font-family="Tahoma, sans-serif" font-size="12" lengthAdjust="spacingAndGlyphs" textLength="31" x="72.5435" y="729.0059">editui</text><!--MD5=[85e828cec410b55b18bc9d950a8a5ef8]
entity _fsm--><rect fill="#F8F8F8" height="34.4844" rx="3" ry="3" style="stroke: #000000; stroke-width: 0.5;" width="42" x="238.544" y="707"/><text fill="#000000" font-family="Tahoma, sans-serif" font-size="12" lengthAdjust="spacingAndGlyphs" textLength="22" x="248.544" y="729.0059">fsm</text><!--MD5=[4086444eb55f169405db08ef307d9d70]
entity _gclui--><rect fill="#F8F8F8" height="34.4844" rx="3" ry="3" style="stroke: #000000; stroke-width: 0.5;" width="47" x="64.5435" y="656"/><text fill="#000000" font-family="Tahoma, sans-serif" font-size="12" lengthAdjust="spacingAndGlyphs" textLength="27" x="74.5435" y="678.0059">gclui</text><!--MD5=[995c6bd86ece32814d0ce502d3a43650]
entity _graphcommandlanguage--><rect fill="#F8F8F8" height="34.4844" rx="3" ry="3" style="stroke: #000000; stroke-width: 0.5;" width="162" x="178.544" y="384"/><text fill="#000000" font-family="Tahoma, sans-serif" font-size="12" lengthAdjust="spacingAndGlyphs" textLength="142" x="188.544" y="406.0059">graphcommandlanguage</text><!--MD5=[78e51e3f01a585ec427433fb7dc601b3]
entity _greenerturtle--><rect fill="#F8F8F8" height="34.4844" rx="3" ry="3" style="stroke: #000000; stroke-width: 0.5;" width="92" x="42.0435" y="409"/><text fill="#000000" font-family="Tahoma, sans-serif" font-size="12" lengthAdjust="spacingAndGlyphs" textLength="72" x="52.0435" y="431.0059">greenerturtle</text><ellipse cx="88.1354" cy="25.242" fill="#F8F8F8" rx="22.0919" ry="13.242" style="stroke: #383838; stroke-width: 0.5;"/><text fill="#000000" font-family="Tahoma, sans-serif" font-size="12" font-weight="bold" lengthAdjust="spacingAndGlyphs" textLength="27" x="74.6354" y="28.9842">gvcl</text><ellipse cx="87.807" cy="68.242" fill="#F8F8F8" rx="19.2635" ry="13.242" style="stroke: #383838; stroke-width: 0.5;"/><text fill="#000000" font-family="Tahoma, sans-serif" font-size="12" font-weight="bold" lengthAdjust="spacingAndGlyphs" textLength="23" x="76.307" y="71.9842">hsv</text><!--MD5=[c17c2e27dcac3cee95af133266e055c4]
entity _huviz--><rect fill="#F8F8F8" height="34.4844" rx="3" ry="3" style="stroke: #000000; stroke-width: 0.5;" width="55" x="60.5435" y="221"/><text fill="#000000" font-family="Tahoma, sans-serif" font-size="12" font-weight="bold" lengthAdjust="spacingAndGlyphs" textLength="35" x="70.5435" y="243.0059">huviz</text><!--MD5=[0ec5cfff40ac86c6e424ea8c83617c61]
entity _indexeddbservice--><rect fill="#F8F8F8" height="34.4844" rx="3" ry="3" style="stroke: #000000; stroke-width: 0.5;" width="119" x="382.044" y="451"/><text fill="#000000" font-family="Tahoma, sans-serif" font-size="12" lengthAdjust="spacingAndGlyphs" textLength="99" x="392.044" y="473.0059">indexeddbservice</text><!--MD5=[af43522a83a3894ea69d66d18845e476]
entity _indexeddbstoragecontroller--><rect fill="#F8F8F8" height="34.4844" rx="3" ry="3" style="stroke: #000000; stroke-width: 0.5;" width="177" x="171.044" y="470"/><text fill="#000000" font-family="Tahoma, sans-serif" font-size="12" lengthAdjust="spacingAndGlyphs" textLength="157" x="181.044" y="492.0059">indexeddbstoragecontroller</text><ellipse cx="87.9699" cy="379.242" fill="#F8F8F8" rx="45.4264" ry="13.242" style="stroke: #383838; stroke-width: 0.5;"/><text fill="#000000" font-family="Tahoma, sans-serif" font-size="12" lengthAdjust="spacingAndGlyphs" textLength="60" x="57.9699" y="382.9842">multistring</text><!--MD5=[a1220b791bfdf8d2fcff6a69a8402a50]
entity _node--><rect fill="#F8F8F8" height="34.4844" rx="3" ry="3" style="stroke: #000000; stroke-width: 0.5;" width="49" x="235.044" y="145"/><text fill="#000000" font-family="Tahoma, sans-serif" font-size="12" lengthAdjust="spacingAndGlyphs" textLength="29" x="245.044" y="167.0059">node</text><ellipse cx="88.0054" cy="336.242" fill="#F8F8F8" rx="48.9619" ry="13.242" style="stroke: #383838; stroke-width: 0.5;"/><text fill="#000000" font-family="Tahoma, sans-serif" font-size="12" lengthAdjust="spacingAndGlyphs" textLength="65" x="55.5054" y="339.9842">oncerunner</text><!--MD5=[1acd4c73490d50fea545701d86a6f02a]
entity _ontoviz--><rect fill="#F8F8F8" height="34.4844" rx="3" ry="3" style="stroke: #000000; stroke-width: 0.5;" width="70" x="224.544" y="8"/><text fill="#000000" font-family="Tahoma, sans-serif" font-size="12" font-weight="bold" lengthAdjust="spacingAndGlyphs" textLength="50" x="234.544" y="30.0059">ontoviz</text><!--MD5=[8bd7f295a0ce07e47a21f34eba561762]
entity _predicate--><rect fill="#F8F8F8" height="34.4844" rx="3" ry="3" style="stroke: #000000; stroke-width: 0.5;" width="73" x="223.044" y="247"/><text fill="#000000" font-family="Tahoma, sans-serif" font-size="12" lengthAdjust="spacingAndGlyphs" textLength="53" x="233.044" y="269.0059">predicate</text><ellipse cx="87.7983" cy="626.242" fill="#F8F8F8" rx="48.2548" ry="13.242" style="stroke: #383838; stroke-width: 0.5;"/><text fill="#000000" font-family="Tahoma, sans-serif" font-size="12" lengthAdjust="spacingAndGlyphs" textLength="64" x="55.7983" y="629.9842">quadParser</text><!--MD5=[bdeb9b27363b218ec700e114faa1f575]
entity _querymanager--><rect fill="#F8F8F8" height="34.4844" rx="3" ry="3" style="stroke: #000000; stroke-width: 0.5;" width="101" x="209.044" y="656"/><text fill="#000000" font-family="Tahoma, sans-serif" font-size="12" lengthAdjust="spacingAndGlyphs" textLength="81" x="219.044" y="678.0059">querymanager</text><!--MD5=[df354d2524069015f910758bbbe80e8a]
entity _settings--><rect fill="#F8F8F8" height="34.4844" rx="3" ry="3" style="stroke: #000000; stroke-width: 0.5;" width="66" x="55.0435" y="272"/><text fill="#000000" font-family="Tahoma, sans-serif" font-size="12" lengthAdjust="spacingAndGlyphs" textLength="46" x="65.0435" y="294.0059">settings</text><!--MD5=[698519afe8ef840e9874c8356e39c7e3]
entity _settingswidgets--><rect fill="#F8F8F8" height="34.4844" rx="3" ry="3" style="stroke: #000000; stroke-width: 0.5;" width="110" x="204.544" y="196"/><text fill="#000000" font-family="Tahoma, sans-serif" font-size="12" lengthAdjust="spacingAndGlyphs" textLength="90" x="214.544" y="218.0059">settingswidgets</text><!--MD5=[b2685753d20aee33b1198430d4ca6153]
entity _socrata--><rect fill="#F8F8F8" height="34.4844" rx="3" ry="3" style="stroke: #000000; stroke-width: 0.5;" width="71" x="224.044" y="59"/><text fill="#000000" font-family="Tahoma, sans-serif" font-size="12" font-weight="bold" lengthAdjust="spacingAndGlyphs" textLength="51" x="234.044" y="81.0059">socrata</text><!--MD5=[54ff41620e670ad663e6c1b91bbeac92]
entity _sortedset--><rect fill="#F8F8F8" height="34.4844" rx="3" ry="3" style="stroke: #000000; stroke-width: 0.5;" width="75" x="404.044" y="324"/><text fill="#000000" font-family="Tahoma, sans-serif" font-size="12" lengthAdjust="spacingAndGlyphs" textLength="55" x="414.044" y="346.0059">sortedset</text><!--MD5=[319f27bc800d444a751a01b2683199e4]
entity _taxon--><rect fill="#F8F8F8" height="34.4844" rx="3" ry="3" style="stroke: #000000; stroke-width: 0.5;" width="52" x="233.544" y="333"/><text fill="#000000" font-family="Tahoma, sans-serif" font-size="12" lengthAdjust="spacingAndGlyphs" textLength="32" x="243.544" y="355.0059">taxon</text><!--MD5=[90aed9b54c4f2d78720c94aa7e57e608]
entity _textcursor--><rect fill="#F8F8F8" height="34.4844" rx="3" ry="3" style="stroke: #000000; stroke-width: 0.5;" width="78" x="49.0435" y="511"/><text fill="#000000" font-family="Tahoma, sans-serif" font-size="12" lengthAdjust="spacingAndGlyphs" textLength="58" x="59.0435" y="533.0059">textcursor</text><!--MD5=[ceba8e24a112afc51c5fe49531598f36]
entity _treectrl--><rect fill="#F8F8F8" height="34.4844" rx="3" ry="3" style="stroke: #000000; stroke-width: 0.5;" width="60" x="411.544" y="264"/><text fill="#000000" font-family="Tahoma, sans-serif" font-size="12" lengthAdjust="spacingAndGlyphs" textLength="40" x="421.544" y="286.0059">treectrl</text><ellipse cx="441.7425" cy="188.242" fill="#F8F8F8" rx="32.6985" ry="13.242" style="stroke: #383838; stroke-width: 0.5;"/><text fill="#000000" font-family="Tahoma, sans-serif" font-size="12" lengthAdjust="spacingAndGlyphs" textLength="42" x="420.7425" y="191.9842">uniquer</text><!--MD5=[a30baaf1f5525220c49869b40c8172a6]
link _editui to _fsm--><path d="M113.69,724 C145.544,724 200.738,724 233.015,724 " fill="none" id="_editui-&gt;_fsm" style="stroke: #000000; stroke-width: 0.5;"/><polygon fill="#000000" points="238.378,724,229.378,720,233.378,724,229.378,728,238.378,724" style="stroke: #000000; stroke-width: 0.5;"/><!--MD5=[7a5d0419302720763152f26417e90ab3]
link _editui to _indexeddbstoragecontroller--><path d="M113.738,714.4753 C121.812,710.5373 130.403,705.3787 137.044,699 C152.561,684.0951 219.79,559.67 247.024,508.673 " fill="none" id="_editui-&gt;_indexeddbstoragecontroller" style="stroke: #000000; stroke-width: 0.5;"/><polygon fill="#000000" points="249.378,504.261,241.6117,510.3177,247.0239,508.6721,248.6695,514.0843,249.378,504.261" style="stroke: #000000; stroke-width: 0.5;"/><!--MD5=[87b71bbd7c7e51674aee4d8d213c4dfd]
link _gclui to _graphcommandlanguage--><path d="M111.593,666.2089 C120.831,662.3146 130.799,656.4706 137.044,648 C187.168,580.005 125.119,531.899 171.044,461 C182.027,444.043 199.662,430.602 216.233,420.777 " fill="none" id="_gclui-&gt;_graphcommandlanguage" style="stroke: #000000; stroke-width: 0.5;"/><polygon fill="#000000" points="220.872,418.102,211.0771,419.1318,216.5403,420.5993,215.0728,426.0625,220.872,418.102" style="stroke: #000000; stroke-width: 0.5;"/><!--MD5=[94edbdfe38f378104ff793902e80a452]
link _gclui to _querymanager--><path d="M111.552,673 C134.877,673 172.221,673 203.43,673 " fill="none" id="_gclui-&gt;_querymanager" style="stroke: #000000; stroke-width: 0.5;"/><polygon fill="#000000" points="208.781,673,199.781,669,203.781,673,199.781,677,208.781,673" style="stroke: #000000; stroke-width: 0.5;"/><!--MD5=[180e44a801c72b313cfac1c6dee1f477]
link _graphcommandlanguage to angliciser--><path d="M340.805,400.108 C358.998,399.906 377.728,399.698 393.975,399.517 " fill="none" id="_graphcommandlanguage-&gt;angliciser" style="stroke: #000000; stroke-width: 0.5;"/><polygon fill="#000000" points="399.385,399.457,390.341,395.5575,394.3853,399.5127,390.4301,403.557,399.385,399.457" style="stroke: #000000; stroke-width: 0.5;"/><!--MD5=[0efe7eb2c13d8101a1669ca619d526fd]
link _graphcommandlanguage to _sortedset--><path d="M320.008,383.884 C329.419,381.016 339.019,377.996 348.044,375 C364.819,369.431 383.12,362.819 398.982,356.914 " fill="none" id="_graphcommandlanguage-&gt;_sortedset" style="stroke: #000000; stroke-width: 0.5;"/><polygon fill="#000000" points="403.823,355.105,393.9923,354.5076,399.1392,356.8548,396.792,362.0017,403.823,355.105" style="stroke: #000000; stroke-width: 0.5;"/><!--MD5=[7710c5335812acb0ea2698ca9a3eda09]
link _huviz to _dndloader--><path d="M60.4848,244.585 C46.3793,249.503 30.4467,257.811 22.0435,271.5 C6.1163,297.446 6.1163,519.554 22.0435,545.5 C27.4163,554.252 35.8671,560.805 44.9504,565.678 " fill="none" id="_huviz-&gt;_dndloader" style="stroke: #000000; stroke-width: 1.0;"/><polygon fill="#000000" points="49.4495,567.938,43.2019,560.3243,44.9813,565.6941,39.6116,567.4734,49.4495,567.938" style="stroke: #000000; stroke-width: 1.0;"/><!--MD5=[0a19c39635a92762a7be9d9130041a5d]
link _huviz to _edge--><path d="M60.4848,244.585 C46.3793,249.503 30.4467,257.811 22.0435,271.5 C2.1635,303.885 2.3577,409.997 22.0435,442.5 C30.0969,455.797 45.1441,464.214 58.8392,469.402 " fill="none" id="_huviz-&gt;_edge" style="stroke: #000000; stroke-width: 1.0;"/><polygon fill="#000000" points="63.8081,471.17,56.6703,464.3839,59.0975,469.4935,53.9879,471.9208,63.8081,471.17" style="stroke: #000000; stroke-width: 1.0;"/><!--MD5=[7c5eb97fb3d0511e7c515fe8c5e2c9a9]
link _huviz to _editui--><path d="M60.4848,244.585 C46.3793,249.503 30.4467,257.811 22.0435,271.5 C9.8656,291.338 9.8656,670.6619 22.0435,690.5 C29.8868,703.2769 44.2897,711.3658 57.6439,716.3861 " fill="none" id="_huviz-&gt;_editui" style="stroke: #000000; stroke-width: 1.0;"/><polygon fill="#000000" points="62.5024,718.0998,55.3456,711.3337,57.7872,716.4365,52.6843,718.8781,62.5024,718.0998" style="stroke: #000000; stroke-width: 1.0;"/><!--MD5=[78c92fafc734451d0c4222f6f659630a]
link _huviz to _gclui--><path d="M60.4848,244.585 C46.3793,249.503 30.4467,257.811 22.0435,271.5 C0.6521,306.347 0.6521,604.653 22.0435,639.5 C30.2461,652.8621 45.6228,661.097 59.4715,666.0567 " fill="none" id="_huviz-&gt;_gclui" style="stroke: #000000; stroke-width: 1.0;"/><polygon fill="#000000" points="64.4885,667.7392,57.2275,661.085,59.748,666.1493,54.6837,668.6698,64.4885,667.7392" style="stroke: #000000; stroke-width: 1.0;"/><!--MD5=[45b54291284970458bed53f428aad9bc]
link _huviz to _graphcommandlanguage--><path d="M115.605,247.198 C123.434,251.027 131.403,256.203 137.044,263 C170.264,303.032 134.151,338.324 171.044,375 C173.151,377.095 175.419,379.022 177.813,380.796 " fill="none" id="_huviz-&gt;_graphcommandlanguage" style="stroke: #000000; stroke-width: 1.0;"/><polygon fill="#000000" points="182.25,383.824,177.071,375.4468,178.1201,381.0055,172.5614,382.0546,182.25,383.824" style="stroke: #000000; stroke-width: 1.0;"/><!--MD5=[611afdb953935b80d86a045e5a20c8c3]
link _huviz to _greenerturtle--><path d="M60.4848,244.585 C46.3793,249.503 30.4467,257.811 22.0435,271.5 C8.0926,294.226 8.2289,368.691 22.0435,391.5 C25.9075,397.88 31.3814,403.136 37.5435,407.451 " fill="none" id="_huviz-&gt;_greenerturtle" style="stroke: #000000; stroke-width: 1.0;"/><polygon fill="#000000" points="41.9082,410.291,36.5451,402.0304,37.717,407.5646,32.1828,408.7364,41.9082,410.291" style="stroke: #000000; stroke-width: 1.0;"/><!--MD5=[b5066780bb50e7eb53d192028117f15c]
link _huviz to _indexeddbservice--><path d="M115.725,246.783 C123.656,250.607 131.655,255.884 137.044,263 C181.719,321.997 117.397,375.024 171.044,426 C185.752,439.976 301.557,454.063 376.502,461.849 " fill="none" id="_huviz-&gt;_indexeddbservice" style="stroke: #000000; stroke-width: 1.0;"/><polygon fill="#000000" points="381.825,462.398,373.2842,457.4934,376.8515,461.8837,372.4613,465.451,381.825,462.398" style="stroke: #000000; stroke-width: 1.0;"/><!--MD5=[b8419d487ca96138f60f566e4a1586cd]
link _huviz to _indexeddbstoragecontroller--><path d="M115.611,246.562 C123.632,250.388 131.714,255.723 137.044,263 C188.761,333.625 114.184,390.445 171.044,457 C174.329,460.846 178.131,464.2 182.273,467.124 " fill="none" id="_huviz-&gt;_indexeddbstoragecontroller" style="stroke: #000000; stroke-width: 1.0;"/><polygon fill="#000000" points="186.521,469.908,181.1875,461.6282,182.3396,467.1666,176.8012,468.3186,186.521,469.908" style="stroke: #000000; stroke-width: 1.0;"/><!--MD5=[cf2b9d99b2fde8f9ac8fe3818c591fa6]
link _huviz to multistring--><path d="M60.4848,244.585 C46.3793,249.503 30.4467,257.811 22.0435,271.5 C4.1399,300.665 4.0519,319.389 22.0435,348.5 C27.8559,357.905 37.4166,364.444 47.4805,368.978 " fill="none" id="_huviz-&gt;multistring" style="stroke: #000000; stroke-width: 1.0;"/><polygon fill="#000000" points="52.1282,370.923,45.3711,363.7577,47.5161,368.9921,42.2817,371.1371,52.1282,370.923" style="stroke: #000000; stroke-width: 1.0;"/><!--MD5=[576ad3665183860786542bc172304814]
link _huviz to _node--><path d="M112.465,220.98 C128.36,210.058 150.2,196.242 171.044,187 C189.891,178.643 212.261,172.31 229.664,168.108 " fill="none" id="_huviz-&gt;_node" style="stroke: #000000; stroke-width: 1.0;"/><polygon fill="#000000" points="234.896,166.873,225.2178,165.0477,230.0297,168.0217,227.0557,172.8337,234.896,166.873" style="stroke: #000000; stroke-width: 1.0;"/><!--MD5=[c316f54a23eccd85694cacab9137e8a6]
link _huviz to oncerunner--><path d="M60.4848,244.585 C46.3793,249.503 30.4467,257.811 22.0435,271.5 C14.138,284.378 14.0992,292.646 22.0435,305.5 C27.5754,314.451 36.5026,320.806 46.0275,325.308 " fill="none" id="_huviz-&gt;oncerunner" style="stroke: #000000; stroke-width: 1.0;"/><polygon fill="#000000" points="50.7391,327.372,44.1005,320.0967,46.1593,325.3657,40.8904,327.4244,50.7391,327.372" style="stroke: #000000; stroke-width: 1.0;"/><!--MD5=[53eaa73e9beaed2f6e00aaef30b9a17d]
link _huviz to _predicate--><path d="M115.901,242.12 C143.37,246.333 186.38,252.931 217.995,257.78 " fill="none" id="_huviz-&gt;_predicate" style="stroke: #000000; stroke-width: 1.0;"/><polygon fill="#000000" points="222.967,258.543,214.6766,253.226,218.0247,257.7857,213.465,261.1338,222.967,258.543" style="stroke: #000000; stroke-width: 1.0;"/><!--MD5=[bc42dcbe4b21fcf3c326d926fe3eabe6]
link _huviz to quadParser--><path d="M60.4848,244.585 C46.3793,249.503 30.4467,257.811 22.0435,271.5 C3.1517,302.275 3.0588,565.782 22.0435,596.5 C27.4305,605.216 36.0939,611.373 45.3962,615.717 " fill="none" id="_huviz-&gt;quadParser" style="stroke: #000000; stroke-width: 1.0;"/><polygon fill="#000000" points="50.0025,617.707,43.327,610.4657,45.4125,615.724,40.1542,617.8096,50.0025,617.707" style="stroke: #000000; stroke-width: 1.0;"/><!--MD5=[ef4f53580943ebda46b8452c1e3fea4a]
link _huviz to _settings--><path d="M88.0435,255.198 C88.0435,259.018 88.0435,262.838 88.0435,266.658 " fill="none" id="_huviz-&gt;_settings" style="stroke: #000000; stroke-width: 1.0;"/><polygon fill="#000000" points="88.0435,271.867,92.0435,262.867,88.0435,266.867,84.0435,262.867,88.0435,271.867" style="stroke: #000000; stroke-width: 1.0;"/><!--MD5=[0c21caadf211326c87ff1b7e37a323ba]
link _huviz to _settingswidgets--><path d="M115.901,234.039 C138.223,230.746 170.807,225.941 199.199,221.753 " fill="none" id="_huviz-&gt;_settingswidgets" style="stroke: #000000; stroke-width: 1.0;"/><polygon fill="#000000" points="204.448,220.979,194.9612,218.333,199.5014,221.7075,196.1268,226.2476,204.448,220.979" style="stroke: #000000; stroke-width: 1.0;"/><!--MD5=[38ff69355a392520dfa6bb4e13bad1f0]
link _huviz to _sortedset--><path d="M115.662,250.824 C122.749,254.518 130.305,258.714 137.044,263 C153.095,273.21 153.687,281.213 171.044,289 C176.245,291.333 324.326,319.247 398.722,333.185 " fill="none" id="_huviz-&gt;_sortedset" style="stroke: #000000; stroke-width: 1.0;"/><polygon fill="#000000" points="403.948,334.163,395.8377,328.5752,399.0334,333.2429,394.3656,336.4386,403.948,334.163" style="stroke: #000000; stroke-width: 1.0;"/><!--MD5=[19bae500a9ad4dd5ac0c01e4595e6366]
link _huviz to _taxon--><path d="M115.66,248.581 C123.136,252.382 130.894,257.195 137.044,263 C158.494,283.248 148.137,301.415 171.044,320 C187.458,333.318 210.125,340.872 228.275,345.068 " fill="none" id="_huviz-&gt;_taxon" style="stroke: #000000; stroke-width: 1.0;"/><polygon fill="#000000" points="233.266,346.164,225.3357,340.3236,228.3828,345.0896,223.6167,348.1367,233.266,346.164" style="stroke: #000000; stroke-width: 1.0;"/><!--MD5=[f06c90f6ce968f3d0df0990a2e51a62b]
link _huviz to _textcursor--><path d="M60.4848,244.585 C46.3793,249.503 30.4467,257.811 22.0435,271.5 C9.0808,292.616 9.0808,473.384 22.0435,494.5 C27.2052,502.908 35.2077,509.287 43.8826,514.096 " fill="none" id="_huviz-&gt;_textcursor" style="stroke: #000000; stroke-width: 1.0;"/><polygon fill="#000000" points="48.7575,516.609,42.591,508.9295,44.3134,514.3178,38.9251,516.0401,48.7575,516.609" style="stroke: #000000; stroke-width: 1.0;"/><!--MD5=[3a6f22ad93df00ce9fd9dc9592f22562]
link _huviz to uniquer--><path d="M96.8817,220.637 C108.889,196.441 134.366,153.574 171.044,136 C241.987,102.007 271.942,116.076 348.044,136 C375.645,143.227 403.705,160.741 421.566,173.451 " fill="none" id="_huviz-&gt;uniquer" style="stroke: #000000; stroke-width: 1.0;"/><polygon fill="#000000" points="425.881,176.57,420.9289,168.0567,421.8283,173.6416,416.2434,174.5409,425.881,176.57" style="stroke: #000000; stroke-width: 1.0;"/><!--MD5=[c4773edaa6d8e63a11de9e435cd61aba]
link _indexeddbstoragecontroller to _indexeddbservice--><path d="M348.171,477.75 C357.827,476.731 367.519,475.708 376.803,474.728 " fill="none" id="_indexeddbstoragecontroller-&gt;_indexeddbservice" style="stroke: #000000; stroke-width: 0.5;"/><polygon fill="#000000" points="381.916,474.188,372.5462,471.1537,376.9436,474.7122,373.385,479.1096,381.916,474.188" style="stroke: #000000; stroke-width: 0.5;"/><!--MD5=[a2ca38879bb953ea5390095996b88ddb]
link _node to uniquer--><path d="M284.075,165.399 C315.048,169.873 369.749,177.774 405.573,182.949 " fill="none" id="_node-&gt;uniquer" style="stroke: #000000; stroke-width: 0.5;"/><polygon fill="#000000" points="410.716,183.692,402.3812,178.4449,405.7675,182.9763,401.2361,186.3625,410.716,183.692" style="stroke: #000000; stroke-width: 0.5;"/><!--MD5=[93ed82f8c79f28d038d68c50d730322f]
link _predicate to _sortedset--><path d="M296.304,275.006 C312.324,280.256 331.331,286.93 348.044,294 C367.15,302.083 387.787,312.406 404.71,321.317 " fill="none" id="_predicate-&gt;_sortedset" style="stroke: #000000; stroke-width: 0.5;"/><polygon fill="#000000" points="409.381,323.79,403.2995,316.043,404.9624,321.45,399.5554,323.1128,409.381,323.79" style="stroke: #000000; stroke-width: 0.5;"/><!--MD5=[248000c19addd84d3bd8fd9a624f4569]
link _predicate to _treectrl--><path d="M296.106,267.359 C327.97,270.368 374.418,274.755 405.975,277.735 " fill="none" id="_predicate-&gt;_treectrl" style="stroke: #000000; stroke-width: 0.5;"/><polygon fill="#000000" points="411.297,278.238,402.7128,273.4098,406.3191,277.7681,401.9609,281.3744,411.297,278.238" style="stroke: #000000; stroke-width: 0.5;"/><!--MD5=[28310eee2fca0e95a76e2266f3caba5f]
link _predicate to uniquer--><path d="M296.459,255.132 C312.508,250.712 331.496,244.845 348.044,238 C373.081,227.644 400.179,212.49 418.532,201.582 " fill="none" id="_predicate-&gt;uniquer" style="stroke: #000000; stroke-width: 0.5;"/><polygon fill="#000000" points="423.003,198.905,413.2265,200.0964,418.7131,201.4735,417.336,206.9602,423.003,198.905" style="stroke: #000000; stroke-width: 0.5;"/><!--MD5=[98be6845be905518450252ae93d07b4f]
link _settings to _settingswidgets--><path d="M121.156,272.402 C126.534,269.397 132.001,266.198 137.044,263 C152.883,252.954 154.205,246.262 171.044,238 C179.861,233.674 189.555,229.974 199.181,226.853 " fill="none" id="_settings-&gt;_settingswidgets" style="stroke: #000000; stroke-width: 0.5;"/><polygon fill="#000000" points="204.203,225.273,194.4175,224.1579,199.4334,226.7733,196.818,231.7893,204.203,225.273" style="stroke: #000000; stroke-width: 0.5;"/><!--MD5=[151ebb7b97156e44f60a81716f179c47]
link _settingswidgets to uniquer--><path d="M314.549,205.499 C344.063,201.4 379.758,196.442 405.609,192.852 " fill="none" id="_settingswidgets-&gt;uniquer" style="stroke: #000000; stroke-width: 0.5;"/><polygon fill="#000000" points="410.643,192.153,401.1779,189.4304,405.6906,192.8415,402.2795,197.3542,410.643,192.153" style="stroke: #000000; stroke-width: 0.5;"/><!--MD5=[fc90fe1503a3a89654081b9607cd7cce]
link _taxon to angliciser--><path d="M285.572,356.813 C316.416,365.21 369.06,379.54 404.318,389.139 " fill="none" id="_taxon-&gt;angliciser" style="stroke: #000000; stroke-width: 0.5;"/><polygon fill="#000000" points="409.389,390.519,401.7552,384.2961,404.5645,389.2061,399.6545,392.0154,409.389,390.519" style="stroke: #000000; stroke-width: 0.5;"/><!--MD5=[e718b0c18ad25aacf97ca456a9ede7e1]
link _taxon to _sortedset--><path d="M285.572,348.749 C314.851,347.285 363.773,344.839 398.821,343.086 " fill="none" id="_taxon-&gt;_sortedset" style="stroke: #000000; stroke-width: 0.5;"/><polygon fill="#000000" points="403.887,342.833,394.6982,339.2881,398.8933,343.083,395.0983,347.2781,403.887,342.833" style="stroke: #000000; stroke-width: 0.5;"/><!--MD5=[85533fe774a186ff7ac61a8548acf24f]
link _taxon to _treectrl--><path d="M285.572,340.406 C316.968,328.371 370.952,307.677 406.195,294.167 " fill="none" id="_taxon-&gt;_treectrl" style="stroke: #000000; stroke-width: 0.5;"/><polygon fill="#000000" points="411.254,292.228,401.4185,291.7151,406.5854,294.018,404.2825,299.1849,411.254,292.228" style="stroke: #000000; stroke-width: 0.5;"/><!--MD5=[d6a3172dff1eddc9799eb40c22a3dc34]
link <b>gvcl</b> to <b>hsv</b>--><!--MD5=[d5fcc95865112b69530db3bc24e523b9]
link <b>gvcl</b> to _ontoviz--><!--MD5=[f5b7b88db9ca67dfdc2269afca6c2ec9]
link _ontoviz to _socrata--><script type="text/plantuml"><![CDATA[MD5=[b8dbc35786dbed3f400d307b291d577a]
@startuml

scale max 1920 width
left to right direction

skinparam nodesep 17
skinparam ranksep 34
skinparam monochrome true
skinparam shadowing false
skinparam defaultFontName Tahoma
skinparam defaultFontSize 12
skinparam roundCorner 6
skinparam dpi 150
skinparam arrowColor black
skinparam arrowThickness 0.5
skinparam packageTitleAlignment left

skinparam usecase {
  borderThickness 0.5
}

skinparam rectangle {
  borderThickness 0.5
}

skinparam component {
  borderThickness 1
}


(angliciser)
rectangle "dndloader" as _dndloader
rectangle "edge" as _edge
rectangle "editui" as _editui
rectangle "fsm" as _fsm
rectangle "gclui" as _gclui
rectangle "graphcommandlanguage" as _graphcommandlanguage
rectangle "greenerturtle" as _greenerturtle
(<b>gvcl</b>)
(<b>hsv</b>)
rectangle "<b>huviz</b>" as _huviz
rectangle "indexeddbservice" as _indexeddbservice
rectangle "indexeddbstoragecontroller" as _indexeddbstoragecontroller
(multistring)
rectangle "node" as _node
(oncerunner)
rectangle "<b>ontoviz</b>" as _ontoviz
rectangle "predicate" as _predicate
(quadParser)
rectangle "querymanager" as _querymanager
rectangle "settings" as _settings
rectangle "settingswidgets" as _settingswidgets
rectangle "<b>socrata</b>" as _socrata
rectangle "sortedset" as _sortedset
rectangle "taxon" as _taxon
rectangle "textcursor" as _textcursor
rectangle "treectrl" as _treectrl
(uniquer)


_editui --> _fsm
_editui --> _indexeddbstoragecontroller
_gclui --> _graphcommandlanguage
_gclui --> _querymanager
_graphcommandlanguage --> (angliciser)
_graphcommandlanguage --> _sortedset
_huviz -[thickness=1]> _dndloader
_huviz -[thickness=1]> _edge
_huviz -[thickness=1]> _editui
_huviz -[thickness=1]> _gclui
_huviz -[thickness=1]> _graphcommandlanguage
_huviz -[thickness=1]> _greenerturtle
_huviz -[thickness=1]> _indexeddbservice
_huviz -[thickness=1]> _indexeddbstoragecontroller
_huviz -[thickness=1]> (multistring)
_huviz -[thickness=1]> _node
_huviz -[thickness=1]> (oncerunner)
_huviz -[thickness=1]> _predicate
_huviz -[thickness=1]> (quadParser)
_huviz -[thickness=1]> _settings
_huviz -[thickness=1]> _settingswidgets
_huviz -[thickness=1]> _sortedset
_huviz -[thickness=1]> _taxon
_huviz -[thickness=1]> _textcursor
_huviz -[thickness=1]> (uniquer)
_indexeddbstoragecontroller --> _indexeddbservice
_node --> (uniquer)
_predicate --> _sortedset
_predicate --> _treectrl
_predicate --> (uniquer)
_settings --> _settingswidgets
_settingswidgets --> (uniquer)
_taxon --> (angliciser)
_taxon --> _sortedset
_taxon --> _treectrl

@enduml


' View and edit on https://arkit.pro
]]></script></g></svg>