<?xml version="1.0" encoding="UTF-8" standalone="no"?><svg xmlns="http://www.w3.org/2000/svg" xmlns:xlink="http://www.w3.org/1999/xlink" contentScriptType="application/ecmascript" contentStyleType="text/css" height="777px" preserveAspectRatio="none" style="width:549px;height:777px;" version="1.1" viewBox="0 0 549 777" width="549px" zoomAndPan="magnify"><defs/><g><ellipse cx="473.9913" cy="502.8774" fill="#F8F8F8" rx="44.7193" ry="12.8774" style="stroke: #383838; stroke-width: 0.5;"/><text fill="#000000" font-family="Tahoma, sans-serif" font-size="12" lengthAdjust="spacingAndGlyphs" textLength="59" x="444.4913" y="506.3618">angliciser</text><!--MD5=[065b424c64954ecc3679e701d25a941e]
entity _datasetdb--><rect fill="#F8F8F8" height="33.9688" rx="3" ry="3" style="stroke: #000000; stroke-width: 0.5;" width="96" x="229.272" y="110"/><text fill="#000000" font-family="Tahoma, sans-serif" font-size="12" font-weight="bold" lengthAdjust="spacingAndGlyphs" textLength="76" x="239.272" y="131.1387">datasetdb</text><!--MD5=[68f424e333f01539f4809daa1e86d0f0]
entity _dndloader--><rect fill="#F8F8F8" height="33.9688" rx="3" ry="3" style="stroke: #000000; stroke-width: 0.5;" width="83" x="235.772" y="247"/><text fill="#000000" font-family="Tahoma, sans-serif" font-size="12" lengthAdjust="spacingAndGlyphs" textLength="63" x="245.772" y="268.1387">dndloader</text><!--MD5=[88c490e9164e48e33bb1acceb2aacd6d]
entity _edge--><rect fill="#F8F8F8" height="33.9688" rx="3" ry="3" style="stroke: #000000; stroke-width: 0.5;" width="52" x="66.7721" y="400"/><text fill="#000000" font-family="Tahoma, sans-serif" font-size="12" lengthAdjust="spacingAndGlyphs" textLength="32" x="76.7721" y="421.1387">edge</text><!--MD5=[2e8c035363463292a2a2d5ce12b2c02c]
entity _editui--><rect fill="#F8F8F8" height="33.9688" rx="3" ry="3" style="stroke: #000000; stroke-width: 0.5;" width="54" x="65.7721" y="733"/><text fill="#000000" font-family="Tahoma, sans-serif" font-size="12" lengthAdjust="spacingAndGlyphs" textLength="34" x="75.7721" y="754.1387">editui</text><!--MD5=[85e828cec410b55b18bc9d950a8a5ef8]
entity _fsm--><rect fill="#F8F8F8" height="33.9688" rx="3" ry="3" style="stroke: #000000; stroke-width: 0.5;" width="42" x="256.272" y="733"/><text fill="#000000" font-family="Tahoma, sans-serif" font-size="12" lengthAdjust="spacingAndGlyphs" textLength="22" x="266.272" y="754.1387">fsm</text><!--MD5=[4086444eb55f169405db08ef307d9d70]
entity _gclui--><rect fill="#F8F8F8" height="33.9688" rx="3" ry="3" style="stroke: #000000; stroke-width: 0.5;" width="48" x="68.7721" y="682"/><text fill="#000000" font-family="Tahoma, sans-serif" font-size="12" lengthAdjust="spacingAndGlyphs" textLength="28" x="78.7721" y="703.1387">gclui</text><!--MD5=[995c6bd86ece32814d0ce502d3a43650]
entity _graphcommandlanguage--><rect fill="#F8F8F8" height="33.9688" rx="3" ry="3" style="stroke: #000000; stroke-width: 0.5;" width="173" x="190.772" y="486"/><text fill="#000000" font-family="Tahoma, sans-serif" font-size="12" lengthAdjust="spacingAndGlyphs" textLength="153" x="200.772" y="507.1387">graphcommandlanguage</text><!--MD5=[78e51e3f01a585ec427433fb7dc601b3]
entity _greenerturtle--><rect fill="#F8F8F8" height="33.9688" rx="3" ry="3" style="stroke: #000000; stroke-width: 0.5;" width="102" x="41.7721" y="580"/><text fill="#000000" font-family="Tahoma, sans-serif" font-size="12" lengthAdjust="spacingAndGlyphs" textLength="82" x="51.7721" y="601.1387">greenerturtle</text><ellipse cx="92.7782" cy="24.8774" fill="#F8F8F8" rx="23.5061" ry="12.8774" style="stroke: #383838; stroke-width: 0.5;"/><text fill="#000000" font-family="Tahoma, sans-serif" font-size="12" font-weight="bold" lengthAdjust="spacingAndGlyphs" textLength="29" x="78.2782" y="28.3618">gvcl</text><ellipse cx="92.9498" cy="67.8774" fill="#F8F8F8" rx="20.6777" ry="12.8774" style="stroke: #383838; stroke-width: 0.5;"/><text fill="#000000" font-family="Tahoma, sans-serif" font-size="12" font-weight="bold" lengthAdjust="spacingAndGlyphs" textLength="25" x="80.4498" y="71.3618">hsv</text><!--MD5=[c17c2e27dcac3cee95af133266e055c4]
entity _huviz--><rect fill="#F8F8F8" height="33.9688" rx="3" ry="3" style="stroke: #000000; stroke-width: 0.5;" width="58" x="63.7721" y="298"/><text fill="#000000" font-family="Tahoma, sans-serif" font-size="12" font-weight="bold" lengthAdjust="spacingAndGlyphs" textLength="38" x="73.7721" y="319.1387">huviz</text><!--MD5=[0ec5cfff40ac86c6e424ea8c83617c61]
entity _indexeddbservice--><rect fill="#F8F8F8" height="33.9688" rx="3" ry="3" style="stroke: #000000; stroke-width: 0.5;" width="130" x="408.772" y="570"/><text fill="#000000" font-family="Tahoma, sans-serif" font-size="12" lengthAdjust="spacingAndGlyphs" textLength="110" x="418.772" y="591.1387">indexeddbservice</text><!--MD5=[af43522a83a3894ea69d66d18845e476]
entity _indexeddbstoragecontroller--><rect fill="#F8F8F8" height="33.9688" rx="3" ry="3" style="stroke: #000000; stroke-width: 0.5;" width="193" x="180.772" y="607"/><text fill="#000000" font-family="Tahoma, sans-serif" font-size="12" lengthAdjust="spacingAndGlyphs" textLength="173" x="190.772" y="628.1387">indexeddbstoragecontroller</text><ellipse cx="92.5269" cy="549.8774" fill="#F8F8F8" rx="48.2548" ry="12.8774" style="stroke: #383838; stroke-width: 0.5;"/><text fill="#000000" font-family="Tahoma, sans-serif" font-size="12" lengthAdjust="spacingAndGlyphs" textLength="64" x="60.5269" y="553.3618">multistring</text><!--MD5=[a1220b791bfdf8d2fcff6a69a8402a50]
entity _node--><rect fill="#F8F8F8" height="33.9688" rx="3" ry="3" style="stroke: #000000; stroke-width: 0.5;" width="51" x="251.772" y="196"/><text fill="#000000" font-family="Tahoma, sans-serif" font-size="12" lengthAdjust="spacingAndGlyphs" textLength="31" x="261.772" y="217.1387">node</text><ellipse cx="92.5625" cy="506.8774" fill="#F8F8F8" rx="51.7904" ry="12.8774" style="stroke: #383838; stroke-width: 0.5;"/><text fill="#000000" font-family="Tahoma, sans-serif" font-size="12" lengthAdjust="spacingAndGlyphs" textLength="69" x="58.0625" y="510.3618">oncerunner</text><!--MD5=[1acd4c73490d50fea545701d86a6f02a]
entity _ontoviz--><rect fill="#F8F8F8" height="33.9688" rx="3" ry="3" style="stroke: #000000; stroke-width: 0.5;" width="74" x="240.272" y="8"/><text fill="#000000" font-family="Tahoma, sans-serif" font-size="12" font-weight="bold" lengthAdjust="spacingAndGlyphs" textLength="54" x="250.272" y="29.1387">ontoviz</text><!--MD5=[8bd7f295a0ce07e47a21f34eba561762]
entity _predicate--><rect fill="#F8F8F8" height="33.9688" rx="3" ry="3" style="stroke: #000000; stroke-width: 0.5;" width="80" x="237.272" y="349"/><text fill="#000000" font-family="Tahoma, sans-serif" font-size="12" lengthAdjust="spacingAndGlyphs" textLength="60" x="247.272" y="370.1387">predicate</text><ellipse cx="92.9272" cy="464.031" fill="#F8F8F8" rx="53.1551" ry="13.031" style="stroke: #383838; stroke-width: 0.5;"/><text fill="#000000" font-family="Tahoma, sans-serif" font-size="12" lengthAdjust="spacingAndGlyphs" textLength="72" x="56.9272" y="467.5154">quadParser</text><!--MD5=[bdeb9b27363b218ec700e114faa1f575]
entity _querymanager--><rect fill="#F8F8F8" height="33.9688" rx="3" ry="3" style="stroke: #000000; stroke-width: 0.5;" width="110" x="222.272" y="682"/><text fill="#000000" font-family="Tahoma, sans-serif" font-size="12" lengthAdjust="spacingAndGlyphs" textLength="90" x="232.272" y="703.1387">querymanager</text><!--MD5=[df354d2524069015f910758bbbe80e8a]
entity _settings--><rect fill="#F8F8F8" height="33.9688" rx="3" ry="3" style="stroke: #000000; stroke-width: 0.5;" width="70" x="57.7721" y="349"/><text fill="#000000" font-family="Tahoma, sans-serif" font-size="12" lengthAdjust="spacingAndGlyphs" textLength="50" x="67.7721" y="370.1387">settings</text><!--MD5=[698519afe8ef840e9874c8356e39c7e3]
entity _settingswidgets--><rect fill="#F8F8F8" height="33.9688" rx="3" ry="3" style="stroke: #000000; stroke-width: 0.5;" width="119" x="217.772" y="298"/><text fill="#000000" font-family="Tahoma, sans-serif" font-size="12" lengthAdjust="spacingAndGlyphs" textLength="99" x="227.772" y="319.1387">settingswidgets</text><!--MD5=[b2685753d20aee33b1198430d4ca6153]
entity _socrata--><rect fill="#F8F8F8" height="33.9688" rx="3" ry="3" style="stroke: #000000; stroke-width: 0.5;" width="77" x="238.772" y="59"/><text fill="#000000" font-family="Tahoma, sans-serif" font-size="12" font-weight="bold" lengthAdjust="spacingAndGlyphs" textLength="57" x="248.772" y="80.1387">socrata</text><ellipse cx="473.9055" cy="459.8774" fill="#F8F8F8" rx="46.1335" ry="12.8774" style="stroke: #383838; stroke-width: 0.5;"/><text fill="#000000" font-family="Tahoma, sans-serif" font-size="12" lengthAdjust="spacingAndGlyphs" textLength="61" x="443.4055" y="463.3618">sortedset</text><!--MD5=[319f27bc800d444a751a01b2683199e4]
entity _taxon--><rect fill="#F8F8F8" height="33.9688" rx="3" ry="3" style="stroke: #000000; stroke-width: 0.5;" width="55" x="249.772" y="400"/><text fill="#000000" font-family="Tahoma, sans-serif" font-size="12" lengthAdjust="spacingAndGlyphs" textLength="35" x="259.772" y="421.1387">taxon</text><!--MD5=[90aed9b54c4f2d78720c94aa7e57e608]
entity _textcursor--><rect fill="#F8F8F8" height="33.9688" rx="3" ry="3" style="stroke: #000000; stroke-width: 0.5;" width="84" x="50.7721" y="631"/><text fill="#000000" font-family="Tahoma, sans-serif" font-size="12" lengthAdjust="spacingAndGlyphs" textLength="64" x="60.7721" y="652.1387">textcursor</text><!--MD5=[ceba8e24a112afc51c5fe49531598f36]
entity _treectrl--><rect fill="#F8F8F8" height="33.9688" rx="3" ry="3" style="stroke: #000000; stroke-width: 0.5;" width="66" x="440.772" y="372"/><text fill="#000000" font-family="Tahoma, sans-serif" font-size="12" lengthAdjust="spacingAndGlyphs" textLength="46" x="450.772" y="393.1387">treectrl</text><ellipse cx="473.5918" cy="238.8774" fill="#F8F8F8" rx="34.8198" ry="12.8774" style="stroke: #383838; stroke-width: 0.5;"/><text fill="#000000" font-family="Tahoma, sans-serif" font-size="12" lengthAdjust="spacingAndGlyphs" textLength="45" x="451.0918" y="242.3618">uniquer</text><!--MD5=[edc372a5cb21e65345c5bf7d05238963]
link _datasetdb to _dndloader--><path d="M229.153,129.539 C204.632,133.669 177.128,143.367 163.272,165.5 C148.179,189.61 148.179,205.39 163.272,229.5 C177.254,251.836 205.565,260.483 230.474,263.536 " fill="none" id="_datasetdb-&gt;_dndloader" style="stroke: #000000; stroke-width: 1.0;"/><polygon fill="#000000" points="235.732,264.105,227.2152,259.1589,230.7611,263.5665,226.3535,267.1124,235.732,264.105" style="stroke: #000000; stroke-width: 1.0;"/><!--MD5=[bfb75d4d8f0723c1988c6bc57ecf3a1e]
link _datasetdb to uniquer--><path d="M325.404,137.879 C341.308,142.561 358.81,148.864 373.772,157 C406.582,174.842 438.8,204.397 457.181,222.728 " fill="none" id="_datasetdb-&gt;uniquer" style="stroke: #000000; stroke-width: 1.0;"/><polygon fill="#000000" points="461.108,226.684,457.6096,217.4774,457.5868,223.1342,451.93,223.1114,461.108,226.684" style="stroke: #000000; stroke-width: 1.0;"/><!--MD5=[fdb1266c795476e54b3fbfa48d7c662e]
link _dndloader to uniquer--><path d="M319.046,258.759 C353.304,254.356 401.873,248.113 435.199,243.829 " fill="none" id="_dndloader-&gt;uniquer" style="stroke: #000000; stroke-width: 0.5;"/><polygon fill="#000000" points="440.412,243.159,430.9757,240.3383,435.4527,243.796,431.995,248.2731,440.412,243.159" style="stroke: #000000; stroke-width: 0.5;"/><!--MD5=[a30baaf1f5525220c49869b40c8172a6]
link _editui to _fsm--><path d="M119.92,750 C154.816,750 216.217,750 250.778,750 " fill="none" id="_editui-&gt;_fsm" style="stroke: #000000; stroke-width: 0.5;"/><polygon fill="#000000" points="256.087,750,247.087,746,251.087,750,247.087,754,256.087,750" style="stroke: #000000; stroke-width: 0.5;"/><!--MD5=[7a5d0419302720763152f26417e90ab3]
link _editui to _indexeddbstoragecontroller--><path d="M119.962,740.6077 C128.761,736.6558 138.243,731.4546 145.772,725 C166.643,707.1067 160.21,692.2473 180.772,674 C194.718,661.624 212.274,651.307 228.518,643.322 " fill="none" id="_editui-&gt;_indexeddbstoragecontroller" style="stroke: #000000; stroke-width: 0.5;"/><polygon fill="#000000" points="233.061,641.132,223.2169,641.4371,228.557,643.3033,226.6909,648.6434,233.061,641.132" style="stroke: #000000; stroke-width: 0.5;"/><!--MD5=[87b71bbd7c7e51674aee4d8d213c4dfd]
link _gclui to _graphcommandlanguage--><path d="M116.8,692.4785 C126.904,688.5783 138.17,682.6544 145.772,674 C178.515,636.726 150.903,607.614 180.772,568 C195.02,549.104 216.423,533.817 235.359,522.828 " fill="none" id="_gclui-&gt;_graphcommandlanguage" style="stroke: #000000; stroke-width: 0.5;"/><polygon fill="#000000" points="240.114,520.127,230.3126,521.0929,235.7661,522.596,234.263,528.0495,240.114,520.127" style="stroke: #000000; stroke-width: 0.5;"/><!--MD5=[94edbdfe38f378104ff793902e80a452]
link _gclui to _querymanager--><path d="M116.886,699 C141.832,699 182.562,699 216.604,699 " fill="none" id="_gclui-&gt;_querymanager" style="stroke: #000000; stroke-width: 0.5;"/><polygon fill="#000000" points="222.006,699,213.006,695,217.006,699,213.006,703,222.006,699" style="stroke: #000000; stroke-width: 0.5;"/><!--MD5=[2f4a81c33d3c78d79ede8fe8a7b03976]
link _gclui to sortedset--><path d="M116.872,691.848 C126.75,687.8641 137.814,682.0498 145.772,674 C171.632,647.84 153.634,623.832 180.772,599 C248.089,537.403 300.822,583.809 373.772,529 C394.881,513.141 387.421,496.532 408.772,481 C415.507,476.101 423.448,472.302 431.402,469.371 " fill="none" id="_gclui-&gt;sortedset" style="stroke: #000000; stroke-width: 0.5;"/><polygon fill="#000000" points="436.346,467.656,426.5322,466.8261,431.6221,469.2944,429.1537,474.3843,436.346,467.656" style="stroke: #000000; stroke-width: 0.5;"/><!--MD5=[180e44a801c72b313cfac1c6dee1f477]
link _graphcommandlanguage to angliciser--><path d="M363.866,503 C384.454,503 405.749,503 423.989,503 " fill="none" id="_graphcommandlanguage-&gt;angliciser" style="stroke: #000000; stroke-width: 0.5;"/><polygon fill="#000000" points="429.049,503,420.049,499,424.049,503,420.049,507,429.049,503" style="stroke: #000000; stroke-width: 0.5;"/><!--MD5=[04abc1225e7ffdb108f39a6b72fc8d2f]
link _graphcommandlanguage to sortedset--><path d="M355.423,485.944 C381.652,480.145 409.92,473.895 432.138,468.983 " fill="none" id="_graphcommandlanguage-&gt;sortedset" style="stroke: #000000; stroke-width: 0.5;"/><polygon fill="#000000" points="437.072,467.893,427.4205,465.9311,432.19,468.9728,429.1482,473.7423,437.072,467.893" style="stroke: #000000; stroke-width: 0.5;"/><!--MD5=[0a19c39635a92762a7be9d9130041a5d]
link _huviz to _edge--><path d="M63.7049,320.946 C48.552,325.686 31.3319,334.027 22.2721,348.5 C14.254,361.308 14.2728,369.68 22.2721,382.5 C30.9563,396.418 47.0643,404.875 61.693,409.93 " fill="none" id="_huviz-&gt;_edge" style="stroke: #000000; stroke-width: 1.0;"/><polygon fill="#000000" points="66.5845,411.517,59.2575,404.9356,61.8284,409.9745,56.7895,412.5453,66.5845,411.517" style="stroke: #000000; stroke-width: 1.0;"/><!--MD5=[7c5eb97fb3d0511e7c515fe8c5e2c9a9]
link _huviz to _editui--><path d="M63.7049,320.946 C48.552,325.686 31.3319,334.027 22.2721,348.5 C0.576,383.158 0.576,681.8419 22.2721,716.5 C30.7348,730.0187 46.3175,738.1878 60.6847,743.0689 " fill="none" id="_huviz-&gt;_editui" style="stroke: #000000; stroke-width: 1.0;"/><polygon fill="#000000" points="65.4984,744.6011,58.1357,738.0597,60.7339,743.0845,55.7091,745.6828,65.4984,744.6011" style="stroke: #000000; stroke-width: 1.0;"/><!--MD5=[78c92fafc734451d0c4222f6f659630a]
link _huviz to _gclui--><path d="M63.7049,320.946 C48.552,325.686 31.3319,334.027 22.2721,348.5 C3.5828,378.355 3.5828,635.645 22.2721,665.5 C31.3162,679.9474 48.4923,688.285 63.6259,693.029 " fill="none" id="_huviz-&gt;_gclui" style="stroke: #000000; stroke-width: 1.0;"/><polygon fill="#000000" points="68.6652,694.5037,61.1511,688.1368,63.8665,693.0993,58.904,695.8147,68.6652,694.5037" style="stroke: #000000; stroke-width: 1.0;"/><!--MD5=[45b54291284970458bed53f428aad9bc]
link _huviz to _graphcommandlanguage--><path d="M121.875,323.28 C130.624,327.102 139.587,332.506 145.772,340 C184.679,387.142 138.58,428.774 180.772,473 C184.538,476.947 188.816,480.377 193.424,483.358 " fill="none" id="_huviz-&gt;_graphcommandlanguage" style="stroke: #000000; stroke-width: 1.0;"/><polygon fill="#000000" points="197.744,485.971,192.1134,477.8904,193.4658,483.3832,187.9729,484.7355,197.744,485.971" style="stroke: #000000; stroke-width: 1.0;"/><!--MD5=[611afdb953935b80d86a045e5a20c8c3]
link _huviz to _greenerturtle--><path d="M63.7049,320.946 C48.552,325.686 31.3319,334.027 22.2721,348.5 C9.5964,368.749 9.5964,543.251 22.2721,563.5 C26.1279,569.659 31.4618,574.708 37.4854,578.842 " fill="none" id="_huviz-&gt;_greenerturtle" style="stroke: #000000; stroke-width: 1.0;"/><polygon fill="#000000" points="41.756,581.559,36.3114,573.3519,37.538,578.8742,32.0157,580.1007,41.756,581.559" style="stroke: #000000; stroke-width: 1.0;"/><!--MD5=[b5066780bb50e7eb53d192028117f15c]
link _huviz to _indexeddbservice--><path d="M121.931,322.903 C130.791,326.711 139.809,332.202 145.772,340 C197.668,407.859 120.758,468.203 180.772,529 C238.453,587.434 336.991,595.68 403.466,593.525 " fill="none" id="_huviz-&gt;_indexeddbservice" style="stroke: #000000; stroke-width: 1.0;"/><polygon fill="#000000" points="408.594,593.336,399.4527,589.6704,403.5974,593.5203,399.7475,597.665,408.594,593.336" style="stroke: #000000; stroke-width: 1.0;"/><!--MD5=[b8419d487ca96138f60f566e4a1586cd]
link _huviz to _indexeddbstoragecontroller--><path d="M122.041,322.82 C130.91,326.621 139.905,332.129 145.772,340 C204.681,419.028 127.928,475.794 180.772,559 C193.162,578.509 213.748,593.625 232.641,604.35 " fill="none" id="_huviz-&gt;_indexeddbstoragecontroller" style="stroke: #000000; stroke-width: 1.0;"/><polygon fill="#000000" points="237.402,606.982,231.4601,599.1274,233.026,604.5633,227.5901,606.1291,237.402,606.982" style="stroke: #000000; stroke-width: 1.0;"/><!--MD5=[cf2b9d99b2fde8f9ac8fe3818c591fa6]
link _huviz to multistring--><path d="M63.7049,320.946 C48.552,325.686 31.3319,334.027 22.2721,348.5 C1.9909,380.898 1.9909,488.102 22.2721,520.5 C28.133,529.862 37.6375,536.255 47.7961,540.62 " fill="none" id="_huviz-&gt;multistring" style="stroke: #000000; stroke-width: 1.0;"/><polygon fill="#000000" points="52.4988,542.486,45.6088,535.4484,47.8514,540.6417,42.658,542.8843,52.4988,542.486" style="stroke: #000000; stroke-width: 1.0;"/><!--MD5=[576ad3665183860786542bc172304814]
link _huviz to _node--><path d="M108.688,297.702 C124.763,280.134 151.945,253.386 180.772,238 C201.226,227.083 226.731,220.723 246.237,217.152 " fill="none" id="_huviz-&gt;_node" style="stroke: #000000; stroke-width: 1.0;"/><polygon fill="#000000" points="251.57,216.217,242.014,213.8331,246.6453,217.0814,243.397,221.7126,251.57,216.217" style="stroke: #000000; stroke-width: 1.0;"/><!--MD5=[c316f54a23eccd85694cacab9137e8a6]
link _huviz to oncerunner--><path d="M63.7049,320.946 C48.552,325.686 31.3319,334.027 22.2721,348.5 C7.1791,372.61 7.1791,452.39 22.2721,476.5 C28.1016,485.812 37.4802,492.29 47.5198,496.792 " fill="none" id="_huviz-&gt;oncerunner" style="stroke: #000000; stroke-width: 1.0;"/><polygon fill="#000000" points="52.1688,498.725,45.3948,491.5757,47.5521,496.805,42.3228,498.9624,52.1688,498.725" style="stroke: #000000; stroke-width: 1.0;"/><!--MD5=[53eaa73e9beaed2f6e00aaef30b9a17d]
link _huviz to _predicate--><path d="M121.954,323.207 C138.97,328.134 161.098,334.495 180.772,340 C197.568,344.699 216.058,349.759 232.258,354.156 " fill="none" id="_huviz-&gt;_predicate" style="stroke: #000000; stroke-width: 1.0;"/><polygon fill="#000000" points="237.208,355.497,229.5686,349.281,232.3823,354.1884,227.4748,357.0021,237.208,355.497" style="stroke: #000000; stroke-width: 1.0;"/><!--MD5=[bc42dcbe4b21fcf3c326d926fe3eabe6]
link _huviz to quadParser--><path d="M63.7049,320.946 C48.552,325.686 31.3319,334.027 22.2721,348.5 C2.2268,380.521 2.2268,401.479 22.2721,433.5 C27.9883,442.631 37.1169,449.037 46.9351,453.527 " fill="none" id="_huviz-&gt;quadParser" style="stroke: #000000; stroke-width: 1.0;"/><polygon fill="#000000" points="51.7984,455.582,45.0643,448.3951,47.1925,453.6363,41.9512,455.7646,51.7984,455.582" style="stroke: #000000; stroke-width: 1.0;"/><!--MD5=[ef4f53580943ebda46b8452c1e3fea4a]
link _huviz to _settings--><path d="M92.7721,332.198 C92.7721,336.018 92.7721,339.838 92.7721,343.658 " fill="none" id="_huviz-&gt;_settings" style="stroke: #000000; stroke-width: 1.0;"/><polygon fill="#000000" points="92.7721,348.867,96.7721,339.867,92.7721,343.867,88.7721,339.867,92.7721,348.867" style="stroke: #000000; stroke-width: 1.0;"/><!--MD5=[0c21caadf211326c87ff1b7e37a323ba]
link _huviz to _settingswidgets--><path d="M121.888,315 C145.895,315 181.339,315 212.212,315 " fill="none" id="_huviz-&gt;_settingswidgets" style="stroke: #000000; stroke-width: 1.0;"/><polygon fill="#000000" points="217.521,315,208.521,311,212.521,315,208.521,319,217.521,315" style="stroke: #000000; stroke-width: 1.0;"/><!--MD5=[4082761b21fcdf8c267ea3a997d893eb]
link _huviz to sortedset--><path d="M121.833,323.667 C130.474,327.5 139.384,332.812 145.772,340 C177.612,375.823 142.644,412.96 180.772,442 C217.666,470.1 350.512,467.269 423.642,463.338 " fill="none" id="_huviz-&gt;sortedset" style="stroke: #000000; stroke-width: 1.0;"/><polygon fill="#000000" points="428.802,463.053,419.5951,459.5553,423.8096,463.3287,420.0362,467.5432,428.802,463.053" style="stroke: #000000; stroke-width: 1.0;"/><!--MD5=[19bae500a9ad4dd5ac0c01e4595e6366]
link _huviz to _taxon--><path d="M121.838,325.249 C130.092,329.086 138.776,334.002 145.772,340 C166.643,357.893 158.359,375.081 180.772,391 C199.419,404.244 224.493,410.745 244.269,413.934 " fill="none" id="_huviz-&gt;_taxon" style="stroke: #000000; stroke-width: 1.0;"/><polygon fill="#000000" points="249.436,414.712,241.1317,409.4168,244.4917,413.9677,239.9408,417.3277,249.436,414.712" style="stroke: #000000; stroke-width: 1.0;"/><!--MD5=[f06c90f6ce968f3d0df0990a2e51a62b]
link _huviz to _textcursor--><path d="M63.7049,320.946 C48.552,325.686 31.3319,334.027 22.2721,348.5 C6.5896,373.552 6.5896,589.448 22.2721,614.5 C27.8334,623.384 36.4694,629.957 45.8147,634.806 " fill="none" id="_huviz-&gt;_textcursor" style="stroke: #000000; stroke-width: 1.0;"/><polygon fill="#000000" points="50.449,637.05,44.0923,629.5272,45.9489,634.8707,40.6054,636.7273,50.449,637.05" style="stroke: #000000; stroke-width: 1.0;"/><!--MD5=[3a6f22ad93df00ce9fd9dc9592f22562]
link _huviz to uniquer--><path d="M99.4766,297.707 C110.135,268.588 136.128,210.636 180.772,187 C256.581,146.864 290.49,166.459 373.772,187 C403.212,194.261 433.58,212.018 452.785,224.761 " fill="none" id="_huviz-&gt;uniquer" style="stroke: #000000; stroke-width: 1.0;"/><polygon fill="#000000" points="456.946,227.56,451.71,219.2183,452.797,224.7697,447.2456,225.8567,456.946,227.56" style="stroke: #000000; stroke-width: 1.0;"/><!--MD5=[c4773edaa6d8e63a11de9e435cd61aba]
link _indexeddbstoragecontroller to _indexeddbservice--><path d="M367.837,606.962 C379.875,604.672 392.072,602.352 403.683,600.143 " fill="none" id="_indexeddbstoragecontroller-&gt;_indexeddbservice" style="stroke: #000000; stroke-width: 0.5;"/><polygon fill="#000000" points="408.621,599.203,399.032,596.9553,403.7091,600.1374,400.5271,604.8144,408.621,599.203" style="stroke: #000000; stroke-width: 0.5;"/><!--MD5=[a2ca38879bb953ea5390095996b88ddb]
link _node to uniquer--><path d="M302.906,216.293 C336.363,220.765 396.462,228.799 435.468,234.013 " fill="none" id="_node-&gt;uniquer" style="stroke: #000000; stroke-width: 0.5;"/><polygon fill="#000000" points="440.59,234.698,432.1997,229.5401,435.6341,234.0351,431.1391,237.4695,440.59,234.698" style="stroke: #000000; stroke-width: 0.5;"/><!--MD5=[a2f550a9ef4c63f37cf9f4261de5c587]
link _predicate to sortedset--><path d="M317.45,372.986 C335.154,376.96 356.032,382.813 373.772,391 C382.123,394.854 425.601,425.888 452.084,445 " fill="none" id="_predicate-&gt;sortedset" style="stroke: #000000; stroke-width: 0.5;"/><polygon fill="#000000" points="456.181,447.959,451.2289,439.4457,452.1283,445.0306,446.5434,445.9299,456.181,447.959" style="stroke: #000000; stroke-width: 0.5;"/><!--MD5=[248000c19addd84d3bd8fd9a624f4569]
link _predicate to _treectrl--><path d="M317.632,370.654 C351.981,374.716 401.48,380.57 435.269,384.565 " fill="none" id="_predicate-&gt;_treectrl" style="stroke: #000000; stroke-width: 0.5;"/><polygon fill="#000000" points="440.552,385.19,432.0839,380.1609,435.5866,384.6029,431.1446,388.1055,440.552,385.19" style="stroke: #000000; stroke-width: 0.5;"/><!--MD5=[28310eee2fca0e95a76e2266f3caba5f]
link _predicate to uniquer--><path d="M317.292,360.227 C335.36,356.371 356.58,350.087 373.772,340 C411.097,318.1 443.953,278.481 460.802,255.922 " fill="none" id="_predicate-&gt;uniquer" style="stroke: #000000; stroke-width: 0.5;"/><polygon fill="#000000" points="463.955,251.648,455.3934,256.5161,460.9869,255.6717,461.8313,261.2652,463.955,251.648" style="stroke: #000000; stroke-width: 0.5;"/><!--MD5=[98be6845be905518450252ae93d07b4f]
link _settings to _settingswidgets--><path d="M127.989,355.478 C143.986,350.635 163.316,344.892 180.772,340 C191.076,337.113 202.035,334.146 212.716,331.312 " fill="none" id="_settings-&gt;_settingswidgets" style="stroke: #000000; stroke-width: 0.5;"/><polygon fill="#000000" points="217.6,330.019,207.8763,328.4539,212.7663,331.2978,209.9224,336.1878,217.6,330.019" style="stroke: #000000; stroke-width: 0.5;"/><!--MD5=[151ebb7b97156e44f60a81716f179c47]
link _settingswidgets to uniquer--><path d="M336.953,301.032 C349.265,297.545 362.062,293.498 373.772,289 C400.45,278.752 429.472,263.58 449.151,252.639 " fill="none" id="_settingswidgets-&gt;uniquer" style="stroke: #000000; stroke-width: 0.5;"/><polygon fill="#000000" points="453.946,249.954,444.139,250.8608,449.5833,252.3968,448.0474,257.8411,453.946,249.954" style="stroke: #000000; stroke-width: 0.5;"/><!--MD5=[fc90fe1503a3a89654081b9607cd7cce]
link _taxon to angliciser--><path d="M304.814,431.235 C330.87,444.916 371.95,465.712 408.772,481 C418.105,484.875 428.391,488.629 437.936,491.907 " fill="none" id="_taxon-&gt;angliciser" style="stroke: #000000; stroke-width: 0.5;"/><polygon fill="#000000" points="442.85,493.575,435.6135,486.8942,438.1154,491.9677,433.0419,494.4696,442.85,493.575" style="stroke: #000000; stroke-width: 0.5;"/><!--MD5=[0aee645be1bce300269f0d1fecc89b9b]
link _taxon to sortedset--><path d="M304.909,422.889 C337.667,430.131 393.618,442.501 431.848,450.952 " fill="none" id="_taxon-&gt;sortedset" style="stroke: #000000; stroke-width: 0.5;"/><polygon fill="#000000" points="436.886,452.066,428.9622,446.2167,432.004,450.9862,427.2345,454.0279,436.886,452.066" style="stroke: #000000; stroke-width: 0.5;"/><!--MD5=[85533fe774a186ff7ac61a8548acf24f]
link _taxon to _treectrl--><path d="M304.909,413.165 C338.762,408.292 397.386,399.853 435.621,394.348 " fill="none" id="_taxon-&gt;_treectrl" style="stroke: #000000; stroke-width: 0.5;"/><polygon fill="#000000" points="440.644,393.625,431.1657,390.9487,435.6951,394.3377,432.3061,398.867,440.644,393.625" style="stroke: #000000; stroke-width: 0.5;"/><!--MD5=[d6a3172dff1eddc9799eb40c22a3dc34]
link <b>gvcl</b> to <b>hsv</b>--><!--MD5=[d5fcc95865112b69530db3bc24e523b9]
link <b>gvcl</b> to _ontoviz--><!--MD5=[f5b7b88db9ca67dfdc2269afca6c2ec9]
link _ontoviz to _socrata--><script type="text/plantuml"><![CDATA[MD5=[4fc5f6b4ef47c0d24ebf873e765e45f4]
@startuml

scale max 1920 width
left to right direction

skinparam nodesep 17
skinparam ranksep 35
skinparam monochrome true
skinparam shadowing false
skinparam defaultFontName Tahoma
skinparam defaultFontSize 12
skinparam roundCorner 6
skinparam dpi 150
skinparam arrowColor black
skinparam arrowThickness 0.5
skinparam packageTitleAlignment left

skinparam usecase {
  borderThickness 0.5
}

skinparam rectangle {
  borderThickness 0.5
}

skinparam component {
  borderThickness 1
}


(angliciser)
rectangle "<b>datasetdb</b>" as _datasetdb
rectangle "dndloader" as _dndloader
rectangle "edge" as _edge
rectangle "editui" as _editui
rectangle "fsm" as _fsm
rectangle "gclui" as _gclui
rectangle "graphcommandlanguage" as _graphcommandlanguage
rectangle "greenerturtle" as _greenerturtle
(<b>gvcl</b>)
(<b>hsv</b>)
rectangle "<b>huviz</b>" as _huviz
rectangle "indexeddbservice" as _indexeddbservice
rectangle "indexeddbstoragecontroller" as _indexeddbstoragecontroller
(multistring)
rectangle "node" as _node
(oncerunner)
rectangle "<b>ontoviz</b>" as _ontoviz
rectangle "predicate" as _predicate
(quadParser)
rectangle "querymanager" as _querymanager
rectangle "settings" as _settings
rectangle "settingswidgets" as _settingswidgets
rectangle "<b>socrata</b>" as _socrata
(sortedset)
rectangle "taxon" as _taxon
rectangle "textcursor" as _textcursor
rectangle "treectrl" as _treectrl
(uniquer)


_datasetdb -[thickness=1]> _dndloader
_datasetdb -[thickness=1]> (uniquer)
_dndloader --> (uniquer)
_editui --> _fsm
_editui --> _indexeddbstoragecontroller
_gclui --> _graphcommandlanguage
_gclui --> _querymanager
_gclui --> (sortedset)
_graphcommandlanguage --> (angliciser)
_graphcommandlanguage --> (sortedset)
_huviz -[thickness=1]> _edge
_huviz -[thickness=1]> _editui
_huviz -[thickness=1]> _gclui
_huviz -[thickness=1]> _graphcommandlanguage
_huviz -[thickness=1]> _greenerturtle
_huviz -[thickness=1]> _indexeddbservice
_huviz -[thickness=1]> _indexeddbstoragecontroller
_huviz -[thickness=1]> (multistring)
_huviz -[thickness=1]> _node
_huviz -[thickness=1]> (oncerunner)
_huviz -[thickness=1]> _predicate
_huviz -[thickness=1]> (quadParser)
_huviz -[thickness=1]> _settings
_huviz -[thickness=1]> _settingswidgets
_huviz -[thickness=1]> (sortedset)
_huviz -[thickness=1]> _taxon
_huviz -[thickness=1]> _textcursor
_huviz -[thickness=1]> (uniquer)
_indexeddbstoragecontroller --> _indexeddbservice
_node --> (uniquer)
_predicate --> (sortedset)
_predicate --> _treectrl
_predicate --> (uniquer)
_settings --> _settingswidgets
_settingswidgets --> (uniquer)
_taxon --> (angliciser)
_taxon --> (sortedset)
_taxon --> _treectrl

@enduml


' View and edit on https://arkit.pro
]]></script></g></svg>